<?xml version="1.0" encoding="UTF-8" standalone="no"?>
<!-- Created with Inkscape (http://www.inkscape.org/) -->

<svg
   xmlns:dc="http://purl.org/dc/elements/1.1/"
   xmlns:cc="http://creativecommons.org/ns#"
   xmlns:rdf="http://www.w3.org/1999/02/22-rdf-syntax-ns#"
   xmlns:svg="http://www.w3.org/2000/svg"
   xmlns="http://www.w3.org/2000/svg"
   version="1.1"
   width="185"
   height="188"
   id="svg2">
  <defs
     id="defs4">
    <clipPath
       id="clipPath3118">
      <path
         d="M 0,180 185,180 185,0 0,0 0,180 z"
         id="path3120" />
    </clipPath>
    <clipPath
       id="clipPath5251">
      <path
         d="M 0,180 185,180 185,0 0,0 0,180 z"
         id="path5253" />
    </clipPath>
    <clipPath
       id="clipPath5912">
      <path
         d="M 0,180 185,180 185,0 0,0 0,180 z"
         id="path5914" />
    </clipPath>
    <clipPath
       id="clipPath6451">
      <path
         d="M 0,180 185,180 185,0 0,0 0,180 z"
         id="path6453" />
    </clipPath>
    <clipPath
       id="clipPath7655">
      <path
         d="M 0,180 185,180 185,0 0,0 0,180 z"
         id="path7657" />
    </clipPath>
    <clipPath
       id="clipPath7655-2">
      <path
         d="M 0,180 185,180 185,0 0,0 0,180 z"
         id="path7657-0" />
    </clipPath>
    <clipPath
       id="clipPath11342">
      <path
         d="m 0,92.988 90.346,0 L 90.346,0 0,0 0,92.988 z"
         id="path11344" />
    </clipPath>
  </defs>
  <metadata
     id="metadata7">
    <rdf:RDF>
      <cc:Work
         rdf:about="">
        <dc:format>image/svg+xml</dc:format>
        <dc:type
           rdf:resource="http://purl.org/dc/dcmitype/StillImage" />
        <dc:title></dc:title>
      </cc:Work>
    </rdf:RDF>
  </metadata>
  <g
     transform="translate(0,-864.36218)"
     id="layer1">
    <g
       transform="matrix(0.9,0,0,-0.9,51.84385,939.83559)"
       id="g11338">
      <g
         clip-path="url(#clipPath11342)"
         id="g11340">
        <g
           transform="translate(74.7816,46.2976)"
           id="g11346">
          <path
             d="m 0,0 c 0,-16.37 -13.271,-29.641 -29.641,-29.641 -16.37,0 -29.641,13.271 -29.641,29.641 0,16.37 13.271,29.64 29.641,29.64 C -13.271,29.64 0,16.37 0,0"
             id="path11348"
             style="fill:#231f20;fill-opacity:1;fill-rule:nonzero;stroke:none" />
        </g>
        <g
           transform="translate(45.1745,75.2029)"
           id="g11350">
          <path
             d="m 0,0 c -16.011,0 -29.035,-12.878 -29.035,-28.708 0,-15.828 13.024,-28.707 29.035,-28.707 16.008,0 29.032,12.879 29.032,28.707 C 29.032,-12.878 16.008,0 0,0 m 0,-59.057 c -16.914,0 -30.674,13.616 -30.674,30.349 0,16.734 13.76,30.347 30.674,30.347 16.91,0 30.672,-13.613 30.672,-30.347 C 30.672,-45.441 16.91,-59.057 0,-59.057"
             id="path11352"
             style="fill:#ffffff;fill-opacity:1;fill-rule:nonzero;stroke:none" />
        </g>
        <g
           transform="translate(44.8026,65.0196)"
           id="g11354">
          <path
             d="m 0,0 c -9.683,0 -17.562,-7.878 -17.562,-17.561 0,-9.682 7.879,-17.56 17.562,-17.56 9.683,0 17.562,7.878 17.562,17.56 C 17.562,-7.878 9.683,0 0,0 m 0,-35.941 c -10.136,0 -18.381,8.246 -18.381,18.38 0,10.135 8.245,18.38 18.381,18.38 10.136,0 18.379,-8.245 18.379,-18.38 0,-10.134 -8.243,-18.38 -18.379,-18.38"
             id="path11356"
             style="fill:#ffffff;fill-opacity:1;fill-rule:nonzero;stroke:none" />
        </g>
        <g
           transform="translate(48.244,37.582)"
           id="g11358">
          <path
             d="m 0,0 c 0,-0.431 -0.111,-0.642 -0.472,-0.642 -0.363,0 -0.837,0.211 -0.837,0.642 0,0.431 0.293,0.782 0.655,0.782 C -0.292,0.782 0,0.431 0,0"
             id="path11360"
             style="fill:#ffffff;fill-opacity:1;fill-rule:nonzero;stroke:none" />
        </g>
        <g
           transform="translate(47.7718,36.5312)"
           id="g11362">
          <path
             d="m 0,0 c -0.613,0 -1.246,0.393 -1.246,1.051 0,0.655 0.477,1.192 1.065,1.192 0.586,0 1.063,-0.537 1.063,-1.192 C 0.882,0.182 0.402,0 0,0"
             id="path11364"
             style="fill:#ffffff;fill-opacity:1;fill-rule:nonzero;stroke:none" />
        </g>
        <g
           transform="translate(38.3206,52.0117)"
           id="g11366">
          <path
             d="m 0,0 -1.175,-10.325 c -0.012,-0.063 -0.603,-3.265 0.187,-4.763 0.529,-1.007 1.381,-1.63 2.401,-1.756 0.051,0 0.375,-0.003 0.88,-0.003 1.519,0 4.63,0.015 7.248,0.029 l 0,0.002 0.333,0.018 0.807,0 c 0.502,0 0.822,0 0.889,0.006 0.682,0.086 1.661,0.463 2.323,1.749 0.777,1.506 0.195,4.706 0.19,4.74 l -1.159,10.361 0.674,-0.336 c 0.025,-0.013 2.542,-1.255 4.872,-1.255 1.931,0 3.119,0.812 3.631,2.486 0.087,0.286 0.119,0.466 0.125,0.574 l -0.272,0.022 0,0.004 c -0.283,0.006 -0.73,0.011 -1.427,0.011 -1.032,0 -2.418,-0.01 -4.042,-0.021 C 13.329,1.522 9.276,1.493 5.181,1.518 L 4.856,1.509 4.847,1.518 -0.68,1.482 C -5.175,1.455 -8.642,1.431 -9.501,1.446 c 0.014,-0.109 0.046,-0.281 0.128,-0.539 0.522,-1.675 1.74,-2.488 3.717,-2.488 2.386,0 4.96,1.241 4.984,1.253 L 0,0 z m 2.293,-17.668 c -0.907,0 -0.944,0.005 -0.982,0.011 -1.291,0.158 -2.368,0.935 -3.026,2.186 -0.922,1.755 -0.299,5.127 -0.271,5.269 l 1.007,8.845 c -0.968,-0.395 -2.841,-1.045 -4.677,-1.045 -2.317,0 -3.873,1.059 -4.5,3.064 -0.212,0.681 -0.226,1.105 -0.044,1.376 0.092,0.137 0.237,0.225 0.385,0.239 l 0.103,0.008 0.031,-0.014 C -9.147,2.25 -5.48,2.273 -0.685,2.303 L 5.197,2.344 5.205,2.339 5.45,2.34 5.449,2.337 c 4.002,-0.023 7.945,0.006 11.03,0.026 1.626,0.01 3.014,0.021 4.048,0.021 1.854,0 2.117,-0.011 2.253,-0.148 0.055,-0.037 0.101,-0.087 0.142,-0.144 0.183,-0.27 0.172,-0.696 -0.037,-1.38 -0.616,-2.006 -2.14,-3.065 -4.415,-3.065 -1.789,0 -3.615,0.645 -4.568,1.042 l 0.99,-8.872 c 0.022,-0.114 0.633,-3.484 -0.268,-5.235 -0.646,-1.254 -1.702,-2.031 -2.972,-2.19 -0.04,-0.005 -0.079,-0.01 -0.971,-0.01 l -0.808,-0.019 c -2.684,-0.015 -5.996,-0.031 -7.58,-0.031"
             id="path11368"
             style="fill:#ffffff;fill-opacity:1;fill-rule:nonzero;stroke:none" />
        </g>
        <g
           transform="translate(39.8175,35.3305)"
           id="g11370">
          <path
             d="m 0,0 0.796,-0.002 c 1.511,0 4.597,0.014 7.207,0.029 l 0.365,0.02 0.816,0 c 0.456,0 0.815,0 0.875,0.005 0.648,0.082 1.562,0.437 2.192,1.661 0.705,1.368 0.233,4.295 0.176,4.624 l -1.196,10.682 0.943,-0.469 c 0.026,-0.014 2.511,-1.239 4.799,-1.239 1.85,0 2.987,0.775 3.475,2.37 0.05,0.165 0.079,0.287 0.096,0.378 l -0.156,0.013 c -0.284,0.005 -0.714,0.009 -1.358,0.009 -0.929,0 -2.145,-0.008 -3.562,-0.018 L 14.669,18.058 C 11.56,18.038 7.642,18.012 3.683,18.036 l -0.39,-0.012 -0.01,0.011 -7.194,-0.046 c -3.368,-0.02 -5.937,-0.035 -6.892,-0.028 0.022,-0.098 0.052,-0.206 0.089,-0.324 0.498,-1.597 1.663,-2.374 3.561,-2.374 2.327,0 4.886,1.225 4.911,1.237 L -1.301,16.959 -2.509,6.337 C -2.517,6.293 -3.101,3.112 -2.34,1.669 c 0.502,-0.957 1.31,-1.55 2.276,-1.67 L 0,0 z m 0.796,-0.329 -0.88,0.002 c -1.096,0.135 -1.992,0.789 -2.546,1.844 -0.826,1.566 -0.208,4.837 -0.202,4.87 l 1.139,10.016 -0.404,-0.196 c -0.024,-0.012 -2.61,-1.271 -5.056,-1.271 -2.06,0 -3.327,0.852 -3.874,2.603 -0.068,0.216 -0.113,0.407 -0.134,0.567 l -0.024,0.188 0.19,-0.003 c 0.744,-0.013 3.45,0.003 7.083,0.025 l 7.329,0.047 0.008,-0.007 0.255,0.007 c 3.975,-0.024 7.879,0.002 10.986,0.022 l 0.8,0.006 c 1.418,0.009 2.634,0.018 3.564,0.018 0.698,0 1.147,-0.006 1.43,-0.011 l 0.442,-0.04 -0.009,-0.16 c -0.009,-0.147 -0.053,-0.353 -0.132,-0.612 -0.536,-1.751 -1.775,-2.602 -3.788,-2.602 -2.361,0 -4.924,1.261 -4.948,1.274 L 11.623,16.459 12.749,6.396 C 12.845,5.837 13.28,2.995 12.541,1.563 11.846,0.213 10.826,-0.181 10.093,-0.273 10.016,-0.28 9.759,-0.28 9.184,-0.28 L 8.045,-0.3 C 5.427,-0.315 2.315,-0.329 0.796,-0.329 M -2.282,15.58 -3.321,6.46 c -0.008,-0.047 -0.653,-3.449 0.254,-5.173 0.633,-1.204 1.663,-1.949 2.901,-2.101 0.035,-0.005 0.132,-0.009 0.962,-0.009 1.584,0 4.896,0.016 7.579,0.03 l 0.805,0.02 c 0.88,0 0.925,0.005 0.955,0.008 1.215,0.152 2.226,0.899 2.846,2.103 0.884,1.716 0.26,5.096 0.253,5.129 l -1.023,9.16 0.257,-0.106 c 0.924,-0.385 2.737,-1.03 4.505,-1.03 2.194,0 3.666,1.021 4.259,2.95 0.19,0.624 0.208,1.018 0.058,1.241 -0.033,0.043 -0.065,0.077 -0.1,0.101 -0.113,0.109 -0.535,0.119 -2.16,0.119 -0.751,0 -1.689,-0.006 -2.77,-0.013 L 14.538,18.878 C 11.523,18.858 7.763,18.834 3.951,18.855 l -0.28,0.002 -0.009,0 -0.008,0.004 -6.366,-0.043 c -4.542,-0.029 -7.958,-0.049 -8.472,-0.029 l -0.055,0.011 -0.06,-0.005 c -0.1,-0.01 -0.199,-0.072 -0.263,-0.167 -0.149,-0.223 -0.128,-0.616 0.065,-1.237 0.603,-1.929 2.105,-2.948 4.344,-2.948 1.816,0 3.671,0.647 4.615,1.033 l 0.256,0.104 z M 0.796,-1.15 c -0.923,0 -0.956,0.005 -1.006,0.012 -1.343,0.164 -2.462,0.972 -3.146,2.272 -0.96,1.826 -0.316,5.232 -0.288,5.376 l 0.975,8.561 c -1.022,-0.397 -2.765,-0.955 -4.484,-0.955 -2.396,0 -4.006,1.099 -4.657,3.178 -0.228,0.732 -0.235,1.2 -0.023,1.516 0.118,0.176 0.307,0.292 0.505,0.311 l 0.149,0.012 0.039,-0.018 c 0.11,-0.005 0.471,-0.007 1.015,-0.007 1.434,0 4.13,0.016 7.411,0.037 l 6.46,0.044 0.008,-0.005 0.482,0.002 -0.003,-0.005 c 3.715,-0.02 7.363,0.005 10.303,0.024 l 1.722,0.011 c 1.081,0.007 2.02,0.013 2.772,0.013 1.927,0 2.181,-0.008 2.369,-0.196 0.041,-0.025 0.1,-0.084 0.158,-0.163 0.217,-0.32 0.212,-0.789 -0.013,-1.524 -0.638,-2.082 -2.219,-3.181 -4.571,-3.181 -1.672,0 -3.374,0.554 -4.375,0.95 l 0.96,-8.599 C 13.562,6.493 14.207,3.004 13.272,1.189 12.601,-0.115 11.501,-0.924 10.175,-1.089 10.124,-1.095 10.079,-1.1 9.184,-1.1 L 8.379,-1.119 C 5.693,-1.134 2.38,-1.15 0.796,-1.15"
             id="path11372"
             style="fill:#ffffff;fill-opacity:1;fill-rule:nonzero;stroke:none" />
        </g>
        <g
           transform="translate(48.6456,53.8971)"
           id="g11374">
          <path
             d="M 0,0 -0.727,0.382 1.399,4.423 2.124,4.04 0,0 z"
             id="path11376"
             style="fill:#ffffff;fill-opacity:1;fill-rule:nonzero;stroke:none" />
        </g>
        <g
           transform="translate(48.1394,54.348)"
           id="g11378">
          <path
             d="M 0,0 0.437,-0.23 2.409,3.521 1.973,3.751 0,0 z m 0.575,-0.672 -1.017,0.535 2.278,4.33 1.015,-0.535 -2.276,-4.33 z"
             id="path11380"
             style="fill:#ffffff;fill-opacity:1;fill-rule:nonzero;stroke:none" />
        </g>
        <g
           transform="translate(41.8161,53.8975)"
           id="g11382">
          <path
             d="M 0,0 -2.127,4.042 -1.401,4.422 0.726,0.379 0,0 z"
             id="path11384"
             style="fill:#ffffff;fill-opacity:1;fill-rule:nonzero;stroke:none" />
        </g>
        <g
           transform="translate(39.9103,57.8705)"
           id="g11386">
          <path
             d="M 0,0 1.974,-3.752 2.411,-3.525 0.436,0.229 0,0 z m 1.837,-4.193 -2.279,4.33 1.015,0.533 2.28,-4.333 -1.016,-0.53 z"
             id="path11388"
             style="fill:#ffffff;fill-opacity:1;fill-rule:nonzero;stroke:none" />
        </g>
        <g
           transform="translate(52.8112,40.0797)"
           id="g11390">
          <path
             d="m 0,0 -15.949,0.023 10e-4,0.82 L 0.001,0.819 0,0 z"
             id="path11392"
             style="fill:#ffffff;fill-opacity:1;fill-rule:nonzero;stroke:none" />
        </g>
        <g
           transform="translate(37.0256,40.2659)"
           id="g11394">
          <path
             d="M 0,0 15.622,-0.023 15.623,0.47 0.001,0.493 0,0 z M 15.949,-0.35 -0.328,-0.327 -0.326,0.82 15.95,0.796 15.949,-0.35 z"
             id="path11396"
             style="fill:#ffffff;fill-opacity:1;fill-rule:nonzero;stroke:none" />
        </g>
        <g
           transform="translate(47.7162,48.0429)"
           id="g11398">
          <path
             d="m 0,0 c -0.294,0 -0.534,-0.247 -0.534,-0.551 0,-0.303 0.24,-0.551 0.534,-0.551 0.295,0 0.536,0.248 0.536,0.551 C 0.536,-0.247 0.295,0 0,0 m 0,-1.923 c -0.746,0 -1.353,0.615 -1.353,1.372 0,0.756 0.607,1.371 1.353,1.371 0.747,0 1.355,-0.615 1.355,-1.371 0,-0.757 -0.608,-1.372 -1.355,-1.372"
             id="path11400"
             style="fill:#ffffff;fill-opacity:1;fill-rule:nonzero;stroke:none" />
        </g>
        <g
           transform="translate(47.7161,47.8793)"
           id="g11402">
          <path
             d="m 0,0 c -0.204,0 -0.371,-0.174 -0.371,-0.387 0,-0.214 0.167,-0.388 0.371,-0.388 0.205,0 0.372,0.174 0.372,0.388 C 0.372,-0.174 0.205,0 0,0 m 0,-1.102 c -0.385,0 -0.698,0.32 -0.698,0.715 0,0.393 0.313,0.714 0.698,0.714 0.385,0 0.699,-0.321 0.699,-0.714 C 0.699,-0.782 0.385,-1.102 0,-1.102 M 0,0.82 c -0.656,0 -1.189,-0.542 -1.189,-1.207 0,-0.667 0.533,-1.209 1.189,-1.209 0.657,0 1.192,0.542 1.192,1.209 C 1.192,0.278 0.657,0.82 0,0.82 m 0,-2.743 c -0.836,0 -1.516,0.689 -1.516,1.536 0,0.846 0.68,1.534 1.516,1.534 0.838,0 1.519,-0.688 1.519,-1.534 0,-0.847 -0.681,-1.536 -1.519,-1.536"
             id="path11404"
             style="fill:#ffffff;fill-opacity:1;fill-rule:nonzero;stroke:none" />
        </g>
        <g
           transform="translate(42.3323,48.056)"
           id="g11406">
          <path
             d="m 0,0 c -0.296,0 -0.536,-0.245 -0.536,-0.551 0,-0.303 0.24,-0.552 0.536,-0.552 0.294,0 0.534,0.249 0.534,0.552 C 0.534,-0.245 0.294,0 0,0 m 0,-1.922 c -0.747,0 -1.355,0.614 -1.355,1.371 0,0.758 0.608,1.372 1.355,1.372 0.747,0 1.353,-0.614 1.353,-1.372 0,-0.757 -0.606,-1.371 -1.353,-1.371"
             id="path11408"
             style="fill:#ffffff;fill-opacity:1;fill-rule:nonzero;stroke:none" />
        </g>
        <g
           transform="translate(42.3322,47.8925)"
           id="g11410">
          <path
             d="m 0,0 c -0.205,0 -0.372,-0.174 -0.372,-0.388 0,-0.213 0.167,-0.388 0.372,-0.388 0.204,0 0.371,0.175 0.371,0.388 C 0.371,-0.174 0.204,0 0,0 m 0,-1.103 c -0.385,0 -0.699,0.321 -0.699,0.715 0,0.394 0.314,0.715 0.699,0.715 0.385,0 0.698,-0.321 0.698,-0.715 0,-0.394 -0.313,-0.715 -0.698,-0.715 m 0,1.924 c -0.657,0 -1.192,-0.542 -1.192,-1.209 0,-0.666 0.535,-1.207 1.192,-1.207 0.656,0 1.19,0.541 1.19,1.207 0,0.667 -0.534,1.209 -1.19,1.209 m 0,-2.743 c -0.838,0 -1.519,0.688 -1.519,1.534 0,0.847 0.681,1.536 1.519,1.536 0.836,0 1.517,-0.689 1.517,-1.536 0,-0.846 -0.681,-1.534 -1.517,-1.534"
             id="path11412"
             style="fill:#ffffff;fill-opacity:1;fill-rule:nonzero;stroke:none" />
        </g>
        <g
           transform="translate(38.1407,51.1105)"
           id="g11414">
          <path
             d="M 0,0 -0.695,0.437 1.014,3.171 1.708,2.737 0,0 z"
             id="path11416"
             style="fill:#ffffff;fill-opacity:1;fill-rule:nonzero;stroke:none" />
        </g>
        <g
           transform="translate(37.6706,51.5987)"
           id="g11418">
          <path
             d="M 0,0 0.418,-0.263 1.953,2.196 1.535,2.458 0,0 z M 0.522,-0.714 -0.45,-0.104 1.432,2.909 2.404,2.301 0.522,-0.714 z"
             id="path11420"
             style="fill:#ffffff;fill-opacity:1;fill-rule:nonzero;stroke:none" />
        </g>
        <g
           transform="translate(51.6087,51.1105)"
           id="g11422">
          <path
             d="M 0,0 0.695,0.437 -1.013,3.171 -1.708,2.737 0,0 z"
             id="path11424"
             style="fill:#ffffff;fill-opacity:1;fill-rule:nonzero;stroke:none" />
        </g>
        <g
           transform="translate(50.1263,53.7952)"
           id="g11426">
          <path
             d="M 0,0 1.534,-2.459 1.952,-2.196 0.417,0.261 0,0 z M 1.43,-2.911 -0.451,0.104 0.521,0.712 2.402,-2.3 1.43,-2.911 z"
             id="path11428"
             style="fill:#ffffff;fill-opacity:1;fill-rule:nonzero;stroke:none" />
        </g>
        <g
           transform="translate(31.4916,62.0169)"
           id="g11430">
          <path
             d="M 0,0 -3.675,-4.348 -4.511,-3.641 -5.6,2.166 -7.846,-0.489 -8.674,0.214 -5.186,4.34 -4.398,3.675 -3.345,-2.276 -0.829,0.699 0,0 z"
             id="path11432"
             style="fill:#ffffff;fill-opacity:1;fill-rule:nonzero;stroke:none" />
        </g>
        <g
           transform="translate(33.0614,63.1127)"
           id="g11434">
          <path
             d="M 0,0 -3.53,5.767 0.985,8.531 1.552,7.604 -1.659,5.64 -0.817,4.264 1.514,5.694 2.082,4.767 -0.251,3.34 0.737,1.724 4.052,3.753 4.62,2.826 0,0 z"
             id="path11436"
             style="fill:#ffffff;fill-opacity:1;fill-rule:nonzero;stroke:none" />
        </g>
        <g
           transform="translate(39.2354,66.4001)"
           id="g11438">
          <path
             d="M 0,0 -0.995,6.689 0.582,6.924 4.371,2.827 4.391,2.833 3.714,7.389 5.138,7.603 6.135,0.911 4.677,0.694 0.738,4.976 0.714,4.975 1.424,0.211 0,0 z"
             id="path11440"
             style="fill:#ffffff;fill-opacity:1;fill-rule:nonzero;stroke:none" />
        </g>
        <g
           transform="translate(51.9991,71.0158)"
           id="g11442">
          <path
             d="m 0,0 c -0.096,0.566 -0.471,1.029 -1.168,1.205 -0.644,0.164 -1.161,0.062 -1.29,-0.446 -0.284,-1.125 3.768,-1.902 3.23,-4.024 -0.34,-1.345 -1.509,-1.767 -3.227,-1.33 -1.266,0.321 -2.306,1.22 -2.504,2.285 l 1.337,0.145 c 0.2,-0.708 0.559,-1.232 1.427,-1.453 0.741,-0.188 1.37,-0.096 1.53,0.541 0.326,1.29 -3.731,2.046 -3.22,4.061 0.295,1.173 1.623,1.542 2.964,1.202 C 0.325,1.87 1.224,1.083 1.443,0.013 L 0,0 z"
             id="path11444"
             style="fill:#ffffff;fill-opacity:1;fill-rule:nonzero;stroke:none" />
        </g>
        <g
           transform="translate(54.0731,65.1571)"
           id="g11446">
          <path
             d="M 0,0 3.603,5.725 4.896,4.908 1.292,-0.814 0,0 z"
             id="path11448"
             style="fill:#ffffff;fill-opacity:1;fill-rule:nonzero;stroke:none" />
        </g>
        <g
           transform="translate(57.72,62.6105)"
           id="g11450">
          <path
             d="M 0,0 5.079,4.464 8.573,0.487 7.757,-0.229 5.272,2.598 4.062,1.535 5.868,-0.52 5.051,-1.237 3.243,0.818 1.824,-0.431 4.389,-3.352 3.574,-4.068 0,0 z"
             id="path11452"
             style="fill:#ffffff;fill-opacity:1;fill-rule:nonzero;stroke:none" />
        </g>
        <g
           transform="translate(33.5333,26.9572)"
           id="g11454">
          <path
             d="M 0,0 C 0.78,-0.353 1.48,-0.529 1.777,0.13 1.957,0.527 1.751,0.937 1.309,1.135 0.861,1.338 0.441,1.21 0.045,1.04 l -0.362,0.884 c 0.769,0.334 1.426,0.297 1.97,0.052 0.971,-0.438 1.53,-1.28 1.11,-2.215 -0.251,-0.551 -0.731,-0.834 -1.342,-0.834 0.54,-0.493 0.656,-1.154 0.347,-1.845 -0.522,-1.158 -1.691,-1.24 -2.634,-0.814 -0.751,0.337 -1.343,1.046 -1.393,1.918 l 0.969,0.107 c 0.054,-0.568 0.297,-0.971 0.804,-1.2 0.473,-0.212 1.055,-0.116 1.296,0.421 0.408,0.905 -0.541,1.37 -1.182,1.658 L 0,0 z"
             id="path11456"
             style="fill:#ffffff;fill-opacity:1;fill-rule:nonzero;stroke:none" />
        </g>
        <g
           transform="translate(39.149,22.0808)"
           id="g11458">
          <path
             d="M 0,0 C 0.627,-0.125 1.163,0.334 1.485,1.958 1.808,3.584 1.489,4.214 0.863,4.337 0.236,4.462 -0.301,4.004 -0.624,2.378 -0.946,0.755 -0.627,0.127 0,0 M 1.039,5.228 C 2.554,4.927 2.857,3.461 2.517,1.753 2.176,0.046 1.338,-1.192 -0.177,-0.89 c -1.514,0.301 -1.817,1.766 -1.478,3.474 0.341,1.706 1.179,2.945 2.694,2.644"
             id="path11460"
             style="fill:#ffffff;fill-opacity:1;fill-rule:nonzero;stroke:none" />
        </g>
        <g
           transform="translate(43.7906,20.6034)"
           id="g11462">
          <path
             d="M 0,0 -0.376,6.059 1.19,6.157 2.574,1.995 2.588,1.999 3.456,6.298 5.036,6.397 5.414,0.336 4.446,0.276 4.148,5.043 4.133,5.043 3.121,0.194 2.276,0.141 0.688,4.827 0.673,4.826 0.968,0.062 0,0 z"
             id="path11464"
             style="fill:#ffffff;fill-opacity:1;fill-rule:nonzero;stroke:none" />
        </g>
        <g
           transform="translate(52.2252,21.6094)"
           id="g11466">
          <path
             d="M 0,0 -1.973,5.741 -0.918,6.102 -0.132,3.813 1.994,4.542 1.208,6.833 2.264,7.195 4.235,1.454 3.178,1.092 2.332,3.557 0.207,2.826 1.053,0.361 0,0 z"
             id="path11468"
             style="fill:#ffffff;fill-opacity:1;fill-rule:nonzero;stroke:none" />
        </g>
        <g
           transform="translate(56.3935,27.9103)"
           id="g11470">
          <path
             d="M 0,0 2.678,1.582 3.055,0.946 2.737,-2.485 4.489,-1.449 4.916,-2.175 2.078,-3.851 1.701,-3.213 2.027,0.223 0.426,-0.723 0,0 z"
             id="path11472"
             style="fill:#ffffff;fill-opacity:1;fill-rule:nonzero;stroke:none" />
        </g>
        <g
           transform="translate(42.5479,37.7476)"
           id="g11474">
          <path
             d="m 0,0 c 0.065,-0.428 -0.014,-0.652 -0.372,-0.708 -0.357,-0.053 -0.857,0.082 -0.923,0.51 -0.065,0.426 0.172,0.814 0.53,0.87 C -0.407,0.727 -0.065,0.425 0,0"
             id="path11476"
             style="fill:#ffffff;fill-opacity:1;fill-rule:nonzero;stroke:none" />
        </g>
        <g
           transform="translate(42.0231,36.618)"
           id="g11478">
          <path
             d="M 0,0 C -0.622,0 -1.096,0.349 -1.175,0.867 -1.273,1.518 -0.882,2.118 -0.304,2.208 0.288,2.291 0.833,1.83 0.929,1.19 1.059,0.331 0.615,0.077 0.216,0.015 0.147,0.005 0.074,0 0,0"
             id="path11480"
             style="fill:#ffffff;fill-opacity:1;fill-rule:nonzero;stroke:none" />
        </g>
      </g>
    </g>
    <g
       transform="matrix(0.9,0,0,-0.9,51.84385,999.697)"
       id="g11993">
      <g
         clip-path="url(#clipPath11342)"
         id="g11995">
        <g
           transform="translate(74.7816,46.2976)"
           id="g11997">
          <path
             d="m 0,0 c 0,-16.37 -13.271,-29.641 -29.641,-29.641 -16.37,0 -29.641,13.271 -29.641,29.641 0,16.37 13.271,29.64 29.641,29.64 C -13.271,29.64 0,16.37 0,0"
             id="path11999"
             style="fill:#231f20;fill-opacity:1;fill-rule:nonzero;stroke:none" />
        </g>
        <g
           transform="translate(45.1745,75.2029)"
           id="g12001">
          <path
             d="m 0,0 c -16.011,0 -29.035,-12.878 -29.035,-28.708 0,-15.828 13.024,-28.707 29.035,-28.707 16.008,0 29.032,12.879 29.032,28.707 C 29.032,-12.878 16.008,0 0,0 m 0,-59.057 c -16.914,0 -30.674,13.616 -30.674,30.349 0,16.734 13.76,30.347 30.674,30.347 16.91,0 30.672,-13.613 30.672,-30.347 C 30.672,-45.441 16.91,-59.057 0,-59.057"
             id="path12003"
             style="fill:#ffffff;fill-opacity:1;fill-rule:nonzero;stroke:none" />
        </g>
        <g
           transform="translate(44.8026,65.0196)"
           id="g12005">
          <path
             d="m 0,0 c -9.683,0 -17.562,-7.878 -17.562,-17.561 0,-9.682 7.879,-17.56 17.562,-17.56 9.683,0 17.562,7.878 17.562,17.56 C 17.562,-7.878 9.683,0 0,0 m 0,-35.941 c -10.136,0 -18.381,8.246 -18.381,18.38 0,10.135 8.245,18.38 18.381,18.38 10.136,0 18.379,-8.245 18.379,-18.38 0,-10.134 -8.243,-18.38 -18.379,-18.38"
             id="path12007"
             style="fill:#ffffff;fill-opacity:1;fill-rule:nonzero;stroke:none" />
        </g>
        <g
           transform="translate(48.244,37.582)"
           id="g12009">
          <path
             d="m 0,0 c 0,-0.431 -0.111,-0.642 -0.472,-0.642 -0.363,0 -0.837,0.211 -0.837,0.642 0,0.431 0.293,0.782 0.655,0.782 C -0.292,0.782 0,0.431 0,0"
             id="path12011"
             style="fill:#ffffff;fill-opacity:1;fill-rule:nonzero;stroke:none" />
        </g>
        <g
           transform="translate(47.7718,36.5312)"
           id="g12013">
          <path
             d="m 0,0 c -0.613,0 -1.246,0.393 -1.246,1.051 0,0.655 0.477,1.192 1.065,1.192 0.586,0 1.063,-0.537 1.063,-1.192 C 0.882,0.182 0.402,0 0,0"
             id="path12015"
             style="fill:#ffffff;fill-opacity:1;fill-rule:nonzero;stroke:none" />
        </g>
        <g
           transform="translate(38.3206,52.0117)"
           id="g12017">
          <path
             d="m 0,0 -1.175,-10.325 c -0.012,-0.063 -0.603,-3.265 0.187,-4.763 0.529,-1.007 1.381,-1.63 2.401,-1.756 0.051,0 0.375,-0.003 0.88,-0.003 1.519,0 4.63,0.015 7.248,0.029 l 0,0.002 0.333,0.018 0.807,0 c 0.502,0 0.822,0 0.889,0.006 0.682,0.086 1.661,0.463 2.323,1.749 0.777,1.506 0.195,4.706 0.19,4.74 l -1.159,10.361 0.674,-0.336 c 0.025,-0.013 2.542,-1.255 4.872,-1.255 1.931,0 3.119,0.812 3.631,2.486 0.087,0.286 0.119,0.466 0.125,0.574 l -0.272,0.022 0,0.004 c -0.283,0.006 -0.73,0.011 -1.427,0.011 -1.032,0 -2.418,-0.01 -4.042,-0.021 C 13.329,1.522 9.276,1.493 5.181,1.518 L 4.856,1.509 4.847,1.518 -0.68,1.482 C -5.175,1.455 -8.642,1.431 -9.501,1.446 c 0.014,-0.109 0.046,-0.281 0.128,-0.539 0.522,-1.675 1.74,-2.488 3.717,-2.488 2.386,0 4.96,1.241 4.984,1.253 L 0,0 z m 2.293,-17.668 c -0.907,0 -0.944,0.005 -0.982,0.011 -1.291,0.158 -2.368,0.935 -3.026,2.186 -0.922,1.755 -0.299,5.127 -0.271,5.269 l 1.007,8.845 c -0.968,-0.395 -2.841,-1.045 -4.677,-1.045 -2.317,0 -3.873,1.059 -4.5,3.064 -0.212,0.681 -0.226,1.105 -0.044,1.376 0.092,0.137 0.237,0.225 0.385,0.239 l 0.103,0.008 0.031,-0.014 C -9.147,2.25 -5.48,2.273 -0.685,2.303 L 5.197,2.344 5.205,2.339 5.45,2.34 5.449,2.337 c 4.002,-0.023 7.945,0.006 11.03,0.026 1.626,0.01 3.014,0.021 4.048,0.021 1.854,0 2.117,-0.011 2.253,-0.148 0.055,-0.037 0.101,-0.087 0.142,-0.144 0.183,-0.27 0.172,-0.696 -0.037,-1.38 -0.616,-2.006 -2.14,-3.065 -4.415,-3.065 -1.789,0 -3.615,0.645 -4.568,1.042 l 0.99,-8.872 c 0.022,-0.114 0.633,-3.484 -0.268,-5.235 -0.646,-1.254 -1.702,-2.031 -2.972,-2.19 -0.04,-0.005 -0.079,-0.01 -0.971,-0.01 l -0.808,-0.019 c -2.684,-0.015 -5.996,-0.031 -7.58,-0.031"
             id="path12019"
             style="fill:#ffffff;fill-opacity:1;fill-rule:nonzero;stroke:none" />
        </g>
        <g
           transform="translate(39.8175,35.3305)"
           id="g12021">
          <path
             d="m 0,0 0.796,-0.002 c 1.511,0 4.597,0.014 7.207,0.029 l 0.365,0.02 0.816,0 c 0.456,0 0.815,0 0.875,0.005 0.648,0.082 1.562,0.437 2.192,1.661 0.705,1.368 0.233,4.295 0.176,4.624 l -1.196,10.682 0.943,-0.469 c 0.026,-0.014 2.511,-1.239 4.799,-1.239 1.85,0 2.987,0.775 3.475,2.37 0.05,0.165 0.079,0.287 0.096,0.378 l -0.156,0.013 c -0.284,0.005 -0.714,0.009 -1.358,0.009 -0.929,0 -2.145,-0.008 -3.562,-0.018 L 14.669,18.058 C 11.56,18.038 7.642,18.012 3.683,18.036 l -0.39,-0.012 -0.01,0.011 -7.194,-0.046 c -3.368,-0.02 -5.937,-0.035 -6.892,-0.028 0.022,-0.098 0.052,-0.206 0.089,-0.324 0.498,-1.597 1.663,-2.374 3.561,-2.374 2.327,0 4.886,1.225 4.911,1.237 L -1.301,16.959 -2.509,6.337 C -2.517,6.293 -3.101,3.112 -2.34,1.669 c 0.502,-0.957 1.31,-1.55 2.276,-1.67 L 0,0 z m 0.796,-0.329 -0.88,0.002 c -1.096,0.135 -1.992,0.789 -2.546,1.844 -0.826,1.566 -0.208,4.837 -0.202,4.87 l 1.139,10.016 -0.404,-0.196 c -0.024,-0.012 -2.61,-1.271 -5.056,-1.271 -2.06,0 -3.327,0.852 -3.874,2.603 -0.068,0.216 -0.113,0.407 -0.134,0.567 l -0.024,0.188 0.19,-0.003 c 0.744,-0.013 3.45,0.003 7.083,0.025 l 7.329,0.047 0.008,-0.007 0.255,0.007 c 3.975,-0.024 7.879,0.002 10.986,0.022 l 0.8,0.006 c 1.418,0.009 2.634,0.018 3.564,0.018 0.698,0 1.147,-0.006 1.43,-0.011 l 0.442,-0.04 -0.009,-0.16 c -0.009,-0.147 -0.053,-0.353 -0.132,-0.612 -0.536,-1.751 -1.775,-2.602 -3.788,-2.602 -2.361,0 -4.924,1.261 -4.948,1.274 L 11.623,16.459 12.749,6.396 C 12.845,5.837 13.28,2.995 12.541,1.563 11.846,0.213 10.826,-0.181 10.093,-0.273 10.016,-0.28 9.759,-0.28 9.184,-0.28 L 8.045,-0.3 C 5.427,-0.315 2.315,-0.329 0.796,-0.329 M -2.282,15.58 -3.321,6.46 c -0.008,-0.047 -0.653,-3.449 0.254,-5.173 0.633,-1.204 1.663,-1.949 2.901,-2.101 0.035,-0.005 0.132,-0.009 0.962,-0.009 1.584,0 4.896,0.016 7.579,0.03 l 0.805,0.02 c 0.88,0 0.925,0.005 0.955,0.008 1.215,0.152 2.226,0.899 2.846,2.103 0.884,1.716 0.26,5.096 0.253,5.129 l -1.023,9.16 0.257,-0.106 c 0.924,-0.385 2.737,-1.03 4.505,-1.03 2.194,0 3.666,1.021 4.259,2.95 0.19,0.624 0.208,1.018 0.058,1.241 -0.033,0.043 -0.065,0.077 -0.1,0.101 -0.113,0.109 -0.535,0.119 -2.16,0.119 -0.751,0 -1.689,-0.006 -2.77,-0.013 L 14.538,18.878 C 11.523,18.858 7.763,18.834 3.951,18.855 l -0.28,0.002 -0.009,0 -0.008,0.004 -6.366,-0.043 c -4.542,-0.029 -7.958,-0.049 -8.472,-0.029 l -0.055,0.011 -0.06,-0.005 c -0.1,-0.01 -0.199,-0.072 -0.263,-0.167 -0.149,-0.223 -0.128,-0.616 0.065,-1.237 0.603,-1.929 2.105,-2.948 4.344,-2.948 1.816,0 3.671,0.647 4.615,1.033 l 0.256,0.104 z M 0.796,-1.15 c -0.923,0 -0.956,0.005 -1.006,0.012 -1.343,0.164 -2.462,0.972 -3.146,2.272 -0.96,1.826 -0.316,5.232 -0.288,5.376 l 0.975,8.561 c -1.022,-0.397 -2.765,-0.955 -4.484,-0.955 -2.396,0 -4.006,1.099 -4.657,3.178 -0.228,0.732 -0.235,1.2 -0.023,1.516 0.118,0.176 0.307,0.292 0.505,0.311 l 0.149,0.012 0.039,-0.018 c 0.11,-0.005 0.471,-0.007 1.015,-0.007 1.434,0 4.13,0.016 7.411,0.037 l 6.46,0.044 0.008,-0.005 0.482,0.002 -0.003,-0.005 c 3.715,-0.02 7.363,0.005 10.303,0.024 l 1.722,0.011 c 1.081,0.007 2.02,0.013 2.772,0.013 1.927,0 2.181,-0.008 2.369,-0.196 0.041,-0.025 0.1,-0.084 0.158,-0.163 0.217,-0.32 0.212,-0.789 -0.013,-1.524 -0.638,-2.082 -2.219,-3.181 -4.571,-3.181 -1.672,0 -3.374,0.554 -4.375,0.95 l 0.96,-8.599 C 13.562,6.493 14.207,3.004 13.272,1.189 12.601,-0.115 11.501,-0.924 10.175,-1.089 10.124,-1.095 10.079,-1.1 9.184,-1.1 L 8.379,-1.119 C 5.693,-1.134 2.38,-1.15 0.796,-1.15"
             id="path12023"
             style="fill:#ffffff;fill-opacity:1;fill-rule:nonzero;stroke:none" />
        </g>
        <g
           transform="translate(48.6456,53.8971)"
           id="g12025">
          <path
             d="M 0,0 -0.727,0.382 1.399,4.423 2.124,4.04 0,0 z"
             id="path12027"
             style="fill:#ffffff;fill-opacity:1;fill-rule:nonzero;stroke:none" />
        </g>
        <g
           transform="translate(48.1394,54.348)"
           id="g12029">
          <path
             d="M 0,0 0.437,-0.23 2.409,3.521 1.973,3.751 0,0 z m 0.575,-0.672 -1.017,0.535 2.278,4.33 1.015,-0.535 -2.276,-4.33 z"
             id="path12031"
             style="fill:#ffffff;fill-opacity:1;fill-rule:nonzero;stroke:none" />
        </g>
        <g
           transform="translate(41.8161,53.8975)"
           id="g12033">
          <path
             d="M 0,0 -2.127,4.042 -1.401,4.422 0.726,0.379 0,0 z"
             id="path12035"
             style="fill:#ffffff;fill-opacity:1;fill-rule:nonzero;stroke:none" />
        </g>
        <g
           transform="translate(39.9103,57.8705)"
           id="g12037">
          <path
             d="M 0,0 1.974,-3.752 2.411,-3.525 0.436,0.229 0,0 z m 1.837,-4.193 -2.279,4.33 1.015,0.533 2.28,-4.333 -1.016,-0.53 z"
             id="path12039"
             style="fill:#ffffff;fill-opacity:1;fill-rule:nonzero;stroke:none" />
        </g>
        <g
           transform="translate(52.8112,40.0797)"
           id="g12041">
          <path
             d="m 0,0 -15.949,0.023 10e-4,0.82 L 0.001,0.819 0,0 z"
             id="path12043"
             style="fill:#ffffff;fill-opacity:1;fill-rule:nonzero;stroke:none" />
        </g>
        <g
           transform="translate(37.0256,40.2659)"
           id="g12045">
          <path
             d="M 0,0 15.622,-0.023 15.623,0.47 0.001,0.493 0,0 z M 15.949,-0.35 -0.328,-0.327 -0.326,0.82 15.95,0.796 15.949,-0.35 z"
             id="path12047"
             style="fill:#ffffff;fill-opacity:1;fill-rule:nonzero;stroke:none" />
        </g>
        <g
           transform="translate(47.7162,48.0429)"
           id="g12049">
          <path
             d="m 0,0 c -0.294,0 -0.534,-0.247 -0.534,-0.551 0,-0.303 0.24,-0.551 0.534,-0.551 0.295,0 0.536,0.248 0.536,0.551 C 0.536,-0.247 0.295,0 0,0 m 0,-1.923 c -0.746,0 -1.353,0.615 -1.353,1.372 0,0.756 0.607,1.371 1.353,1.371 0.747,0 1.355,-0.615 1.355,-1.371 0,-0.757 -0.608,-1.372 -1.355,-1.372"
             id="path12051"
             style="fill:#ffffff;fill-opacity:1;fill-rule:nonzero;stroke:none" />
        </g>
        <g
           transform="translate(47.7161,47.8793)"
           id="g12053">
          <path
             d="m 0,0 c -0.204,0 -0.371,-0.174 -0.371,-0.387 0,-0.214 0.167,-0.388 0.371,-0.388 0.205,0 0.372,0.174 0.372,0.388 C 0.372,-0.174 0.205,0 0,0 m 0,-1.102 c -0.385,0 -0.698,0.32 -0.698,0.715 0,0.393 0.313,0.714 0.698,0.714 0.385,0 0.699,-0.321 0.699,-0.714 C 0.699,-0.782 0.385,-1.102 0,-1.102 M 0,0.82 c -0.656,0 -1.189,-0.542 -1.189,-1.207 0,-0.667 0.533,-1.209 1.189,-1.209 0.657,0 1.192,0.542 1.192,1.209 C 1.192,0.278 0.657,0.82 0,0.82 m 0,-2.743 c -0.836,0 -1.516,0.689 -1.516,1.536 0,0.846 0.68,1.534 1.516,1.534 0.838,0 1.519,-0.688 1.519,-1.534 0,-0.847 -0.681,-1.536 -1.519,-1.536"
             id="path12055"
             style="fill:#ffffff;fill-opacity:1;fill-rule:nonzero;stroke:none" />
        </g>
        <g
           transform="translate(42.3323,48.056)"
           id="g12057">
          <path
             d="m 0,0 c -0.296,0 -0.536,-0.245 -0.536,-0.551 0,-0.303 0.24,-0.552 0.536,-0.552 0.294,0 0.534,0.249 0.534,0.552 C 0.534,-0.245 0.294,0 0,0 m 0,-1.922 c -0.747,0 -1.355,0.614 -1.355,1.371 0,0.758 0.608,1.372 1.355,1.372 0.747,0 1.353,-0.614 1.353,-1.372 0,-0.757 -0.606,-1.371 -1.353,-1.371"
             id="path12059"
             style="fill:#ffffff;fill-opacity:1;fill-rule:nonzero;stroke:none" />
        </g>
        <g
           transform="translate(42.3322,47.8925)"
           id="g12061">
          <path
             d="m 0,0 c -0.205,0 -0.372,-0.174 -0.372,-0.388 0,-0.213 0.167,-0.388 0.372,-0.388 0.204,0 0.371,0.175 0.371,0.388 C 0.371,-0.174 0.204,0 0,0 m 0,-1.103 c -0.385,0 -0.699,0.321 -0.699,0.715 0,0.394 0.314,0.715 0.699,0.715 0.385,0 0.698,-0.321 0.698,-0.715 0,-0.394 -0.313,-0.715 -0.698,-0.715 m 0,1.924 c -0.657,0 -1.192,-0.542 -1.192,-1.209 0,-0.666 0.535,-1.207 1.192,-1.207 0.656,0 1.19,0.541 1.19,1.207 0,0.667 -0.534,1.209 -1.19,1.209 m 0,-2.743 c -0.838,0 -1.519,0.688 -1.519,1.534 0,0.847 0.681,1.536 1.519,1.536 0.836,0 1.517,-0.689 1.517,-1.536 0,-0.846 -0.681,-1.534 -1.517,-1.534"
             id="path12063"
             style="fill:#ffffff;fill-opacity:1;fill-rule:nonzero;stroke:none" />
        </g>
        <g
           transform="translate(38.1407,51.1105)"
           id="g12065">
          <path
             d="M 0,0 -0.695,0.437 1.014,3.171 1.708,2.737 0,0 z"
             id="path12067"
             style="fill:#ffffff;fill-opacity:1;fill-rule:nonzero;stroke:none" />
        </g>
        <g
           transform="translate(37.6706,51.5987)"
           id="g12069">
          <path
             d="M 0,0 0.418,-0.263 1.953,2.196 1.535,2.458 0,0 z M 0.522,-0.714 -0.45,-0.104 1.432,2.909 2.404,2.301 0.522,-0.714 z"
             id="path12071"
             style="fill:#ffffff;fill-opacity:1;fill-rule:nonzero;stroke:none" />
        </g>
        <g
           transform="translate(51.6087,51.1105)"
           id="g12073">
          <path
             d="M 0,0 0.695,0.437 -1.013,3.171 -1.708,2.737 0,0 z"
             id="path12075"
             style="fill:#ffffff;fill-opacity:1;fill-rule:nonzero;stroke:none" />
        </g>
        <g
           transform="translate(50.1263,53.7952)"
           id="g12077">
          <path
             d="M 0,0 1.534,-2.459 1.952,-2.196 0.417,0.261 0,0 z M 1.43,-2.911 -0.451,0.104 0.521,0.712 2.402,-2.3 1.43,-2.911 z"
             id="path12079"
             style="fill:#ffffff;fill-opacity:1;fill-rule:nonzero;stroke:none" />
        </g>
        <g
           transform="translate(31.4916,62.0169)"
           id="g12081">
          <path
             d="M 0,0 -3.675,-4.348 -4.511,-3.641 -5.6,2.166 -7.846,-0.489 -8.674,0.214 -5.186,4.34 -4.398,3.675 -3.345,-2.276 -0.829,0.699 0,0 z"
             id="path12083"
             style="fill:#ffffff;fill-opacity:1;fill-rule:nonzero;stroke:none" />
        </g>
        <g
           transform="translate(33.0614,63.1127)"
           id="g12085">
          <path
             d="M 0,0 -3.53,5.767 0.985,8.531 1.552,7.604 -1.659,5.64 -0.817,4.264 1.514,5.694 2.082,4.767 -0.251,3.34 0.737,1.724 4.052,3.753 4.62,2.826 0,0 z"
             id="path12087"
             style="fill:#ffffff;fill-opacity:1;fill-rule:nonzero;stroke:none" />
        </g>
        <g
           transform="translate(39.2354,66.4001)"
           id="g12089">
          <path
             d="M 0,0 -0.995,6.689 0.582,6.924 4.371,2.827 4.391,2.833 3.714,7.389 5.138,7.603 6.135,0.911 4.677,0.694 0.738,4.976 0.714,4.975 1.424,0.211 0,0 z"
             id="path12091"
             style="fill:#ffffff;fill-opacity:1;fill-rule:nonzero;stroke:none" />
        </g>
        <g
           transform="translate(51.9991,71.0158)"
           id="g12093">
          <path
             d="m 0,0 c -0.096,0.566 -0.471,1.029 -1.168,1.205 -0.644,0.164 -1.161,0.062 -1.29,-0.446 -0.284,-1.125 3.768,-1.902 3.23,-4.024 -0.34,-1.345 -1.509,-1.767 -3.227,-1.33 -1.266,0.321 -2.306,1.22 -2.504,2.285 l 1.337,0.145 c 0.2,-0.708 0.559,-1.232 1.427,-1.453 0.741,-0.188 1.37,-0.096 1.53,0.541 0.326,1.29 -3.731,2.046 -3.22,4.061 0.295,1.173 1.623,1.542 2.964,1.202 C 0.325,1.87 1.224,1.083 1.443,0.013 L 0,0 z"
             id="path12095"
             style="fill:#ffffff;fill-opacity:1;fill-rule:nonzero;stroke:none" />
        </g>
        <g
           transform="translate(54.0731,65.1571)"
           id="g12097">
          <path
             d="M 0,0 3.603,5.725 4.896,4.908 1.292,-0.814 0,0 z"
             id="path12099"
             style="fill:#ffffff;fill-opacity:1;fill-rule:nonzero;stroke:none" />
        </g>
        <g
           transform="translate(57.72,62.6105)"
           id="g12101">
          <path
             d="M 0,0 5.079,4.464 8.573,0.487 7.757,-0.229 5.272,2.598 4.062,1.535 5.868,-0.52 5.051,-1.237 3.243,0.818 1.824,-0.431 4.389,-3.352 3.574,-4.068 0,0 z"
             id="path12103"
             style="fill:#ffffff;fill-opacity:1;fill-rule:nonzero;stroke:none" />
        </g>
        <g
           transform="translate(33.5333,26.9572)"
           id="g12105">
          <path
             d="M 0,0 C 0.78,-0.353 1.48,-0.529 1.777,0.13 1.957,0.527 1.751,0.937 1.309,1.135 0.861,1.338 0.441,1.21 0.045,1.04 l -0.362,0.884 c 0.769,0.334 1.426,0.297 1.97,0.052 0.971,-0.438 1.53,-1.28 1.11,-2.215 -0.251,-0.551 -0.731,-0.834 -1.342,-0.834 0.54,-0.493 0.656,-1.154 0.347,-1.845 -0.522,-1.158 -1.691,-1.24 -2.634,-0.814 -0.751,0.337 -1.343,1.046 -1.393,1.918 l 0.969,0.107 c 0.054,-0.568 0.297,-0.971 0.804,-1.2 0.473,-0.212 1.055,-0.116 1.296,0.421 0.408,0.905 -0.541,1.37 -1.182,1.658 L 0,0 z"
             id="path12107"
             style="fill:#ffffff;fill-opacity:1;fill-rule:nonzero;stroke:none" />
        </g>
        <g
           transform="translate(39.149,22.0808)"
           id="g12109">
          <path
             d="M 0,0 C 0.627,-0.125 1.163,0.334 1.485,1.958 1.808,3.584 1.489,4.214 0.863,4.337 0.236,4.462 -0.301,4.004 -0.624,2.378 -0.946,0.755 -0.627,0.127 0,0 M 1.039,5.228 C 2.554,4.927 2.857,3.461 2.517,1.753 2.176,0.046 1.338,-1.192 -0.177,-0.89 c -1.514,0.301 -1.817,1.766 -1.478,3.474 0.341,1.706 1.179,2.945 2.694,2.644"
             id="path12111"
             style="fill:#ffffff;fill-opacity:1;fill-rule:nonzero;stroke:none" />
        </g>
        <g
           transform="translate(43.7906,20.6034)"
           id="g12113">
          <path
             d="M 0,0 -0.376,6.059 1.19,6.157 2.574,1.995 2.588,1.999 3.456,6.298 5.036,6.397 5.414,0.336 4.446,0.276 4.148,5.043 4.133,5.043 3.121,0.194 2.276,0.141 0.688,4.827 0.673,4.826 0.968,0.062 0,0 z"
             id="path12115"
             style="fill:#ffffff;fill-opacity:1;fill-rule:nonzero;stroke:none" />
        </g>
        <g
           transform="translate(52.2252,21.6094)"
           id="g12117">
          <path
             d="M 0,0 -1.973,5.741 -0.918,6.102 -0.132,3.813 1.994,4.542 1.208,6.833 2.264,7.195 4.235,1.454 3.178,1.092 2.332,3.557 0.207,2.826 1.053,0.361 0,0 z"
             id="path12119"
             style="fill:#ffffff;fill-opacity:1;fill-rule:nonzero;stroke:none" />
        </g>
        <g
           transform="translate(56.3935,27.9103)"
           id="g12121">
          <path
             d="M 0,0 2.678,1.582 3.055,0.946 2.737,-2.485 4.489,-1.449 4.916,-2.175 2.078,-3.851 1.701,-3.213 2.027,0.223 0.426,-0.723 0,0 z"
             id="path12123"
             style="fill:#ffffff;fill-opacity:1;fill-rule:nonzero;stroke:none" />
        </g>
        <g
           transform="translate(42.5479,37.7476)"
           id="g12125">
          <path
             d="m 0,0 c 0.065,-0.428 -0.014,-0.652 -0.372,-0.708 -0.357,-0.053 -0.857,0.082 -0.923,0.51 -0.065,0.426 0.172,0.814 0.53,0.87 C -0.407,0.727 -0.065,0.425 0,0"
             id="path12127"
             style="fill:#ffffff;fill-opacity:1;fill-rule:nonzero;stroke:none" />
        </g>
        <g
           transform="translate(42.0231,36.618)"
           id="g12129">
          <path
             d="M 0,0 C -0.622,0 -1.096,0.349 -1.175,0.867 -1.273,1.518 -0.882,2.118 -0.304,2.208 0.288,2.291 0.833,1.83 0.929,1.19 1.059,0.331 0.615,0.077 0.216,0.015 0.147,0.005 0.074,0 0,0"
             id="path12131"
             style="fill:#ffffff;fill-opacity:1;fill-rule:nonzero;stroke:none" />
        </g>
      </g>
    </g>
    <g
       transform="matrix(0.9,0,0,-0.9,51.84385,1060.8514)"
       id="g12133">
      <g
         clip-path="url(#clipPath11342)"
         id="g12135">
        <g
           transform="translate(74.7816,46.2976)"
           id="g12137">
          <path
             d="m 0,0 c 0,-16.37 -13.271,-29.641 -29.641,-29.641 -16.37,0 -29.641,13.271 -29.641,29.641 0,16.37 13.271,29.64 29.641,29.64 C -13.271,29.64 0,16.37 0,0"
             id="path12139"
             style="fill:#231f20;fill-opacity:1;fill-rule:nonzero;stroke:none" />
        </g>
        <g
           transform="translate(45.1745,75.2029)"
           id="g12141">
          <path
             d="m 0,0 c -16.011,0 -29.035,-12.878 -29.035,-28.708 0,-15.828 13.024,-28.707 29.035,-28.707 16.008,0 29.032,12.879 29.032,28.707 C 29.032,-12.878 16.008,0 0,0 m 0,-59.057 c -16.914,0 -30.674,13.616 -30.674,30.349 0,16.734 13.76,30.347 30.674,30.347 16.91,0 30.672,-13.613 30.672,-30.347 C 30.672,-45.441 16.91,-59.057 0,-59.057"
             id="path12143"
             style="fill:#ffffff;fill-opacity:1;fill-rule:nonzero;stroke:none" />
        </g>
        <g
           transform="translate(44.8026,65.0196)"
           id="g12145">
          <path
             d="m 0,0 c -9.683,0 -17.562,-7.878 -17.562,-17.561 0,-9.682 7.879,-17.56 17.562,-17.56 9.683,0 17.562,7.878 17.562,17.56 C 17.562,-7.878 9.683,0 0,0 m 0,-35.941 c -10.136,0 -18.381,8.246 -18.381,18.38 0,10.135 8.245,18.38 18.381,18.38 10.136,0 18.379,-8.245 18.379,-18.38 0,-10.134 -8.243,-18.38 -18.379,-18.38"
             id="path12147"
             style="fill:#ffffff;fill-opacity:1;fill-rule:nonzero;stroke:none" />
        </g>
        <g
           transform="translate(48.244,37.582)"
           id="g12149">
          <path
             d="m 0,0 c 0,-0.431 -0.111,-0.642 -0.472,-0.642 -0.363,0 -0.837,0.211 -0.837,0.642 0,0.431 0.293,0.782 0.655,0.782 C -0.292,0.782 0,0.431 0,0"
             id="path12151"
             style="fill:#ffffff;fill-opacity:1;fill-rule:nonzero;stroke:none" />
        </g>
        <g
           transform="translate(47.7718,36.5312)"
           id="g12153">
          <path
             d="m 0,0 c -0.613,0 -1.246,0.393 -1.246,1.051 0,0.655 0.477,1.192 1.065,1.192 0.586,0 1.063,-0.537 1.063,-1.192 C 0.882,0.182 0.402,0 0,0"
             id="path12155"
             style="fill:#ffffff;fill-opacity:1;fill-rule:nonzero;stroke:none" />
        </g>
        <g
           transform="translate(38.3206,52.0117)"
           id="g12157">
          <path
             d="m 0,0 -1.175,-10.325 c -0.012,-0.063 -0.603,-3.265 0.187,-4.763 0.529,-1.007 1.381,-1.63 2.401,-1.756 0.051,0 0.375,-0.003 0.88,-0.003 1.519,0 4.63,0.015 7.248,0.029 l 0,0.002 0.333,0.018 0.807,0 c 0.502,0 0.822,0 0.889,0.006 0.682,0.086 1.661,0.463 2.323,1.749 0.777,1.506 0.195,4.706 0.19,4.74 l -1.159,10.361 0.674,-0.336 c 0.025,-0.013 2.542,-1.255 4.872,-1.255 1.931,0 3.119,0.812 3.631,2.486 0.087,0.286 0.119,0.466 0.125,0.574 l -0.272,0.022 0,0.004 c -0.283,0.006 -0.73,0.011 -1.427,0.011 -1.032,0 -2.418,-0.01 -4.042,-0.021 C 13.329,1.522 9.276,1.493 5.181,1.518 L 4.856,1.509 4.847,1.518 -0.68,1.482 C -5.175,1.455 -8.642,1.431 -9.501,1.446 c 0.014,-0.109 0.046,-0.281 0.128,-0.539 0.522,-1.675 1.74,-2.488 3.717,-2.488 2.386,0 4.96,1.241 4.984,1.253 L 0,0 z m 2.293,-17.668 c -0.907,0 -0.944,0.005 -0.982,0.011 -1.291,0.158 -2.368,0.935 -3.026,2.186 -0.922,1.755 -0.299,5.127 -0.271,5.269 l 1.007,8.845 c -0.968,-0.395 -2.841,-1.045 -4.677,-1.045 -2.317,0 -3.873,1.059 -4.5,3.064 -0.212,0.681 -0.226,1.105 -0.044,1.376 0.092,0.137 0.237,0.225 0.385,0.239 l 0.103,0.008 0.031,-0.014 C -9.147,2.25 -5.48,2.273 -0.685,2.303 L 5.197,2.344 5.205,2.339 5.45,2.34 5.449,2.337 c 4.002,-0.023 7.945,0.006 11.03,0.026 1.626,0.01 3.014,0.021 4.048,0.021 1.854,0 2.117,-0.011 2.253,-0.148 0.055,-0.037 0.101,-0.087 0.142,-0.144 0.183,-0.27 0.172,-0.696 -0.037,-1.38 -0.616,-2.006 -2.14,-3.065 -4.415,-3.065 -1.789,0 -3.615,0.645 -4.568,1.042 l 0.99,-8.872 c 0.022,-0.114 0.633,-3.484 -0.268,-5.235 -0.646,-1.254 -1.702,-2.031 -2.972,-2.19 -0.04,-0.005 -0.079,-0.01 -0.971,-0.01 l -0.808,-0.019 c -2.684,-0.015 -5.996,-0.031 -7.58,-0.031"
             id="path12159"
             style="fill:#ffffff;fill-opacity:1;fill-rule:nonzero;stroke:none" />
        </g>
        <g
           transform="translate(39.8175,35.3305)"
           id="g12161">
          <path
             d="m 0,0 0.796,-0.002 c 1.511,0 4.597,0.014 7.207,0.029 l 0.365,0.02 0.816,0 c 0.456,0 0.815,0 0.875,0.005 0.648,0.082 1.562,0.437 2.192,1.661 0.705,1.368 0.233,4.295 0.176,4.624 l -1.196,10.682 0.943,-0.469 c 0.026,-0.014 2.511,-1.239 4.799,-1.239 1.85,0 2.987,0.775 3.475,2.37 0.05,0.165 0.079,0.287 0.096,0.378 l -0.156,0.013 c -0.284,0.005 -0.714,0.009 -1.358,0.009 -0.929,0 -2.145,-0.008 -3.562,-0.018 L 14.669,18.058 C 11.56,18.038 7.642,18.012 3.683,18.036 l -0.39,-0.012 -0.01,0.011 -7.194,-0.046 c -3.368,-0.02 -5.937,-0.035 -6.892,-0.028 0.022,-0.098 0.052,-0.206 0.089,-0.324 0.498,-1.597 1.663,-2.374 3.561,-2.374 2.327,0 4.886,1.225 4.911,1.237 L -1.301,16.959 -2.509,6.337 C -2.517,6.293 -3.101,3.112 -2.34,1.669 c 0.502,-0.957 1.31,-1.55 2.276,-1.67 L 0,0 z m 0.796,-0.329 -0.88,0.002 c -1.096,0.135 -1.992,0.789 -2.546,1.844 -0.826,1.566 -0.208,4.837 -0.202,4.87 l 1.139,10.016 -0.404,-0.196 c -0.024,-0.012 -2.61,-1.271 -5.056,-1.271 -2.06,0 -3.327,0.852 -3.874,2.603 -0.068,0.216 -0.113,0.407 -0.134,0.567 l -0.024,0.188 0.19,-0.003 c 0.744,-0.013 3.45,0.003 7.083,0.025 l 7.329,0.047 0.008,-0.007 0.255,0.007 c 3.975,-0.024 7.879,0.002 10.986,0.022 l 0.8,0.006 c 1.418,0.009 2.634,0.018 3.564,0.018 0.698,0 1.147,-0.006 1.43,-0.011 l 0.442,-0.04 -0.009,-0.16 c -0.009,-0.147 -0.053,-0.353 -0.132,-0.612 -0.536,-1.751 -1.775,-2.602 -3.788,-2.602 -2.361,0 -4.924,1.261 -4.948,1.274 L 11.623,16.459 12.749,6.396 C 12.845,5.837 13.28,2.995 12.541,1.563 11.846,0.213 10.826,-0.181 10.093,-0.273 10.016,-0.28 9.759,-0.28 9.184,-0.28 L 8.045,-0.3 C 5.427,-0.315 2.315,-0.329 0.796,-0.329 M -2.282,15.58 -3.321,6.46 c -0.008,-0.047 -0.653,-3.449 0.254,-5.173 0.633,-1.204 1.663,-1.949 2.901,-2.101 0.035,-0.005 0.132,-0.009 0.962,-0.009 1.584,0 4.896,0.016 7.579,0.03 l 0.805,0.02 c 0.88,0 0.925,0.005 0.955,0.008 1.215,0.152 2.226,0.899 2.846,2.103 0.884,1.716 0.26,5.096 0.253,5.129 l -1.023,9.16 0.257,-0.106 c 0.924,-0.385 2.737,-1.03 4.505,-1.03 2.194,0 3.666,1.021 4.259,2.95 0.19,0.624 0.208,1.018 0.058,1.241 -0.033,0.043 -0.065,0.077 -0.1,0.101 -0.113,0.109 -0.535,0.119 -2.16,0.119 -0.751,0 -1.689,-0.006 -2.77,-0.013 L 14.538,18.878 C 11.523,18.858 7.763,18.834 3.951,18.855 l -0.28,0.002 -0.009,0 -0.008,0.004 -6.366,-0.043 c -4.542,-0.029 -7.958,-0.049 -8.472,-0.029 l -0.055,0.011 -0.06,-0.005 c -0.1,-0.01 -0.199,-0.072 -0.263,-0.167 -0.149,-0.223 -0.128,-0.616 0.065,-1.237 0.603,-1.929 2.105,-2.948 4.344,-2.948 1.816,0 3.671,0.647 4.615,1.033 l 0.256,0.104 z M 0.796,-1.15 c -0.923,0 -0.956,0.005 -1.006,0.012 -1.343,0.164 -2.462,0.972 -3.146,2.272 -0.96,1.826 -0.316,5.232 -0.288,5.376 l 0.975,8.561 c -1.022,-0.397 -2.765,-0.955 -4.484,-0.955 -2.396,0 -4.006,1.099 -4.657,3.178 -0.228,0.732 -0.235,1.2 -0.023,1.516 0.118,0.176 0.307,0.292 0.505,0.311 l 0.149,0.012 0.039,-0.018 c 0.11,-0.005 0.471,-0.007 1.015,-0.007 1.434,0 4.13,0.016 7.411,0.037 l 6.46,0.044 0.008,-0.005 0.482,0.002 -0.003,-0.005 c 3.715,-0.02 7.363,0.005 10.303,0.024 l 1.722,0.011 c 1.081,0.007 2.02,0.013 2.772,0.013 1.927,0 2.181,-0.008 2.369,-0.196 0.041,-0.025 0.1,-0.084 0.158,-0.163 0.217,-0.32 0.212,-0.789 -0.013,-1.524 -0.638,-2.082 -2.219,-3.181 -4.571,-3.181 -1.672,0 -3.374,0.554 -4.375,0.95 l 0.96,-8.599 C 13.562,6.493 14.207,3.004 13.272,1.189 12.601,-0.115 11.501,-0.924 10.175,-1.089 10.124,-1.095 10.079,-1.1 9.184,-1.1 L 8.379,-1.119 C 5.693,-1.134 2.38,-1.15 0.796,-1.15"
             id="path12163"
             style="fill:#ffffff;fill-opacity:1;fill-rule:nonzero;stroke:none" />
        </g>
        <g
           transform="translate(48.6456,53.8971)"
           id="g12165">
          <path
             d="M 0,0 -0.727,0.382 1.399,4.423 2.124,4.04 0,0 z"
             id="path12167"
             style="fill:#ffffff;fill-opacity:1;fill-rule:nonzero;stroke:none" />
        </g>
        <g
           transform="translate(48.1394,54.348)"
           id="g12169">
          <path
             d="M 0,0 0.437,-0.23 2.409,3.521 1.973,3.751 0,0 z m 0.575,-0.672 -1.017,0.535 2.278,4.33 1.015,-0.535 -2.276,-4.33 z"
             id="path12171"
             style="fill:#ffffff;fill-opacity:1;fill-rule:nonzero;stroke:none" />
        </g>
        <g
           transform="translate(41.8161,53.8975)"
           id="g12173">
          <path
             d="M 0,0 -2.127,4.042 -1.401,4.422 0.726,0.379 0,0 z"
             id="path12175"
             style="fill:#ffffff;fill-opacity:1;fill-rule:nonzero;stroke:none" />
        </g>
        <g
           transform="translate(39.9103,57.8705)"
           id="g12177">
          <path
             d="M 0,0 1.974,-3.752 2.411,-3.525 0.436,0.229 0,0 z m 1.837,-4.193 -2.279,4.33 1.015,0.533 2.28,-4.333 -1.016,-0.53 z"
             id="path12179"
             style="fill:#ffffff;fill-opacity:1;fill-rule:nonzero;stroke:none" />
        </g>
        <g
           transform="translate(52.8112,40.0797)"
           id="g12181">
          <path
             d="m 0,0 -15.949,0.023 10e-4,0.82 L 0.001,0.819 0,0 z"
             id="path12183"
             style="fill:#ffffff;fill-opacity:1;fill-rule:nonzero;stroke:none" />
        </g>
        <g
           transform="translate(37.0256,40.2659)"
           id="g12185">
          <path
             d="M 0,0 15.622,-0.023 15.623,0.47 0.001,0.493 0,0 z M 15.949,-0.35 -0.328,-0.327 -0.326,0.82 15.95,0.796 15.949,-0.35 z"
             id="path12187"
             style="fill:#ffffff;fill-opacity:1;fill-rule:nonzero;stroke:none" />
        </g>
        <g
           transform="translate(47.7162,48.0429)"
           id="g12189">
          <path
             d="m 0,0 c -0.294,0 -0.534,-0.247 -0.534,-0.551 0,-0.303 0.24,-0.551 0.534,-0.551 0.295,0 0.536,0.248 0.536,0.551 C 0.536,-0.247 0.295,0 0,0 m 0,-1.923 c -0.746,0 -1.353,0.615 -1.353,1.372 0,0.756 0.607,1.371 1.353,1.371 0.747,0 1.355,-0.615 1.355,-1.371 0,-0.757 -0.608,-1.372 -1.355,-1.372"
             id="path12191"
             style="fill:#ffffff;fill-opacity:1;fill-rule:nonzero;stroke:none" />
        </g>
        <g
           transform="translate(47.7161,47.8793)"
           id="g12193">
          <path
             d="m 0,0 c -0.204,0 -0.371,-0.174 -0.371,-0.387 0,-0.214 0.167,-0.388 0.371,-0.388 0.205,0 0.372,0.174 0.372,0.388 C 0.372,-0.174 0.205,0 0,0 m 0,-1.102 c -0.385,0 -0.698,0.32 -0.698,0.715 0,0.393 0.313,0.714 0.698,0.714 0.385,0 0.699,-0.321 0.699,-0.714 C 0.699,-0.782 0.385,-1.102 0,-1.102 M 0,0.82 c -0.656,0 -1.189,-0.542 -1.189,-1.207 0,-0.667 0.533,-1.209 1.189,-1.209 0.657,0 1.192,0.542 1.192,1.209 C 1.192,0.278 0.657,0.82 0,0.82 m 0,-2.743 c -0.836,0 -1.516,0.689 -1.516,1.536 0,0.846 0.68,1.534 1.516,1.534 0.838,0 1.519,-0.688 1.519,-1.534 0,-0.847 -0.681,-1.536 -1.519,-1.536"
             id="path12195"
             style="fill:#ffffff;fill-opacity:1;fill-rule:nonzero;stroke:none" />
        </g>
        <g
           transform="translate(42.3323,48.056)"
           id="g12197">
          <path
             d="m 0,0 c -0.296,0 -0.536,-0.245 -0.536,-0.551 0,-0.303 0.24,-0.552 0.536,-0.552 0.294,0 0.534,0.249 0.534,0.552 C 0.534,-0.245 0.294,0 0,0 m 0,-1.922 c -0.747,0 -1.355,0.614 -1.355,1.371 0,0.758 0.608,1.372 1.355,1.372 0.747,0 1.353,-0.614 1.353,-1.372 0,-0.757 -0.606,-1.371 -1.353,-1.371"
             id="path12199"
             style="fill:#ffffff;fill-opacity:1;fill-rule:nonzero;stroke:none" />
        </g>
        <g
           transform="translate(42.3322,47.8925)"
           id="g12201">
          <path
             d="m 0,0 c -0.205,0 -0.372,-0.174 -0.372,-0.388 0,-0.213 0.167,-0.388 0.372,-0.388 0.204,0 0.371,0.175 0.371,0.388 C 0.371,-0.174 0.204,0 0,0 m 0,-1.103 c -0.385,0 -0.699,0.321 -0.699,0.715 0,0.394 0.314,0.715 0.699,0.715 0.385,0 0.698,-0.321 0.698,-0.715 0,-0.394 -0.313,-0.715 -0.698,-0.715 m 0,1.924 c -0.657,0 -1.192,-0.542 -1.192,-1.209 0,-0.666 0.535,-1.207 1.192,-1.207 0.656,0 1.19,0.541 1.19,1.207 0,0.667 -0.534,1.209 -1.19,1.209 m 0,-2.743 c -0.838,0 -1.519,0.688 -1.519,1.534 0,0.847 0.681,1.536 1.519,1.536 0.836,0 1.517,-0.689 1.517,-1.536 0,-0.846 -0.681,-1.534 -1.517,-1.534"
             id="path12203"
             style="fill:#ffffff;fill-opacity:1;fill-rule:nonzero;stroke:none" />
        </g>
        <g
           transform="translate(38.1407,51.1105)"
           id="g12205">
          <path
             d="M 0,0 -0.695,0.437 1.014,3.171 1.708,2.737 0,0 z"
             id="path12207"
             style="fill:#ffffff;fill-opacity:1;fill-rule:nonzero;stroke:none" />
        </g>
        <g
           transform="translate(37.6706,51.5987)"
           id="g12209">
          <path
             d="M 0,0 0.418,-0.263 1.953,2.196 1.535,2.458 0,0 z M 0.522,-0.714 -0.45,-0.104 1.432,2.909 2.404,2.301 0.522,-0.714 z"
             id="path12211"
             style="fill:#ffffff;fill-opacity:1;fill-rule:nonzero;stroke:none" />
        </g>
        <g
           transform="translate(51.6087,51.1105)"
           id="g12213">
          <path
             d="M 0,0 0.695,0.437 -1.013,3.171 -1.708,2.737 0,0 z"
             id="path12215"
             style="fill:#ffffff;fill-opacity:1;fill-rule:nonzero;stroke:none" />
        </g>
        <g
           transform="translate(50.1263,53.7952)"
           id="g12217">
          <path
             d="M 0,0 1.534,-2.459 1.952,-2.196 0.417,0.261 0,0 z M 1.43,-2.911 -0.451,0.104 0.521,0.712 2.402,-2.3 1.43,-2.911 z"
             id="path12219"
             style="fill:#ffffff;fill-opacity:1;fill-rule:nonzero;stroke:none" />
        </g>
        <g
           transform="translate(31.4916,62.0169)"
           id="g12221">
          <path
             d="M 0,0 -3.675,-4.348 -4.511,-3.641 -5.6,2.166 -7.846,-0.489 -8.674,0.214 -5.186,4.34 -4.398,3.675 -3.345,-2.276 -0.829,0.699 0,0 z"
             id="path12223"
             style="fill:#ffffff;fill-opacity:1;fill-rule:nonzero;stroke:none" />
        </g>
        <g
           transform="translate(33.0614,63.1127)"
           id="g12225">
          <path
             d="M 0,0 -3.53,5.767 0.985,8.531 1.552,7.604 -1.659,5.64 -0.817,4.264 1.514,5.694 2.082,4.767 -0.251,3.34 0.737,1.724 4.052,3.753 4.62,2.826 0,0 z"
             id="path12227"
             style="fill:#ffffff;fill-opacity:1;fill-rule:nonzero;stroke:none" />
        </g>
        <g
           transform="translate(39.2354,66.4001)"
           id="g12229">
          <path
             d="M 0,0 -0.995,6.689 0.582,6.924 4.371,2.827 4.391,2.833 3.714,7.389 5.138,7.603 6.135,0.911 4.677,0.694 0.738,4.976 0.714,4.975 1.424,0.211 0,0 z"
             id="path12231"
             style="fill:#ffffff;fill-opacity:1;fill-rule:nonzero;stroke:none" />
        </g>
        <g
           transform="translate(51.9991,71.0158)"
           id="g12233">
          <path
             d="m 0,0 c -0.096,0.566 -0.471,1.029 -1.168,1.205 -0.644,0.164 -1.161,0.062 -1.29,-0.446 -0.284,-1.125 3.768,-1.902 3.23,-4.024 -0.34,-1.345 -1.509,-1.767 -3.227,-1.33 -1.266,0.321 -2.306,1.22 -2.504,2.285 l 1.337,0.145 c 0.2,-0.708 0.559,-1.232 1.427,-1.453 0.741,-0.188 1.37,-0.096 1.53,0.541 0.326,1.29 -3.731,2.046 -3.22,4.061 0.295,1.173 1.623,1.542 2.964,1.202 C 0.325,1.87 1.224,1.083 1.443,0.013 L 0,0 z"
             id="path12235"
             style="fill:#ffffff;fill-opacity:1;fill-rule:nonzero;stroke:none" />
        </g>
        <g
           transform="translate(54.0731,65.1571)"
           id="g12237">
          <path
             d="M 0,0 3.603,5.725 4.896,4.908 1.292,-0.814 0,0 z"
             id="path12239"
             style="fill:#ffffff;fill-opacity:1;fill-rule:nonzero;stroke:none" />
        </g>
        <g
           transform="translate(57.72,62.6105)"
           id="g12241">
          <path
             d="M 0,0 5.079,4.464 8.573,0.487 7.757,-0.229 5.272,2.598 4.062,1.535 5.868,-0.52 5.051,-1.237 3.243,0.818 1.824,-0.431 4.389,-3.352 3.574,-4.068 0,0 z"
             id="path12243"
             style="fill:#ffffff;fill-opacity:1;fill-rule:nonzero;stroke:none" />
        </g>
        <g
           transform="translate(33.5333,26.9572)"
           id="g12245">
          <path
             d="M 0,0 C 0.78,-0.353 1.48,-0.529 1.777,0.13 1.957,0.527 1.751,0.937 1.309,1.135 0.861,1.338 0.441,1.21 0.045,1.04 l -0.362,0.884 c 0.769,0.334 1.426,0.297 1.97,0.052 0.971,-0.438 1.53,-1.28 1.11,-2.215 -0.251,-0.551 -0.731,-0.834 -1.342,-0.834 0.54,-0.493 0.656,-1.154 0.347,-1.845 -0.522,-1.158 -1.691,-1.24 -2.634,-0.814 -0.751,0.337 -1.343,1.046 -1.393,1.918 l 0.969,0.107 c 0.054,-0.568 0.297,-0.971 0.804,-1.2 0.473,-0.212 1.055,-0.116 1.296,0.421 0.408,0.905 -0.541,1.37 -1.182,1.658 L 0,0 z"
             id="path12247"
             style="fill:#ffffff;fill-opacity:1;fill-rule:nonzero;stroke:none" />
        </g>
        <g
           transform="translate(39.149,22.0808)"
           id="g12249">
          <path
             d="M 0,0 C 0.627,-0.125 1.163,0.334 1.485,1.958 1.808,3.584 1.489,4.214 0.863,4.337 0.236,4.462 -0.301,4.004 -0.624,2.378 -0.946,0.755 -0.627,0.127 0,0 M 1.039,5.228 C 2.554,4.927 2.857,3.461 2.517,1.753 2.176,0.046 1.338,-1.192 -0.177,-0.89 c -1.514,0.301 -1.817,1.766 -1.478,3.474 0.341,1.706 1.179,2.945 2.694,2.644"
             id="path12251"
             style="fill:#ffffff;fill-opacity:1;fill-rule:nonzero;stroke:none" />
        </g>
        <g
           transform="translate(43.7906,20.6034)"
           id="g12253">
          <path
             d="M 0,0 -0.376,6.059 1.19,6.157 2.574,1.995 2.588,1.999 3.456,6.298 5.036,6.397 5.414,0.336 4.446,0.276 4.148,5.043 4.133,5.043 3.121,0.194 2.276,0.141 0.688,4.827 0.673,4.826 0.968,0.062 0,0 z"
             id="path12255"
             style="fill:#ffffff;fill-opacity:1;fill-rule:nonzero;stroke:none" />
        </g>
        <g
           transform="translate(52.2252,21.6094)"
           id="g12257">
          <path
             d="M 0,0 -1.973,5.741 -0.918,6.102 -0.132,3.813 1.994,4.542 1.208,6.833 2.264,7.195 4.235,1.454 3.178,1.092 2.332,3.557 0.207,2.826 1.053,0.361 0,0 z"
             id="path12259"
             style="fill:#ffffff;fill-opacity:1;fill-rule:nonzero;stroke:none" />
        </g>
        <g
           transform="translate(56.3935,27.9103)"
           id="g12261">
          <path
             d="M 0,0 2.678,1.582 3.055,0.946 2.737,-2.485 4.489,-1.449 4.916,-2.175 2.078,-3.851 1.701,-3.213 2.027,0.223 0.426,-0.723 0,0 z"
             id="path12263"
             style="fill:#ffffff;fill-opacity:1;fill-rule:nonzero;stroke:none" />
        </g>
        <g
           transform="translate(42.5479,37.7476)"
           id="g12265">
          <path
             d="m 0,0 c 0.065,-0.428 -0.014,-0.652 -0.372,-0.708 -0.357,-0.053 -0.857,0.082 -0.923,0.51 -0.065,0.426 0.172,0.814 0.53,0.87 C -0.407,0.727 -0.065,0.425 0,0"
             id="path12267"
             style="fill:#ffffff;fill-opacity:1;fill-rule:nonzero;stroke:none" />
        </g>
        <g
           transform="translate(42.0231,36.618)"
           id="g12269">
          <path
             d="M 0,0 C -0.622,0 -1.096,0.349 -1.175,0.867 -1.273,1.518 -0.882,2.118 -0.304,2.208 0.288,2.291 0.833,1.83 0.929,1.19 1.059,0.331 0.615,0.077 0.216,0.015 0.147,0.005 0.074,0 0,0"
             id="path12271"
             style="fill:#ffffff;fill-opacity:1;fill-rule:nonzero;stroke:none" />
        </g>
      </g>
    </g>
  </g>
</svg>
