<?xml version="1.0" encoding="utf-8"?>
<!-- Generator: Adobe Illustrator 18.1.1, SVG Export Plug-In . SVG Version: 6.00 Build 0)  -->
<svg version="1.1" id="Layer_1" xmlns="http://www.w3.org/2000/svg" xmlns:xlink="http://www.w3.org/1999/xlink" x="0px" y="0px"
	 viewBox="0 0 185 188" enable-background="new 0 0 185 188" xml:space="preserve">
<g>
	<g>
		<circle fill="#231F20" cx="92.5" cy="31.3" r="28.4"/>
	</g>
	<g>
		<g>
			<g>
				<path fill="#FFFFFF" d="M92.5,60.2c-16.2,0-29.4-13.1-29.4-29.1C63.1,15,76.3,2,92.5,2s29.4,13.1,29.4,29.1
					C121.9,47.2,108.7,60.2,92.5,60.2z M92.5,3.6c-15.4,0-27.9,12.3-27.9,27.5s12.5,27.5,27.9,27.5s27.9-12.4,27.9-27.5
					C120.4,15.9,107.9,3.6,92.5,3.6z"/>
			</g>
		</g>
		<g>
			<g>
				<path fill="#FFFFFF" d="M92.1,47.8c-9.7,0-17.6-7.9-17.6-17.6s7.9-17.6,17.6-17.6s17.6,7.9,17.6,17.6
					C109.8,39.9,101.9,47.8,92.1,47.8z M92.1,13.3c-9.3,0-16.9,7.6-16.9,16.9s7.6,16.9,16.9,16.9S109,39.5,109,30.2
					S101.4,13.3,92.1,13.3z"/>
			</g>
		</g>
		<g>
			<g>
				<path fill="#FFFFFF" d="M95.4,39.7c0,0.4-0.1,0.6-0.5,0.6c-0.3,0-0.8-0.2-0.8-0.6c0-0.4,0.3-0.8,0.6-0.8
					C95.2,38.9,95.4,39.2,95.4,39.7"/>
			</g>
		</g>
		<g>
			<g>
				<path fill="#FFFFFF" d="M95,40.7c-0.6,0-1.2-0.4-1.2-1s0.5-1.1,1-1.1c0.6,0,1,0.5,1,1.1C95.8,40.5,95.4,40.7,95,40.7z"/>
			</g>
		</g>
		<g>
			<g>
				<g>
					<path fill="#FFFFFF" d="M88.1,42.8c-0.9,0-0.9,0-0.9,0c-1.2-0.2-2.3-0.9-2.9-2.1C83.4,39,84,35.8,84,35.6l1-8.5
						c-0.9,0.4-2.7,1-4.5,1c-2.2,0-3.7-1-4.3-2.9c-0.2-0.7-0.2-1.1,0-1.3c0.1-0.1,0.2-0.2,0.4-0.2h0.1l0,0c0.5,0,4,0,8.6,0h5.6l0,0
						h0.2l0,0c3.8,0,7.6,0,10.6,0c1.6,0,2.9,0,3.9,0c1.8,0,2,0,2.2,0.1c0.1,0,0.1,0.1,0.1,0.1c0.2,0.3,0.2,0.7,0,1.3
						c-0.6,1.9-2.1,2.9-4.2,2.9l0,0c-1.7,0-3.5-0.6-4.4-1l1,8.5c0,0.1,0.6,3.3-0.3,5c-0.6,1.2-1.6,1.9-2.9,2.1c0,0-0.1,0-0.9,0h-0.8
						C92.8,42.7,89.6,42.8,88.1,42.8z M85.9,25.8l-1.1,9.9c0,0.1-0.6,3.1,0.2,4.6c0.5,1,1.3,1.6,2.3,1.7c0,0,0.4,0,0.8,0
						c1.5,0,4.4,0,7,0l0,0h0.3h0.8c0.5,0,0.8,0,0.9,0c0.7-0.1,1.6-0.4,2.2-1.7c0.7-1.4,0.2-4.5,0.2-4.5l-1.1-9.9l0.6,0.2
						c0,0,2.4,1.2,4.7,1.2c1.9,0,3-0.8,3.5-2.4c0.1-0.3,0.1-0.4,0.1-0.6H107l0,0c-0.3,0-0.7,0-1.4,0c-1,0-2.3,0-3.9,0
						c-3,0-6.9,0-10.8,0h-0.3l0,0h-5.3c-4.3,0-7.6,0-8.5,0c0,0.1,0,0.3,0.1,0.5c0.5,1.6,1.7,2.4,3.6,2.4c2.3,0,4.8-1.2,4.8-1.2
						L85.9,25.8z"/>
					<path fill="#FFFFFF" d="M88.1,43c-0.9,0-0.9,0-1,0c-1.3-0.2-2.4-0.9-3.1-2.2c-0.9-1.8-0.3-5.2-0.3-5.2l0.9-8.1
						c-1,0.4-2.6,0.9-4.2,0.9c-2.3,0-3.9-1.1-4.5-3.1c-0.2-0.7-0.2-1.2,0-1.5c0.1-0.2,0.3-0.3,0.5-0.3h0.2l0,0c0.6,0,3.8,0,8.1,0
						h6.2l0,0h0.6l0,0c3.5,0,7,0,9.8,0h1.7c1,0,1.9,0,2.6,0c1.9,0,2.1,0,2.3,0.2c0,0,0.1,0.1,0.2,0.2c0.2,0.3,0.2,0.8,0,1.5
						c-0.6,2-2.2,3.1-4.4,3.1c-1.6,0-3.2-0.5-4.1-0.9l0.9,8.2c0,0.1,0.6,3.4-0.3,5.1c-0.7,1.3-1.7,2.1-3,2.2c-0.1,0-0.1,0-1,0h-0.8
						C92.8,43,89.6,43,88.1,43z M85.2,26.8l-1,8.9c0,0-0.6,3.3,0.2,4.9c0.6,1.1,1.6,1.8,2.7,2c0,0,0.2,0,0.9,0c1.5,0,4.7,0,7.3,0
						h0.8c0.8,0,0.9,0,0.9,0c1.1-0.1,2.1-0.8,2.7-2c0.8-1.6,0.2-4.9,0.2-4.9l-1-8.9l0.3,0.1c0.9,0.4,2.6,1,4.3,1c2.1,0,3.5-1,4-2.8
						c0.2-0.6,0.2-0.9,0.1-1.1l-0.1-0.1c-0.1-0.1-0.8-0.1-2-0.1c-0.7,0-1.6,0-2.6,0h-1.7c-2.9,0-6.5,0-10.2,0h-0.3l0,0l0,0h-0.1l0,0
						h-6c-4.4,0-7.6,0-8.1,0h-0.1l0,0c-0.1,0-0.2,0.1-0.2,0.1c-0.1,0.2-0.1,0.6,0.1,1.1c0.6,1.8,2,2.8,4.1,2.8c1.7,0,3.5-0.6,4.4-1
						L85.2,26.8z M88.1,42.2h-0.8c-1.1-0.1-2-0.8-2.5-1.8c-0.8-1.5-0.2-4.7-0.2-4.7l1.1-9.5l-0.3,0.1c0,0-2.5,1.2-4.9,1.2
						c-2,0-3.2-0.8-3.8-2.5c-0.1-0.2-0.1-0.4-0.1-0.6v-0.3h0.3c0.7,0,3.3,0,6.8,0h7.1l0,0H91c3.8,0,7.6,0,10.6,0h0.7
						c1.4,0,2.5,0,3.4,0c0.7,0,1.1,0,1.4,0h0.5v0.2c0,0.1-0.1,0.3-0.1,0.6c-0.5,1.7-1.7,2.5-3.7,2.5c-2.3,0-4.8-1.2-4.8-1.2
						l-0.4-0.1l1.1,9.5c0.1,0.5,0.5,3.3-0.2,4.7s-1.8,1.7-2.4,1.8c-0.1,0-0.4,0-0.9,0h-1.1C92.6,42.2,89.6,42.2,88.1,42.2z
						 M87.4,41.8h0.8c1.4,0,4.4,0,6.9,0h0.3h0.8c0.5,0,0.8,0,0.8,0c0.6-0.1,1.5-0.4,2.1-1.6c0.5-1,0.4-3,0.2-4.4l-1.2-10.4l1,0.5
						c0,0,2.4,1.2,4.6,1.2c1.8,0,2.8-0.7,3.3-2.2c0-0.1,0.1-0.2,0.1-0.3H107c-0.3,0-0.7,0-1.3,0c-0.9,0-2.1,0-3.4,0h-0.7
						c-3,0-6.8,0-10.6,0h-0.4l0,0h-6.9c-3.1,0-5.6,0-6.5,0c0,0.1,0,0.1,0.1,0.2c0.5,1.5,1.6,2.2,3.4,2.2c2.2,0,4.7-1.2,4.7-1.2
						l1-0.5L85,35.7c0,0-0.6,3.1,0.2,4.4C85.6,41.1,86.4,41.6,87.4,41.8L87.4,41.8z"/>
				</g>
			</g>
			<g>
				<g>
					
						<rect x="96.1" y="19.7" transform="matrix(0.8852 0.4653 -0.4653 0.8852 21.2654 -42.3751)" fill="#FFFFFF" width="0.8" height="4.4"/>
					<path fill="#FFFFFF" d="M95.9,24.3l-1.1-0.6l2.2-4.3l1.1,0.6L95.9,24.3z M95.4,23.5l0.3,0.2l1.8-3.5L97.2,20L95.4,23.5z"/>
				</g>
			</g>
			<g>
				<g>
					
						<rect x="86.4" y="21.5" transform="matrix(0.4656 0.885 -0.885 0.4656 66.6768 -66.7159)" fill="#FFFFFF" width="4.4" height="0.8"/>
					<path fill="#FFFFFF" d="M89.2,24.3L87,20l1.1-0.6l2.2,4.3L89.2,24.3z M87.5,20.2l1.8,3.5l0.3-0.2L87.8,20L87.5,20.2z"/>
				</g>
			</g>
			<g>
				<g>
					
						<rect x="84.5" y="36.5" transform="matrix(1 1.437575e-03 -1.437575e-03 1 5.314179e-02 -0.1324)" fill="#FFFFFF" width="15.3" height="0.8"/>
					<path fill="#FFFFFF" d="M100,37.5H84.3v-1.2H100V37.5z M84.7,37h14.9v-0.4H84.7V37z"/>
				</g>
			</g>
			<g>
				<g>
					<path fill="#FFFFFF" d="M94.9,31.5c-0.7,0-1.3-0.6-1.3-1.3c0-0.7,0.6-1.3,1.3-1.3c0.7,0,1.3,0.6,1.3,1.3
						C96.2,30.9,95.7,31.5,94.9,31.5z M94.9,29.6c-0.3,0-0.5,0.2-0.5,0.5s0.2,0.5,0.5,0.5s0.5-0.2,0.5-0.5
						C95.5,29.9,95.2,29.6,94.9,29.6z"/>
					<path fill="#FFFFFF" d="M94.9,31.7c-0.8,0-1.5-0.7-1.5-1.5s0.7-1.5,1.5-1.5s1.5,0.7,1.5,1.5C96.5,31,95.8,31.7,94.9,31.7z
						 M94.9,29c-0.6,0-1.1,0.5-1.1,1.1s0.5,1.1,1.1,1.1s1.1-0.5,1.1-1.1S95.5,29,94.9,29z M94.9,30.9c-0.4,0-0.7-0.3-0.7-0.7
						c0-0.4,0.3-0.7,0.7-0.7c0.4,0,0.7,0.3,0.7,0.7C95.7,30.6,95.3,30.9,94.9,30.9z M94.9,29.8c-0.2,0-0.3,0.1-0.3,0.3
						c0,0.2,0.1,0.3,0.3,0.3c0.2,0,0.3-0.1,0.3-0.3C95.2,30,95.1,29.8,94.9,29.8z"/>
				</g>
			</g>
			<g>
				<g>
					<path fill="#FFFFFF" d="M89.8,31.4c-0.7,0-1.3-0.6-1.3-1.3c0-0.7,0.6-1.3,1.3-1.3s1.3,0.6,1.3,1.3
						C91.1,30.9,90.5,31.4,89.8,31.4z M89.8,29.6c-0.3,0-0.5,0.2-0.5,0.5s0.2,0.5,0.5,0.5s0.5-0.2,0.5-0.5S90.1,29.6,89.8,29.6z"/>
					<path fill="#FFFFFF" d="M89.8,31.7c-0.8,0-1.5-0.7-1.5-1.5s0.7-1.5,1.5-1.5s1.5,0.7,1.5,1.5S90.6,31.7,89.8,31.7z M89.8,29
						c-0.6,0-1.1,0.5-1.1,1.1s0.5,1.1,1.1,1.1s1.1-0.5,1.1-1.1S90.4,29,89.8,29z M89.8,30.9c-0.4,0-0.7-0.3-0.7-0.7
						c0-0.4,0.3-0.7,0.7-0.7c0.4,0,0.7,0.3,0.7,0.7C90.5,30.5,90.2,30.9,89.8,30.9z M89.8,29.8c-0.2,0-0.3,0.1-0.3,0.3
						s0.1,0.3,0.3,0.3c0.2,0,0.3-0.1,0.3-0.3S89.9,29.8,89.8,29.8z"/>
				</g>
			</g>
			<g>
				<g>
					
						<rect x="85.8" y="23.6" transform="matrix(0.8468 0.5319 -0.5319 0.8468 26.5668 -42.0139)" fill="#FFFFFF" width="0.8" height="3.1"/>
					<path fill="#FFFFFF" d="M85.8,27l-1-0.7l1.9-3l1,0.6L85.8,27z M85.4,26.2l0.3,0.2l1.4-2.3l-0.3-0.2L85.4,26.2z"/>
				</g>
			</g>
			<g>
				<g>
					
						<rect x="97.8" y="23.6" transform="matrix(-0.8468 0.5319 -0.5319 -0.8468 194.7184 -5.8002)" fill="#FFFFFF" width="0.8" height="3.1"/>
					<path fill="#FFFFFF" d="M98.6,27l-1.9-3l1-0.6l1.9,3L98.6,27z M97.3,24.1l1.4,2.3l0.3-0.2l-1.4-2.3L97.3,24.1z"/>
				</g>
			</g>
		</g>
		<g>
			<g>
				<path fill="#FFFFFF" d="M79.4,16.2l-3.5,4.2L75,19.7l-1-5.6l-2.2,2.5L71,16l3.3-4l0.8,0.6l1,5.7l2.4-2.9L79.4,16.2z"/>
			</g>
		</g>
		<g>
			<g>
				<path fill="#FFFFFF" d="M80.9,15.2l-3.4-5.5L81.8,7l0.5,0.9l-3.1,1.9l0.8,1.3l2.2-1.4l0.5,0.9L80.5,12l0.9,1.6l3.2-1.9l0.5,0.9
					L80.9,15.2z"/>
			</g>
		</g>
		<g>
			<g>
				<path fill="#FFFFFF" d="M86.8,12l-1-6.4l1.5-0.2L91,9.3l0,0l-0.6-4.4l1.4-0.2l1,6.4l-1.4,0.2l-3.8-4.1l0,0l0.7,4.6L86.8,12z"/>
			</g>
		</g>
		<g>
			<g>
				<path fill="#FFFFFF" d="M99.1,7.6c-0.1-0.5-0.5-1-1.1-1.2s-1.1-0.1-1.2,0.4c-0.3,1.1,3.6,1.8,3.1,3.9c-0.3,1.3-1.4,1.7-3.1,1.3
					c-1.2-0.3-2.2-1.2-2.4-2.2l1.3-0.1c0.2,0.7,0.5,1.2,1.4,1.4c0.7,0.2,1.3,0.1,1.5-0.5c0.3-1.2-3.6-2-3.1-3.9
					c0.3-1.1,1.6-1.5,2.8-1.2c1.2,0.3,2.1,1.1,2.3,2.1L99.1,7.6z"/>
			</g>
		</g>
		<g>
			<g>
				<path fill="#FFFFFF" d="M101,13.2l3.5-5.5l1.2,0.8l-3.5,5.5L101,13.2z"/>
			</g>
		</g>
		<g>
			<g>
				<path fill="#FFFFFF" d="M104.5,15.6l4.9-4.3l3.4,3.8l-0.8,0.7l-2.4-2.7l-1.2,1l1.7,2l-0.8,0.7l-1.7-2l-1.4,1.2l2.5,2.8l-0.8,0.7
					L104.5,15.6z"/>
			</g>
		</g>
		<g>
			<g>
				<path fill="#FFFFFF" d="M81.3,49.8c0.7,0.3,1.4,0.5,1.7-0.1c0.2-0.4,0-0.8-0.4-1c-0.4-0.2-0.8-0.1-1.2,0.1L81,48
					c0.7-0.3,1.4-0.3,1.9-0.1c0.9,0.4,1.5,1.2,1.1,2.1c-0.2,0.5-0.7,0.8-1.3,0.8c0.5,0.5,0.6,1.1,0.3,1.8c-0.5,1.1-1.6,1.2-2.5,0.8
					c-0.7-0.3-1.3-1-1.3-1.8l0.9-0.1c0.1,0.5,0.3,0.9,0.8,1.2c0.5,0.2,1,0.1,1.2-0.4c0.4-0.9-0.5-1.3-1.1-1.6L81.3,49.8z"/>
			</g>
		</g>
		<g>
			<g>
				<path fill="#FFFFFF" d="M87.7,49.5c1.5,0.3,1.7,1.7,1.4,3.3c-0.3,1.6-1.1,2.8-2.6,2.5C85,55,84.8,53.6,85.1,52
					C85.5,50.4,86.3,49.2,87.7,49.5z M86.7,54.5c0.6,0.1,1.1-0.3,1.4-1.9s0-2.2-0.6-2.3s-1.1,0.3-1.4,1.9
					C85.8,53.8,86.1,54.4,86.7,54.5z"/>
			</g>
		</g>
		<g>
			<g>
				<path fill="#FFFFFF" d="M91.2,55.9l-0.4-5.8l1.5-0.1l1.3,4l0,0l0.8-4.1l1.5-0.1l0.4,5.8l-0.9,0.1l-0.2-4.6l0,0l-1,4.7l-0.8,0.1
					l-1.5-4.5l0,0l0.3,4.6L91.2,55.9z"/>
			</g>
		</g>
		<g>
			<g>
				<path fill="#FFFFFF" d="M99.3,55l-1.9-5.5l1-0.3l0.8,2.2l2-0.7l-0.8-2.2l1-0.3l1.9,5.5l-1,0.3l-0.8-2.4l-2,0.7l0.8,2.4L99.3,55z
					"/>
			</g>
		</g>
		<g>
			<g>
				<path fill="#FFFFFF" d="M103.3,48.9l2.6-1.5l0.4,0.6l-0.3,3.3l1.7-1l0.4,0.7l-2.7,1.6L105,52l0.3-3.3l-1.5,0.9L103.3,48.9z"/>
			</g>
		</g>
		<g>
			<g>
				<path fill="#FFFFFF" d="M90,39.5c0.1,0.4,0,0.6-0.4,0.7c-0.3,0.1-0.8-0.1-0.9-0.5s0.2-0.8,0.5-0.8C89.6,38.8,89.9,39.1,90,39.5"
					/>
			</g>
		</g>
		<g>
			<g>
				<path fill="#FFFFFF" d="M89.5,40.6c-0.6,0-1.1-0.3-1.1-0.8c-0.1-0.6,0.3-1.2,0.8-1.3c0.6-0.1,1.1,0.4,1.2,1
					c0.1,0.8-0.3,1.1-0.7,1.1C89.6,40.6,89.5,40.6,89.5,40.6z"/>
			</g>
		</g>
	</g>
</g>
<g>
	<g>
		<circle fill="#231F20" cx="92.5" cy="93.2" r="28.4"/>
	</g>
	<g>
		<g>
			<g>
				<path fill="#FFFFFF" d="M92.5,122.1c-16.2,0-29.4-13.1-29.4-29.1c0-16.1,13.2-29.1,29.4-29.1S121.9,77,121.9,93
					C121.9,109.1,108.7,122.1,92.5,122.1z M92.5,65.5c-15.4,0-27.9,12.3-27.9,27.5s12.5,27.5,27.9,27.5s27.9-12.4,27.9-27.5
					C120.4,77.8,107.9,65.5,92.5,65.5z"/>
			</g>
		</g>
		<g>
			<g>
				<path fill="#FFFFFF" d="M92.1,109.7c-9.7,0-17.6-7.9-17.6-17.6s7.9-17.6,17.6-17.6s17.6,7.9,17.6,17.6
					C109.8,101.8,101.9,109.7,92.1,109.7z M92.1,75.2c-9.3,0-16.9,7.6-16.9,16.9S82.8,109,92.1,109s16.9-7.6,16.9-16.9
					S101.4,75.2,92.1,75.2z"/>
			</g>
		</g>
		<g>
			<g>
				<path fill="#FFFFFF" d="M95.4,101.6c0,0.4-0.1,0.6-0.5,0.6c-0.3,0-0.8-0.2-0.8-0.6c0-0.4,0.3-0.8,0.6-0.8
					C95.2,100.8,95.4,101.1,95.4,101.6"/>
			</g>
		</g>
		<g>
			<g>
				<path fill="#FFFFFF" d="M95,102.6c-0.6,0-1.2-0.4-1.2-1s0.5-1.1,1-1.1c0.6,0,1,0.5,1,1.1C95.8,102.4,95.4,102.6,95,102.6z"/>
			</g>
		</g>
		<g>
			<g>
				<g>
					<path fill="#FFFFFF" d="M88.1,104.7c-0.9,0-0.9,0-0.9,0c-1.2-0.2-2.3-0.9-2.9-2.1c-0.9-1.7-0.3-4.9-0.3-5.1l1-8.5
						c-0.9,0.4-2.7,1-4.5,1c-2.2,0-3.7-1-4.3-2.9c-0.2-0.7-0.2-1.1,0-1.3c0.1-0.1,0.2-0.2,0.4-0.2h0.1l0,0c0.5,0,4,0,8.6,0h5.6l0,0
						h0.2l0,0c3.8,0,7.6,0,10.6,0c1.6,0,2.9,0,3.9,0c1.8,0,2,0,2.2,0.1c0.1,0,0.1,0.1,0.1,0.1c0.2,0.3,0.2,0.7,0,1.3
						c-0.6,1.9-2.1,2.9-4.2,2.9l0,0c-1.7,0-3.5-0.6-4.4-1l1,8.5c0,0.1,0.6,3.3-0.3,5c-0.6,1.2-1.6,1.9-2.9,2.1c0,0-0.1,0-0.9,0h-0.8
						C92.8,104.6,89.6,104.7,88.1,104.7z M85.9,87.7l-1.1,9.9c0,0.1-0.6,3.1,0.2,4.6c0.5,1,1.3,1.6,2.3,1.7c0,0,0.4,0,0.8,0
						c1.5,0,4.4,0,7,0l0,0h0.3h0.8c0.5,0,0.8,0,0.9,0c0.7-0.1,1.6-0.4,2.2-1.7c0.7-1.4,0.2-4.5,0.2-4.5l-1.1-9.9L99,88
						c0,0,2.4,1.2,4.7,1.2c1.9,0,3-0.8,3.5-2.4c0.1-0.3,0.1-0.4,0.1-0.6H107l0,0c-0.3,0-0.7,0-1.4,0c-1,0-2.3,0-3.9,0
						c-3,0-6.9,0-10.8,0h-0.3l0,0h-5.3c-4.3,0-7.6,0-8.5,0c0,0.1,0,0.3,0.1,0.5c0.5,1.6,1.7,2.4,3.6,2.4c2.3,0,4.8-1.2,4.8-1.2
						L85.9,87.7z"/>
					<path fill="#FFFFFF" d="M88.1,104.9c-0.9,0-0.9,0-1,0c-1.3-0.2-2.4-0.9-3.1-2.2c-0.9-1.8-0.3-5.2-0.3-5.2l0.9-8.1
						c-1,0.4-2.6,0.9-4.2,0.9c-2.3,0-3.9-1.1-4.5-3.1c-0.2-0.7-0.2-1.2,0-1.5c0.1-0.2,0.3-0.3,0.5-0.3h0.2l0,0c0.6,0,3.8,0,8.1,0
						h6.2l0,0h0.6l0,0c3.5,0,7,0,9.8,0h1.7c1,0,1.9,0,2.6,0c1.9,0,2.1,0,2.3,0.2c0,0,0.1,0.1,0.2,0.2c0.2,0.3,0.2,0.8,0,1.5
						c-0.6,2-2.2,3.1-4.4,3.1c-1.6,0-3.2-0.5-4.1-0.9l0.9,8.2c0,0.1,0.6,3.4-0.3,5.1c-0.7,1.3-1.7,2.1-3,2.2c-0.1,0-0.1,0-1,0h-0.8
						C92.8,104.9,89.6,104.9,88.1,104.9z M85.2,88.7l-1,8.9c0,0-0.6,3.3,0.2,4.9c0.6,1.1,1.6,1.8,2.7,2c0,0,0.2,0,0.9,0
						c1.5,0,4.7,0,7.3,0h0.8c0.8,0,0.9,0,0.9,0c1.1-0.1,2.1-0.8,2.7-2c0.8-1.6,0.2-4.9,0.2-4.9l-1-8.9l0.3,0.1c0.9,0.4,2.6,1,4.3,1
						c2.1,0,3.5-1,4-2.8c0.2-0.6,0.2-0.9,0.1-1.1l-0.1-0.1c-0.1-0.1-0.8-0.1-2-0.1c-0.7,0-1.6,0-2.6,0h-1.7c-2.9,0-6.5,0-10.2,0
						h-0.3l0,0l0,0h-0.1l0,0h-6c-4.4,0-7.6,0-8.1,0h-0.1l0,0c-0.1,0-0.2,0.1-0.2,0.1c-0.1,0.2-0.1,0.6,0.1,1.1
						c0.6,1.8,2,2.8,4.1,2.8c1.7,0,3.5-0.6,4.4-1H85.2z M88.1,104.1h-0.8c-1.1-0.1-2-0.8-2.5-1.8c-0.8-1.5-0.2-4.7-0.2-4.7l1.1-9.5
						l-0.3,0.1c0,0-2.5,1.2-4.9,1.2c-2,0-3.2-0.8-3.8-2.5c-0.1-0.2-0.1-0.4-0.1-0.6V86h0.3c0.7,0,3.3,0,6.8,0h7.1l0,0H91
						c3.8,0,7.6,0,10.6,0h0.7c1.4,0,2.5,0,3.4,0c0.7,0,1.1,0,1.4,0h0.5v0.2c0,0.1-0.1,0.3-0.1,0.6c-0.5,1.7-1.7,2.5-3.7,2.5
						c-2.3,0-4.8-1.2-4.8-1.2L98.6,88l1.1,9.5c0.1,0.5,0.5,3.3-0.2,4.7s-1.8,1.7-2.4,1.8c-0.1,0-0.4,0-0.9,0h-1.1
						C92.6,104.1,89.6,104.1,88.1,104.1z M87.4,103.7h0.8c1.4,0,4.4,0,6.9,0h0.3h0.8c0.5,0,0.8,0,0.8,0c0.6-0.1,1.5-0.4,2.1-1.6
						c0.5-1,0.4-3,0.2-4.4l-1.2-10.4l1,0.5c0,0,2.4,1.2,4.6,1.2c1.8,0,2.8-0.7,3.3-2.2c0-0.1,0.1-0.2,0.1-0.3H107
						c-0.3,0-0.7,0-1.3,0c-0.9,0-2.1,0-3.4,0h-0.7c-3,0-6.8,0-10.6,0h-0.4l0,0h-6.9c-3.1,0-5.6,0-6.5,0c0,0.1,0,0.1,0.1,0.2
						c0.5,1.5,1.6,2.2,3.4,2.2c2.2,0,4.7-1.2,4.7-1.2l1-0.5L85,97.6c0,0-0.6,3.1,0.2,4.4C85.6,103,86.4,103.5,87.4,103.7L87.4,103.7
						z"/>
				</g>
			</g>
			<g>
				<g>
					
						<rect x="96.1" y="81.6" transform="matrix(0.8852 0.4653 -0.4653 0.8852 50.0662 -35.2668)" fill="#FFFFFF" width="0.8" height="4.4"/>
					<path fill="#FFFFFF" d="M95.9,86.2l-1.1-0.6l2.2-4.3l1.1,0.6L95.9,86.2z M95.4,85.4l0.3,0.2l1.8-3.5l-0.3-0.2L95.4,85.4z"/>
				</g>
			</g>
			<g>
				<g>
					
						<rect x="86.4" y="83.4" transform="matrix(0.4656 0.885 -0.885 0.4656 121.4579 -33.6366)" fill="#FFFFFF" width="4.4" height="0.8"/>
					<path fill="#FFFFFF" d="M89.2,86.2L87,81.9l1.1-0.6l2.2,4.3L89.2,86.2z M87.5,82.1l1.8,3.5l0.3-0.2l-1.8-3.5L87.5,82.1z"/>
				</g>
			</g>
			<g>
				<g>
					
						<rect x="84.5" y="98.4" transform="matrix(1 1.437575e-03 -1.437575e-03 1 0.1421 -0.1324)" fill="#FFFFFF" width="15.3" height="0.8"/>
					<path fill="#FFFFFF" d="M100,99.4H84.3v-1.2H100V99.4z M84.7,98.9h14.9v-0.4H84.7V98.9z"/>
				</g>
			</g>
			<g>
				<g>
					<path fill="#FFFFFF" d="M94.9,93.4c-0.7,0-1.3-0.6-1.3-1.3c0-0.7,0.6-1.3,1.3-1.3c0.7,0,1.3,0.6,1.3,1.3
						C96.2,92.8,95.7,93.4,94.9,93.4z M94.9,91.5c-0.3,0-0.5,0.2-0.5,0.5c0,0.3,0.2,0.5,0.5,0.5s0.5-0.2,0.5-0.5
						C95.5,91.8,95.2,91.5,94.9,91.5z"/>
					<path fill="#FFFFFF" d="M94.9,93.6c-0.8,0-1.5-0.7-1.5-1.5s0.7-1.5,1.5-1.5s1.5,0.7,1.5,1.5C96.5,92.9,95.8,93.6,94.9,93.6z
						 M94.9,90.9c-0.6,0-1.1,0.5-1.1,1.1c0,0.6,0.5,1.1,1.1,1.1S96,92.6,96,92C96,91.4,95.5,90.9,94.9,90.9z M94.9,92.8
						c-0.4,0-0.7-0.3-0.7-0.7s0.3-0.7,0.7-0.7c0.4,0,0.7,0.3,0.7,0.7C95.7,92.5,95.3,92.8,94.9,92.8z M94.9,91.7
						c-0.2,0-0.3,0.1-0.3,0.3s0.1,0.3,0.3,0.3c0.2,0,0.3-0.1,0.3-0.3C95.2,91.9,95.1,91.7,94.9,91.7z"/>
				</g>
			</g>
			<g>
				<g>
					<path fill="#FFFFFF" d="M89.8,93.3c-0.7,0-1.3-0.6-1.3-1.3c0-0.7,0.6-1.3,1.3-1.3s1.3,0.6,1.3,1.3
						C91.1,92.8,90.5,93.3,89.8,93.3z M89.8,91.5c-0.3,0-0.5,0.2-0.5,0.5c0,0.3,0.2,0.5,0.5,0.5s0.5-0.2,0.5-0.5
						C90.3,91.7,90.1,91.5,89.8,91.5z"/>
					<path fill="#FFFFFF" d="M89.8,93.6c-0.8,0-1.5-0.7-1.5-1.5s0.7-1.5,1.5-1.5s1.5,0.7,1.5,1.5S90.6,93.6,89.8,93.6z M89.8,90.9
						c-0.6,0-1.1,0.5-1.1,1.1c0,0.6,0.5,1.1,1.1,1.1s1.1-0.5,1.1-1.1C90.9,91.4,90.4,90.9,89.8,90.9z M89.8,92.8
						c-0.4,0-0.7-0.3-0.7-0.7s0.3-0.7,0.7-0.7c0.4,0,0.7,0.3,0.7,0.7C90.5,92.4,90.2,92.8,89.8,92.8z M89.8,91.7
						c-0.2,0-0.3,0.1-0.3,0.3s0.1,0.3,0.3,0.3c0.2,0,0.3-0.1,0.3-0.3S89.9,91.7,89.8,91.7z"/>
				</g>
			</g>
			<g>
				<g>
					
						<rect x="85.8" y="85.5" transform="matrix(0.8468 0.5319 -0.5319 0.8468 59.4915 -32.5312)" fill="#FFFFFF" width="0.8" height="3.1"/>
					<path fill="#FFFFFF" d="M85.8,88.9l-1-0.7l1.9-3l1,0.6L85.8,88.9z M85.4,88.1l0.3,0.2l1.4-2.3l-0.3-0.2L85.4,88.1z"/>
				</g>
			</g>
			<g>
				<g>
					
						<rect x="97.8" y="85.5" transform="matrix(-0.8468 0.5319 -0.5319 -0.8468 227.6431 108.5167)" fill="#FFFFFF" width="0.8" height="3.1"/>
					<path fill="#FFFFFF" d="M98.6,88.9l-1.9-3l1-0.6l1.9,3L98.6,88.9z M97.3,86l1.4,2.3l0.3-0.2l-1.4-2.3L97.3,86z"/>
				</g>
			</g>
		</g>
		<g>
			<g>
				<path fill="#FFFFFF" d="M79.4,78.1l-3.5,4.2L75,81.6L74,76l-2.2,2.5L71,77.9l3.3-4l0.8,0.6l1,5.7l2.4-2.9L79.4,78.1z"/>
			</g>
		</g>
		<g>
			<g>
				<path fill="#FFFFFF" d="M80.9,77.1l-3.4-5.5l4.3-2.7l0.5,0.9l-3.1,1.9L80,73l2.2-1.4l0.5,0.9l-2.2,1.4l0.9,1.6l3.2-1.9l0.5,0.9
					L80.9,77.1z"/>
			</g>
		</g>
		<g>
			<g>
				<path fill="#FFFFFF" d="M86.8,73.9l-1-6.4l1.5-0.2l3.7,3.9l0,0l-0.6-4.4l1.4-0.2l1,6.4l-1.4,0.2l-3.8-4.1l0,0l0.7,4.6L86.8,73.9
					z"/>
			</g>
		</g>
		<g>
			<g>
				<path fill="#FFFFFF" d="M99.1,69.5c-0.1-0.5-0.5-1-1.1-1.2c-0.6-0.2-1.1-0.1-1.2,0.4c-0.3,1.1,3.6,1.8,3.1,3.9
					c-0.3,1.3-1.4,1.7-3.1,1.3c-1.2-0.3-2.2-1.2-2.4-2.2l1.3-0.1c0.2,0.7,0.5,1.2,1.4,1.4c0.7,0.2,1.3,0.1,1.5-0.5
					c0.3-1.2-3.6-2-3.1-3.9c0.3-1.1,1.6-1.5,2.8-1.2c1.2,0.3,2.1,1.1,2.3,2.1H99.1z"/>
			</g>
		</g>
		<g>
			<g>
				<path fill="#FFFFFF" d="M101,75.1l3.5-5.5l1.2,0.8l-3.5,5.5L101,75.1z"/>
			</g>
		</g>
		<g>
			<g>
				<path fill="#FFFFFF" d="M104.5,77.5l4.9-4.3l3.4,3.8l-0.8,0.7l-2.4-2.7l-1.2,1l1.7,2l-0.8,0.7l-1.7-2l-1.4,1.2l2.5,2.8l-0.8,0.7
					L104.5,77.5z"/>
			</g>
		</g>
		<g>
			<g>
				<path fill="#FFFFFF" d="M81.3,111.7c0.7,0.3,1.4,0.5,1.7-0.1c0.2-0.4,0-0.8-0.4-1c-0.4-0.2-0.8-0.1-1.2,0.1l-0.4-0.8
					c0.7-0.3,1.4-0.3,1.9-0.1c0.9,0.4,1.5,1.2,1.1,2.1c-0.2,0.5-0.7,0.8-1.3,0.8c0.5,0.5,0.6,1.1,0.3,1.8c-0.5,1.1-1.6,1.2-2.5,0.8
					c-0.7-0.3-1.3-1-1.3-1.8l0.9-0.1c0.1,0.5,0.3,0.9,0.8,1.2c0.5,0.2,1,0.1,1.2-0.4c0.4-0.9-0.5-1.3-1.1-1.6L81.3,111.7z"/>
			</g>
		</g>
		<g>
			<g>
				<path fill="#FFFFFF" d="M87.7,111.4c1.5,0.3,1.7,1.7,1.4,3.3c-0.3,1.6-1.1,2.8-2.6,2.5c-1.5-0.3-1.7-1.7-1.4-3.3
					C85.5,112.3,86.3,111.1,87.7,111.4z M86.7,116.4c0.6,0.1,1.1-0.3,1.4-1.9s0-2.2-0.6-2.3s-1.1,0.3-1.4,1.9
					C85.8,115.7,86.1,116.3,86.7,116.4z"/>
			</g>
		</g>
		<g>
			<g>
				<path fill="#FFFFFF" d="M91.2,117.8l-0.4-5.8l1.5-0.1l1.3,4l0,0l0.8-4.1l1.5-0.1l0.4,5.8l-0.9,0.1l-0.2-4.6l0,0l-1,4.7l-0.8,0.1
					l-1.5-4.5l0,0l0.3,4.6L91.2,117.8z"/>
			</g>
		</g>
		<g>
			<g>
				<path fill="#FFFFFF" d="M99.3,116.9l-1.9-5.5l1-0.3l0.8,2.2l2-0.7l-0.8-2.2l1-0.3l1.9,5.5l-1,0.3l-0.8-2.4l-2,0.7l0.8,2.4
					L99.3,116.9z"/>
			</g>
		</g>
		<g>
			<g>
				<path fill="#FFFFFF" d="M103.3,110.8l2.6-1.5l0.4,0.6l-0.3,3.3l1.7-1l0.4,0.7l-2.7,1.6l-0.4-0.6l0.3-3.3l-1.5,0.9L103.3,110.8z"
					/>
			</g>
		</g>
		<g>
			<g>
				<path fill="#FFFFFF" d="M90,101.4c0.1,0.4,0,0.6-0.4,0.7c-0.3,0.1-0.8-0.1-0.9-0.5s0.2-0.8,0.5-0.8
					C89.6,100.7,89.9,101,90,101.4"/>
			</g>
		</g>
		<g>
			<g>
				<path fill="#FFFFFF" d="M89.5,102.5c-0.6,0-1.1-0.3-1.1-0.8c-0.1-0.6,0.3-1.2,0.8-1.3c0.6-0.1,1.1,0.4,1.2,1
					c0.1,0.8-0.3,1.1-0.7,1.1C89.6,102.5,89.5,102.5,89.5,102.5z"/>
			</g>
		</g>
	</g>
</g>
<g>
	<g>
		<circle fill="#231F20" cx="92.5" cy="156.5" r="28.4"/>
	</g>
	<g>
		<g>
			<g>
				<path fill="#FFFFFF" d="M92.5,185.4c-16.2,0-29.4-13.1-29.4-29.1c0-16.1,13.2-29.1,29.4-29.1s29.4,13.1,29.4,29.1
					C121.9,172.4,108.7,185.4,92.5,185.4z M92.5,128.8c-15.4,0-27.9,12.3-27.9,27.5c0,15.2,12.5,27.5,27.9,27.5s27.9-12.4,27.9-27.5
					C120.4,141.1,107.9,128.8,92.5,128.8z"/>
			</g>
		</g>
		<g>
			<g>
				<path fill="#FFFFFF" d="M92.1,173c-9.7,0-17.6-7.9-17.6-17.6s7.9-17.6,17.6-17.6s17.6,7.9,17.6,17.6
					C109.8,165.1,101.9,173,92.1,173z M92.1,138.5c-9.3,0-16.9,7.6-16.9,16.9s7.6,16.9,16.9,16.9s16.9-7.6,16.9-16.9
					S101.4,138.5,92.1,138.5z"/>
			</g>
		</g>
		<g>
			<g>
				<path fill="#FFFFFF" d="M95.4,164.9c0,0.4-0.1,0.6-0.5,0.6c-0.3,0-0.8-0.2-0.8-0.6s0.3-0.8,0.6-0.8
					C95.2,164.1,95.4,164.4,95.4,164.9"/>
			</g>
		</g>
		<g>
			<g>
				<path fill="#FFFFFF" d="M95,165.9c-0.6,0-1.2-0.4-1.2-1s0.5-1.1,1-1.1c0.6,0,1,0.5,1,1.1C95.8,165.7,95.4,165.9,95,165.9z"/>
			</g>
		</g>
		<g>
			<g>
				<g>
					<path fill="#FFFFFF" d="M88.1,168c-0.9,0-0.9,0-0.9,0c-1.2-0.2-2.3-0.9-2.9-2.1c-0.9-1.7-0.3-4.9-0.3-5.1l1-8.5
						c-0.9,0.4-2.7,1-4.5,1c-2.2,0-3.7-1-4.3-2.9c-0.2-0.7-0.2-1.1,0-1.3c0.1-0.1,0.2-0.2,0.4-0.2h0.1l0,0c0.5,0,4,0,8.6,0h5.6l0,0
						h0.2l0,0c3.8,0,7.6,0,10.6,0c1.6,0,2.9,0,3.9,0c1.8,0,2,0,2.2,0.1c0.1,0,0.1,0.1,0.1,0.1c0.2,0.3,0.2,0.7,0,1.3
						c-0.6,1.9-2.1,2.9-4.2,2.9l0,0c-1.7,0-3.5-0.6-4.4-1l1,8.5c0,0.1,0.6,3.3-0.3,5c-0.6,1.2-1.6,1.9-2.9,2.1c0,0-0.1,0-0.9,0h-0.8
						C92.8,167.9,89.6,168,88.1,168z M85.9,151l-1.1,9.9c0,0.1-0.6,3.1,0.2,4.6c0.5,1,1.3,1.6,2.3,1.7c0,0,0.4,0,0.8,0
						c1.5,0,4.4,0,7,0l0,0h0.3h0.8c0.5,0,0.8,0,0.9,0c0.7-0.1,1.6-0.4,2.2-1.7c0.7-1.4,0.2-4.5,0.2-4.5l-1.1-9.9l0.6,0.2
						c0,0,2.4,1.2,4.7,1.2c1.9,0,3-0.8,3.5-2.4c0.1-0.3,0.1-0.4,0.1-0.6H107l0,0c-0.3,0-0.7,0-1.4,0c-1,0-2.3,0-3.9,0
						c-3,0-6.9,0-10.8,0h-0.3l0,0h-5.3c-4.3,0-7.6,0-8.5,0c0,0.1,0,0.3,0.1,0.5c0.5,1.6,1.7,2.4,3.6,2.4c2.3,0,4.8-1.2,4.8-1.2
						L85.9,151z"/>
					<path fill="#FFFFFF" d="M88.1,168.2c-0.9,0-0.9,0-1,0c-1.3-0.2-2.4-0.9-3.1-2.2c-0.9-1.8-0.3-5.2-0.3-5.2l0.9-8.1
						c-1,0.4-2.6,0.9-4.2,0.9c-2.3,0-3.9-1.1-4.5-3.1c-0.2-0.7-0.2-1.2,0-1.5c0.1-0.2,0.3-0.3,0.5-0.3h0.2l0,0c0.6,0,3.8,0,8.1,0
						h6.2l0,0h0.6l0,0c3.5,0,7,0,9.8,0h1.7c1,0,1.9,0,2.6,0c1.9,0,2.1,0,2.3,0.2c0,0,0.1,0.1,0.2,0.2c0.2,0.3,0.2,0.8,0,1.5
						c-0.6,2-2.2,3.1-4.4,3.1c-1.6,0-3.2-0.5-4.1-0.9l0.9,8.2c0,0.1,0.6,3.4-0.3,5.1c-0.7,1.3-1.7,2.1-3,2.2c-0.1,0-0.1,0-1,0h-0.8
						C92.8,168.2,89.6,168.2,88.1,168.2z M85.2,152l-1,8.9c0,0-0.6,3.3,0.2,4.9c0.6,1.1,1.6,1.8,2.7,2c0,0,0.2,0,0.9,0
						c1.5,0,4.7,0,7.3,0h0.8c0.8,0,0.9,0,0.9,0c1.1-0.1,2.1-0.8,2.7-2c0.8-1.6,0.2-4.9,0.2-4.9l-1-8.9l0.3,0.1c0.9,0.4,2.6,1,4.3,1
						c2.1,0,3.5-1,4-2.8c0.2-0.6,0.2-0.9,0.1-1.1l-0.1-0.1c-0.1-0.1-0.8-0.1-2-0.1c-0.7,0-1.6,0-2.6,0h-1.7c-2.9,0-6.5,0-10.2,0
						h-0.3l0,0l0,0h-0.1l0,0h-6c-4.4,0-7.6,0-8.1,0h-0.1l0,0c-0.1,0-0.2,0.1-0.2,0.1c-0.1,0.2-0.1,0.6,0.1,1.1
						c0.6,1.8,2,2.8,4.1,2.8c1.7,0,3.5-0.6,4.4-1H85.2z M88.1,167.4h-0.8c-1.1-0.1-2-0.8-2.5-1.8c-0.8-1.5-0.2-4.7-0.2-4.7l1.1-9.5
						l-0.3,0.1c0,0-2.5,1.2-4.9,1.2c-2,0-3.2-0.8-3.8-2.5c-0.1-0.2-0.1-0.4-0.1-0.6v-0.3h0.3c0.7,0,3.3,0,6.8,0h7.1l0,0H91
						c3.8,0,7.6,0,10.6,0h0.7c1.4,0,2.5,0,3.4,0c0.7,0,1.1,0,1.4,0h0.5v0.2c0,0.1-0.1,0.3-0.1,0.6c-0.5,1.7-1.7,2.5-3.7,2.5
						c-2.3,0-4.8-1.2-4.8-1.2l-0.4-0.1l1.1,9.5c0.1,0.5,0.5,3.3-0.2,4.7c-0.7,1.4-1.8,1.7-2.4,1.8c-0.1,0-0.4,0-0.9,0h-1.1
						C92.6,167.4,89.6,167.4,88.1,167.4z M87.4,167h0.8c1.4,0,4.4,0,6.9,0h0.3h0.8c0.5,0,0.8,0,0.8,0c0.6-0.1,1.5-0.4,2.1-1.6
						c0.5-1,0.4-3,0.2-4.4l-1.2-10.4l1,0.5c0,0,2.4,1.2,4.6,1.2c1.8,0,2.8-0.7,3.3-2.2c0-0.1,0.1-0.2,0.1-0.3H107
						c-0.3,0-0.7,0-1.3,0c-0.9,0-2.1,0-3.4,0h-0.7c-3,0-6.8,0-10.6,0h-0.4l0,0h-6.9c-3.1,0-5.6,0-6.5,0c0,0.1,0,0.1,0.1,0.2
						c0.5,1.5,1.6,2.2,3.4,2.2c2.2,0,4.7-1.2,4.7-1.2l1-0.5L85,160.9c0,0-0.6,3.1,0.2,4.4C85.6,166.3,86.4,166.8,87.4,167L87.4,167z
						"/>
				</g>
			</g>
			<g>
				<g>
					
						<rect x="96.1" y="144.9" transform="matrix(0.8852 0.4653 -0.4653 0.8852 79.5162 -27.9982)" fill="#FFFFFF" width="0.8" height="4.4"/>
					<path fill="#FFFFFF" d="M95.9,149.5l-1.1-0.6l2.2-4.3l1.1,0.6L95.9,149.5z M95.4,148.7l0.3,0.2l1.8-3.5l-0.3-0.2L95.4,148.7z"
						/>
				</g>
			</g>
			<g>
				<g>
					
						<rect x="86.4" y="146.6" transform="matrix(0.4656 0.885 -0.885 0.4656 177.4738 0.1885)" fill="#FFFFFF" width="4.4" height="0.8"/>
					<path fill="#FFFFFF" d="M89.2,149.5l-2.2-4.3l1.1-0.6l2.2,4.3L89.2,149.5z M87.5,145.4l1.8,3.5l0.3-0.2l-1.8-3.5L87.5,145.4z"
						/>
				</g>
			</g>
			<g>
				<g>
					
						<rect x="84.5" y="161.7" transform="matrix(1 1.437575e-03 -1.437575e-03 1 0.2331 -0.1323)" fill="#FFFFFF" width="15.3" height="0.8"/>
					<path fill="#FFFFFF" d="M100,162.7H84.3v-1.2H100V162.7z M84.7,162.2h14.9v-0.4H84.7V162.2z"/>
				</g>
			</g>
			<g>
				<g>
					<path fill="#FFFFFF" d="M94.9,156.7c-0.7,0-1.3-0.6-1.3-1.3s0.6-1.3,1.3-1.3c0.7,0,1.3,0.6,1.3,1.3
						C96.2,156.1,95.7,156.7,94.9,156.7z M94.9,154.8c-0.3,0-0.5,0.2-0.5,0.5c0,0.3,0.2,0.5,0.5,0.5s0.5-0.2,0.5-0.5
						C95.5,155.1,95.2,154.8,94.9,154.8z"/>
					<path fill="#FFFFFF" d="M94.9,156.9c-0.8,0-1.5-0.7-1.5-1.5s0.7-1.5,1.5-1.5s1.5,0.7,1.5,1.5C96.5,156.2,95.8,156.9,94.9,156.9
						z M94.9,154.2c-0.6,0-1.1,0.5-1.1,1.1c0,0.6,0.5,1.1,1.1,1.1s1.1-0.5,1.1-1.1C96,154.7,95.5,154.2,94.9,154.2z M94.9,156.1
						c-0.4,0-0.7-0.3-0.7-0.7s0.3-0.7,0.7-0.7c0.4,0,0.7,0.3,0.7,0.7C95.7,155.8,95.3,156.1,94.9,156.1z M94.9,155
						c-0.2,0-0.3,0.1-0.3,0.3c0,0.2,0.1,0.3,0.3,0.3c0.2,0,0.3-0.1,0.3-0.3C95.2,155.2,95.1,155,94.9,155z"/>
				</g>
			</g>
			<g>
				<g>
					<path fill="#FFFFFF" d="M89.8,156.6c-0.7,0-1.3-0.6-1.3-1.3c0-0.7,0.6-1.3,1.3-1.3s1.3,0.6,1.3,1.3
						C91.1,156.1,90.5,156.6,89.8,156.6z M89.8,154.8c-0.3,0-0.5,0.2-0.5,0.5c0,0.3,0.2,0.5,0.5,0.5s0.5-0.2,0.5-0.5
						C90.3,155,90.1,154.8,89.8,154.8z"/>
					<path fill="#FFFFFF" d="M89.8,156.9c-0.8,0-1.5-0.7-1.5-1.5s0.7-1.5,1.5-1.5s1.5,0.7,1.5,1.5S90.6,156.9,89.8,156.9z
						 M89.8,154.2c-0.6,0-1.1,0.5-1.1,1.1c0,0.6,0.5,1.1,1.1,1.1s1.1-0.5,1.1-1.1C90.9,154.7,90.4,154.2,89.8,154.2z M89.8,156.1
						c-0.4,0-0.7-0.3-0.7-0.7s0.3-0.7,0.7-0.7c0.4,0,0.7,0.3,0.7,0.7C90.5,155.7,90.2,156.1,89.8,156.1z M89.8,155
						c-0.2,0-0.3,0.1-0.3,0.3c0,0.2,0.1,0.3,0.3,0.3c0.2,0,0.3-0.1,0.3-0.3C90.1,155.1,89.9,155,89.8,155z"/>
				</g>
			</g>
			<g>
				<g>
					
						<rect x="85.8" y="148.8" transform="matrix(0.8468 0.5319 -0.5319 0.8468 93.1584 -22.8347)" fill="#FFFFFF" width="0.8" height="3.1"/>
					<path fill="#FFFFFF" d="M85.8,152.2l-1-0.7l1.9-3l1,0.6L85.8,152.2z M85.4,151.4l0.3,0.2l1.4-2.3l-0.3-0.2L85.4,151.4z"/>
				</g>
			</g>
			<g>
				<g>
					
						<rect x="97.8" y="148.8" transform="matrix(-0.8468 0.5319 -0.5319 -0.8468 261.31 225.4105)" fill="#FFFFFF" width="0.8" height="3.1"/>
					<path fill="#FFFFFF" d="M98.6,152.2l-1.9-3l1-0.6l1.9,3L98.6,152.2z M97.3,149.3l1.4,2.3l0.3-0.2l-1.4-2.3L97.3,149.3z"/>
				</g>
			</g>
		</g>
		<g>
			<g>
				<path fill="#FFFFFF" d="M79.4,141.4l-3.5,4.2l-0.9-0.7l-1-5.6l-2.2,2.5l-0.8-0.6l3.3-4l0.8,0.6l1,5.7l2.4-2.9L79.4,141.4z"/>
			</g>
		</g>
		<g>
			<g>
				<path fill="#FFFFFF" d="M80.9,140.4l-3.4-5.5l4.3-2.7l0.5,0.9l-3.1,1.9l0.8,1.3l2.2-1.4l0.5,0.9l-2.2,1.4l0.9,1.6l3.2-1.9
					l0.5,0.9L80.9,140.4z"/>
			</g>
		</g>
		<g>
			<g>
				<path fill="#FFFFFF" d="M86.8,137.2l-1-6.4l1.5-0.2l3.7,3.9l0,0l-0.6-4.4l1.4-0.2l1,6.4l-1.4,0.2l-3.8-4.1l0,0l0.7,4.6
					L86.8,137.2z"/>
			</g>
		</g>
		<g>
			<g>
				<path fill="#FFFFFF" d="M99.1,132.8c-0.1-0.5-0.5-1-1.1-1.2s-1.1-0.1-1.2,0.4c-0.3,1.1,3.6,1.8,3.1,3.9
					c-0.3,1.3-1.4,1.7-3.1,1.3c-1.2-0.3-2.2-1.2-2.4-2.2l1.3-0.1c0.2,0.7,0.5,1.2,1.4,1.4c0.7,0.2,1.3,0.1,1.5-0.5
					c0.3-1.2-3.6-2-3.1-3.9c0.3-1.1,1.6-1.5,2.8-1.2c1.2,0.3,2.1,1.1,2.3,2.1H99.1z"/>
			</g>
		</g>
		<g>
			<g>
				<path fill="#FFFFFF" d="M101,138.4l3.5-5.5l1.2,0.8l-3.5,5.5L101,138.4z"/>
			</g>
		</g>
		<g>
			<g>
				<path fill="#FFFFFF" d="M104.5,140.8l4.9-4.3l3.4,3.8L112,141l-2.4-2.7l-1.2,1l1.7,2l-0.8,0.7l-1.7-2l-1.4,1.2l2.5,2.8l-0.8,0.7
					L104.5,140.8z"/>
			</g>
		</g>
		<g>
			<g>
				<path fill="#FFFFFF" d="M81.3,175c0.7,0.3,1.4,0.5,1.7-0.1c0.2-0.4,0-0.8-0.4-1c-0.4-0.2-0.8-0.1-1.2,0.1l-0.4-0.8
					c0.7-0.3,1.4-0.3,1.9-0.1c0.9,0.4,1.5,1.2,1.1,2.1c-0.2,0.5-0.7,0.8-1.3,0.8c0.5,0.5,0.6,1.1,0.3,1.8c-0.5,1.1-1.6,1.2-2.5,0.8
					c-0.7-0.3-1.3-1-1.3-1.8l0.9-0.1c0.1,0.5,0.3,0.9,0.8,1.2c0.5,0.2,1,0.1,1.2-0.4c0.4-0.9-0.5-1.3-1.1-1.6L81.3,175z"/>
			</g>
		</g>
		<g>
			<g>
				<path fill="#FFFFFF" d="M87.7,174.7c1.5,0.3,1.7,1.7,1.4,3.3c-0.3,1.6-1.1,2.8-2.6,2.5c-1.5-0.3-1.7-1.7-1.4-3.3
					C85.5,175.6,86.3,174.4,87.7,174.7z M86.7,179.7c0.6,0.1,1.1-0.3,1.4-1.9c0.3-1.6,0-2.2-0.6-2.3c-0.6-0.1-1.1,0.3-1.4,1.9
					C85.8,179,86.1,179.6,86.7,179.7z"/>
			</g>
		</g>
		<g>
			<g>
				<path fill="#FFFFFF" d="M91.2,181.1l-0.4-5.8l1.5-0.1l1.3,4l0,0l0.8-4.1l1.5-0.1l0.4,5.8l-0.9,0.1l-0.2-4.6l0,0l-1,4.7l-0.8,0.1
					l-1.5-4.5l0,0l0.3,4.6L91.2,181.1z"/>
			</g>
		</g>
		<g>
			<g>
				<path fill="#FFFFFF" d="M99.3,180.2l-1.9-5.5l1-0.3l0.8,2.2l2-0.7l-0.8-2.2l1-0.3l1.9,5.5l-1,0.3l-0.8-2.4l-2,0.7l0.8,2.4
					L99.3,180.2z"/>
			</g>
		</g>
		<g>
			<g>
				<path fill="#FFFFFF" d="M103.3,174.1l2.6-1.5l0.4,0.6l-0.3,3.3l1.7-1l0.4,0.7l-2.7,1.6l-0.4-0.6l0.3-3.3l-1.5,0.9L103.3,174.1z"
					/>
			</g>
		</g>
		<g>
			<g>
				<path fill="#FFFFFF" d="M90,164.7c0.1,0.4,0,0.6-0.4,0.7c-0.3,0.1-0.8-0.1-0.9-0.5c-0.1-0.4,0.2-0.8,0.5-0.8
					C89.6,164,89.9,164.3,90,164.7"/>
			</g>
		</g>
		<g>
			<g>
				<path fill="#FFFFFF" d="M89.5,165.8c-0.6,0-1.1-0.3-1.1-0.8c-0.1-0.6,0.3-1.2,0.8-1.3c0.6-0.1,1.1,0.4,1.2,1
					c0.1,0.8-0.3,1.1-0.7,1.1C89.6,165.8,89.5,165.8,89.5,165.8z"/>
			</g>
		</g>
	</g>
</g>
</svg>
