<?xml version="1.0" encoding="UTF-8" standalone="no"?>
<!-- Created with Inkscape (http://www.inkscape.org/) -->

<svg
   xmlns:dc="http://purl.org/dc/elements/1.1/"
   xmlns:cc="http://creativecommons.org/ns#"
   xmlns:rdf="http://www.w3.org/1999/02/22-rdf-syntax-ns#"
   xmlns:svg="http://www.w3.org/2000/svg"
   xmlns="http://www.w3.org/2000/svg"
   xmlns:sodipodi="http://sodipodi.sourceforge.net/DTD/sodipodi-0.dtd"
   xmlns:inkscape="http://www.inkscape.org/namespaces/inkscape"
   sodipodi:docname="logoevento.svg"
   inkscape:version="0.48.5 r10040"
   version="1.1"
   id="svg2"
   height="188"
   width="185">
  <defs
     id="defs4">
    <clipPath
       id="clipPath3118"
       clipPathUnits="userSpaceOnUse">
      <path
         id="path3120"
         d="M 0,180 185,180 185,0 0,0 0,180 z"
         inkscape:connector-curvature="0" />
    </clipPath>
    <clipPath
       id="clipPath5251"
       clipPathUnits="userSpaceOnUse">
      <path
         id="path5253"
         d="M 0,180 185,180 185,0 0,0 0,180 z" />
    </clipPath>
    <clipPath
       id="clipPath5912"
       clipPathUnits="userSpaceOnUse">
      <path
         id="path5914"
         d="M 0,180 185,180 185,0 0,0 0,180 z" />
    </clipPath>
    <clipPath
       id="clipPath6451"
       clipPathUnits="userSpaceOnUse">
      <path
         id="path6453"
         d="M 0,180 185,180 185,0 0,0 0,180 z" />
    </clipPath>
    <clipPath
       id="clipPath7655"
       clipPathUnits="userSpaceOnUse">
      <path
         id="path7657"
         d="M 0,180 185,180 185,0 0,0 0,180 z" />
    </clipPath>
  </defs>
  <sodipodi:namedview
     id="base"
     pagecolor="#ffffff"
     bordercolor="#666666"
     borderopacity="1.0"
     inkscape:pageopacity="0.0"
     inkscape:pageshadow="2"
     inkscape:zoom="2"
     inkscape:cx="94.975619"
     inkscape:cy="71.81427"
     inkscape:document-units="px"
     inkscape:current-layer="layer1"
     showgrid="false"
     inkscape:window-width="981"
     inkscape:window-height="674"
     inkscape:window-x="0"
     inkscape:window-y="0"
     inkscape:window-maximized="0"
     objecttolerance="8" />
  <metadata
     id="metadata7">
    <rdf:RDF>
      <cc:Work
         rdf:about="">
        <dc:format>image/svg+xml</dc:format>
        <dc:type
           rdf:resource="http://purl.org/dc/dcmitype/StillImage" />
        <dc:title></dc:title>
      </cc:Work>
    </rdf:RDF>
  </metadata>
  <g
     inkscape:label="Layer 1"
     inkscape:groupmode="layer"
     id="layer1"
     transform="translate(0,-864.36218)">
    <g
       transform="matrix(1.0625,0,0,-1.0625,-5.743791,1058.3369)"
       inkscape:label="LOGOFINAL"
       id="g7649">
      <g
         id="g7651">
        <g
           clip-path="url(#clipPath7655)"
           id="g7653">
          <g
             transform="translate(92.5,176.2936)"
             id="g7659">
            <path
               id="path7661"
               style="fill:#231f20;fill-opacity:1;fill-rule:nonzero;stroke:none"
               d="m 0,0 c 14.906,0 26.991,-12.084 26.991,-26.991 0,-14.906 -12.085,-26.99 -26.991,-26.99 -14.906,0 -26.991,12.084 -26.991,26.99 C -26.991,-12.084 -14.906,0 0,0"
               inkscape:connector-curvature="0" />
          </g>
          <g
             transform="translate(92.5,175.6283)"
             id="g7663">
            <path
               id="path7665"
               style="fill:#ffffff;fill-opacity:1;fill-rule:nonzero;stroke:none"
               d="m 0,0 c -14.636,0 -26.515,-11.69 -26.515,-26.135 0,-14.446 11.879,-26.135 26.515,-26.135 14.636,0 26.515,11.784 26.515,26.135 C 26.515,-11.69 14.636,0 0,0 m 0,-53.791 c -15.396,0 -27.941,12.45 -27.941,27.656 0,15.301 12.545,27.656 27.941,27.656 15.396,0 27.941,-12.45 27.941,-27.656 0,-15.301 -12.545,-27.656 -27.941,-27.656"
               inkscape:connector-curvature="0" />
          </g>
          <g
             transform="translate(92.1199,166.4097)"
             id="g7667">
            <path
               id="path7669"
               style="fill:#ffffff;fill-opacity:1;fill-rule:nonzero;stroke:none"
               d="m 0,0 c -8.838,0 -16.061,-7.223 -16.061,-16.061 0,-8.839 7.223,-16.061 16.061,-16.061 8.838,0 16.061,7.222 16.061,16.061 C 16.061,-7.223 8.838,0 0,0 m 0,-32.788 c -9.219,0 -16.727,7.508 -16.727,16.727 0,9.218 7.508,16.726 16.727,16.726 9.219,0 16.727,-7.508 16.727,-16.726 C 16.822,-25.28 9.314,-32.788 0,-32.788"
               inkscape:connector-curvature="0" />
          </g>
          <g
             transform="translate(95.2561,141.32)"
             id="g7671">
            <path
               id="path7673"
               style="fill:#ffffff;fill-opacity:1;fill-rule:nonzero;stroke:none"
               d="m 0,0 c 0,-0.38 -0.095,-0.57 -0.475,-0.57 -0.285,0 -0.76,0.19 -0.76,0.57 0,0.38 0.285,0.76 0.57,0.76 C -0.19,0.76 0,0.475 0,0"
               inkscape:connector-curvature="0" />
          </g>
          <g
             transform="translate(94.8759,140.3696)"
             id="g7675">
            <path
               id="path7677"
               style="fill:#ffffff;fill-opacity:1;fill-rule:nonzero;stroke:none"
               d="m 0,0 c -0.57,0 -1.14,0.38 -1.14,0.95 0,0.571 0.475,1.046 0.95,1.046 0.57,0 0.95,-0.475 0.95,-1.046 C 0.76,0.19 0.38,0 0,0"
               inkscape:connector-curvature="0" />
          </g>
          <g
             transform="translate(86.2276,154.5301)"
             id="g7679">
            <path
               id="path7681"
               style="fill:#ffffff;fill-opacity:1;fill-rule:nonzero;stroke:none"
               d="m 0,0 -1.045,-9.409 c 0,-0.095 -0.571,-2.946 0.19,-4.371 0.475,-0.951 1.235,-1.521 2.186,-1.616 l 0.76,0 6.652,0 0.286,0 0.76,0 0.855,0 c 0.665,0.095 1.521,0.38 2.091,1.616 0.665,1.33 0.19,4.276 0.19,4.276 l -1.045,9.409 0.57,-0.19 c 0,0 2.281,-1.141 4.467,-1.141 1.805,0 2.851,0.761 3.326,2.281 0.095,0.285 0.095,0.38 0.095,0.571 l -0.285,0 -1.331,0 -3.706,0 -10.264,0 -0.285,0 -5.037,0 -8.078,0 c 0,-0.095 0,-0.286 0.095,-0.476 0.475,-1.52 1.615,-2.281 3.421,-2.281 2.186,0 4.562,1.141 4.562,1.141 L 0,0 z m 2.091,-16.156 -0.856,0 c -1.14,0.19 -2.185,0.855 -2.756,1.995 -0.855,1.616 -0.285,4.657 -0.285,4.847 l 0.951,8.079 c -0.856,-0.381 -2.566,-0.951 -4.277,-0.951 -2.091,0 -3.516,0.951 -4.087,2.756 -0.19,0.665 -0.19,1.046 0,1.236 0.095,0.095 0.19,0.19 0.381,0.19 l 0.095,0 8.173,0 5.322,0 0.19,0 10.074,0 3.706,0 c 1.711,0 1.901,0 2.091,-0.095 0.095,0 0.095,-0.095 0.095,-0.095 0.19,-0.285 0.19,-0.666 0,-1.236 -0.57,-1.805 -1.996,-2.756 -3.991,-2.756 -1.616,0 -3.327,0.57 -4.182,0.951 l 0.95,-8.079 c 0,-0.095 0.571,-3.136 -0.285,-4.751 -0.57,-1.141 -1.52,-1.806 -2.756,-1.996 l -0.855,0 -0.761,0 c -2.47,0 -5.512,-0.095 -6.937,-0.095"
               inkscape:connector-curvature="0" />
          </g>
          <g
             transform="translate(87.6531,139.3242)"
             id="g7683">
            <path
               id="path7685"
               style="fill:#ffffff;fill-opacity:1;fill-rule:nonzero;stroke:none"
               d="m 0,0 0.76,0 6.558,0 0.285,0 0.76,0 0.761,0 c 0.57,0.095 1.425,0.38 1.995,1.521 0.476,0.95 0.38,2.851 0.19,4.181 l -1.14,9.884 0.95,-0.475 c 0,0 2.281,-1.141 4.372,-1.141 1.711,0 2.661,0.666 3.136,2.091 0,0.095 0.095,0.19 0.095,0.285 l -0.095,0 -1.235,0 -3.231,0 -0.666,0 -10.074,0 -0.38,0 -6.557,0 -6.178,0 c 0,-0.095 0,-0.095 0.095,-0.19 0.475,-1.425 1.521,-2.091 3.232,-2.091 2.09,0 4.466,1.141 4.466,1.141 l 0.951,0.475 -1.331,-9.884 c 0,0 -0.57,-2.946 0.19,-4.181 C -1.711,0.665 -0.95,0.19 0,0 m 0.665,-0.38 -0.76,0 c -1.045,0.095 -1.901,0.76 -2.376,1.711 -0.76,1.425 -0.19,4.466 -0.19,4.466 l 1.045,9.029 -0.285,-0.095 c 0,0 -2.376,-1.141 -4.657,-1.141 -1.9,0 -3.041,0.761 -3.611,2.376 -0.095,0.19 -0.095,0.38 -0.095,0.57 l 0,0.286 0.285,0 6.463,0 6.747,0 0.19,0 10.074,0 0.666,0 3.231,0 1.33,0 0.475,0 0,-0.191 c 0,-0.095 -0.095,-0.285 -0.095,-0.57 -0.475,-1.615 -1.615,-2.376 -3.516,-2.376 -2.186,0 -4.562,1.141 -4.562,1.141 l -0.38,0.095 1.046,-9.029 C 11.785,5.417 12.165,2.756 11.499,1.426 10.834,0.095 9.789,-0.19 9.219,-0.285 l -0.856,0 -1.045,0 C 4.942,-0.38 2.091,-0.38 0.665,-0.38 m -2.756,14.636 -0.95,-8.459 c 0,0 -0.57,-3.136 0.19,-4.657 0.57,-1.045 1.52,-1.71 2.566,-1.9 l 0.855,0 6.938,0 0.76,0 0.856,0 c 1.045,0.095 1.995,0.76 2.566,1.9 0.76,1.521 0.19,4.657 0.19,4.657 l -0.951,8.459 0.285,-0.095 c 0.856,-0.381 2.471,-0.951 4.087,-0.951 1.996,0 3.326,0.951 3.801,2.661 0.191,0.57 0.191,0.856 0.095,1.046 l -0.095,0.095 c -0.095,0.095 -0.76,0.095 -1.9,0.095 l -2.471,0 -1.616,0 -9.694,0 -0.285,0 -0.095,0 -5.702,0 -7.698,0 -0.095,0 c -0.095,0 -0.19,-0.095 -0.19,-0.095 -0.095,-0.19 -0.095,-0.571 0.095,-1.046 0.57,-1.71 1.901,-2.661 3.896,-2.661 1.616,0 3.327,0.57 4.182,0.951 l 0.38,0 z m 2.756,-15.396 -0.95,0 c -1.236,0.19 -2.281,0.855 -2.946,2.09 -0.856,1.711 -0.285,4.942 -0.285,4.942 l 0.855,7.698 c -0.95,-0.38 -2.471,-0.855 -3.992,-0.855 -2.185,0 -3.706,1.045 -4.276,2.946 -0.19,0.665 -0.19,1.141 0,1.426 0.095,0.19 0.285,0.285 0.475,0.285 l 0.19,0 7.698,0 5.892,0 0.57,0 9.314,0 1.616,0 2.471,0 c 1.805,0 1.995,0 2.186,-0.19 0,0 0.095,-0.095 0.19,-0.19 0.19,-0.285 0.19,-0.761 0,-1.426 -0.571,-1.901 -2.091,-2.946 -4.182,-2.946 -1.521,0 -3.041,0.475 -3.897,0.855 L 12.45,5.702 c 0,-0.095 0.57,-3.231 -0.285,-4.847 -0.666,-1.235 -1.616,-1.995 -2.851,-2.09 l -0.951,0 -0.76,0 C 5.132,-1.14 2.091,-1.14 0.665,-1.14"
               inkscape:connector-curvature="0" />
          </g>
          <g
             transform="translate(96.9351,160.2526)"
             id="g7687">
            <path
               id="path7689"
               style="fill:#ffffff;fill-opacity:1;fill-rule:nonzero;stroke:none"
               d="M 0,0 0.673,-0.354 -1.273,-4.055 -1.946,-3.702 0,0 z"
               inkscape:connector-curvature="0" />
          </g>
          <g
             transform="translate(95.2561,156.716)"
             id="g7691">
            <path
               id="path7693"
               style="fill:#ffffff;fill-opacity:1;fill-rule:nonzero;stroke:none"
               d="M 0,0 0.285,-0.19 1.996,3.136 1.711,3.326 0,0 z M 0.475,-0.76 -0.57,-0.19 1.521,3.897 2.566,3.326 0.475,-0.76 z"
               inkscape:connector-curvature="0" />
          </g>
          <g
             transform="translate(88.1066,160.2718)"
             id="g7695">
            <path
               id="path7697"
               style="fill:#ffffff;fill-opacity:1;fill-rule:nonzero;stroke:none"
               d="M 0,0 1.947,-3.701 1.274,-4.055 -0.673,-0.354 0,0 z"
               inkscape:connector-curvature="0" />
          </g>
          <g
             transform="translate(87.7482,159.8522)"
             id="g7699">
            <path
               id="path7701"
               style="fill:#ffffff;fill-opacity:1;fill-rule:nonzero;stroke:none"
               d="M 0,0 1.711,-3.326 1.996,-3.136 0.285,0.19 0,0 z M 1.616,-3.897 -0.475,0.19 0.57,0.76 2.661,-3.326 1.616,-3.897 z"
               inkscape:connector-curvature="0" />
          </g>
          <g
             transform="translate(84.8977,144.3716)"
             id="g7703">
            <path
               id="path7705"
               style="fill:#ffffff;fill-opacity:1;fill-rule:nonzero;stroke:none"
               d="M 0,0 14.541,-0.021 14.54,-0.781 -0.001,-0.76 0,0 z"
               inkscape:connector-curvature="0" />
          </g>
          <path
             id="path7707"
             style="fill:#ffffff;fill-opacity:1;fill-rule:nonzero;stroke:none"
             d="m 85.087,143.886 14.161,0 0,0.38 -14.161,0 0,-0.38 z m 14.541,-0.475 -14.921,0 0,1.14 14.921,0 0,-1.14 z"
             inkscape:connector-curvature="0" />
          <g
             transform="translate(94.7809,150.9187)"
             id="g7709">
            <path
               id="path7711"
               style="fill:#ffffff;fill-opacity:1;fill-rule:nonzero;stroke:none"
               d="m 0,0 c -0.285,0 -0.475,-0.19 -0.475,-0.475 0,-0.285 0.19,-0.475 0.475,-0.475 0.285,0 0.475,0.19 0.475,0.475 C 0.57,-0.285 0.285,0 0,0 m 0,-1.806 c -0.665,0 -1.235,0.571 -1.235,1.236 0,0.665 0.57,1.235 1.235,1.235 0.665,0 1.235,-0.57 1.235,-1.235 C 1.235,-1.235 0.76,-1.806 0,-1.806"
               inkscape:connector-curvature="0" />
          </g>
          <g
             transform="translate(94.7809,150.7287)"
             id="g7713">
            <path
               id="path7715"
               style="fill:#ffffff;fill-opacity:1;fill-rule:nonzero;stroke:none"
               d="m 0,0 c -0.19,0 -0.285,-0.095 -0.285,-0.285 0,-0.19 0.095,-0.285 0.285,-0.285 0.19,0 0.285,0.095 0.285,0.285 C 0.285,-0.19 0.19,0 0,0 m 0,-1.045 c -0.38,0 -0.665,0.285 -0.665,0.665 C -0.665,0 -0.38,0.285 0,0.285 0.38,0.285 0.665,0 0.665,-0.38 0.76,-0.76 0.38,-1.045 0,-1.045 M 0,0.76 c -0.57,0 -1.045,-0.475 -1.045,-1.045 0,-0.57 0.475,-1.046 1.045,-1.046 0.57,0 1.045,0.476 1.045,1.046 C 1.045,0.285 0.57,0.76 0,0.76 m 0,-2.566 c -0.76,0 -1.426,0.666 -1.426,1.426 0,0.76 0.666,1.425 1.426,1.425 0.76,0 1.426,-0.665 1.426,-1.425 C 1.521,-1.14 0.855,-1.806 0,-1.806"
               inkscape:connector-curvature="0" />
          </g>
          <g
             transform="translate(89.934,150.9187)"
             id="g7717">
            <path
               id="path7719"
               style="fill:#ffffff;fill-opacity:1;fill-rule:nonzero;stroke:none"
               d="m 0,0 c -0.285,0 -0.475,-0.19 -0.475,-0.475 0,-0.285 0.19,-0.475 0.475,-0.475 0.285,0 0.475,0.19 0.475,0.475 C 0.475,-0.19 0.285,0 0,0 m 0,-1.711 c -0.665,0 -1.235,0.571 -1.235,1.236 0,0.665 0.57,1.235 1.235,1.235 0.665,0 1.235,-0.57 1.235,-1.235 0,-0.76 -0.57,-1.236 -1.235,-1.236"
               inkscape:connector-curvature="0" />
          </g>
          <g
             transform="translate(89.934,150.7287)"
             id="g7721">
            <path
               id="path7723"
               style="fill:#ffffff;fill-opacity:1;fill-rule:nonzero;stroke:none"
               d="m 0,0 c -0.19,0 -0.285,-0.095 -0.285,-0.285 0,-0.19 0.095,-0.285 0.285,-0.285 0.19,0 0.285,0.095 0.285,0.285 C 0.285,-0.095 0.095,0 0,0 m 0,-1.045 c -0.38,0 -0.665,0.285 -0.665,0.665 C -0.665,0 -0.38,0.285 0,0.285 0.38,0.285 0.665,0 0.665,-0.38 0.665,-0.665 0.38,-1.045 0,-1.045 M 0,0.76 c -0.57,0 -1.045,-0.475 -1.045,-1.045 0,-0.57 0.475,-1.046 1.045,-1.046 0.57,0 1.045,0.476 1.045,1.046 C 1.045,0.285 0.57,0.76 0,0.76 m 0,-2.566 c -0.76,0 -1.426,0.666 -1.426,1.426 0,0.76 0.666,1.425 1.426,1.425 0.76,0 1.426,-0.665 1.426,-1.425 C 1.426,-1.14 0.76,-1.806 0,-1.806"
               inkscape:connector-curvature="0" />
          </g>
          <g
             transform="translate(86.9588,156.6137)"
             id="g7725">
            <path
               id="path7727"
               style="fill:#ffffff;fill-opacity:1;fill-rule:nonzero;stroke:none"
               d="M 0,0 0.644,-0.404 -0.923,-2.899 -1.567,-2.495 0,0 z"
               inkscape:connector-curvature="0" />
          </g>
          <g
             transform="translate(85.7524,154.15)"
             id="g7729">
            <path
               id="path7731"
               style="fill:#ffffff;fill-opacity:1;fill-rule:nonzero;stroke:none"
               d="M 0,0 0.285,-0.19 1.616,1.996 1.331,2.186 0,0 z M 0.38,-0.76 -0.57,-0.095 1.235,2.756 2.186,2.186 0.38,-0.76 z"
               inkscape:connector-curvature="0" />
          </g>
          <g
             transform="translate(99.0086,154.1166)"
             id="g7733">
            <path
               id="path7735"
               style="fill:#ffffff;fill-opacity:1;fill-rule:nonzero;stroke:none"
               d="M 0,0 -0.644,-0.404 -2.211,2.09 -1.567,2.495 0,0 z"
               inkscape:connector-curvature="0" />
          </g>
          <g
             transform="translate(97.0618,156.1458)"
             id="g7737">
            <path
               id="path7739"
               style="fill:#ffffff;fill-opacity:1;fill-rule:nonzero;stroke:none"
               d="M 0,0 1.331,-2.186 1.616,-1.996 0.285,0.19 0,0 z m 1.235,-2.756 -1.805,2.851 0.95,0.57 1.806,-2.851 -0.951,-0.57 z"
               inkscape:connector-curvature="0" />
          </g>
          <g
             transform="translate(80.0502,163.6537)"
             id="g7741">
            <path
               id="path7743"
               style="fill:#ffffff;fill-opacity:1;fill-rule:nonzero;stroke:none"
               d="m 0,0 -3.326,-3.992 -0.856,0.666 -0.95,5.322 -2.091,-2.376 -0.76,0.57 3.136,3.802 0.76,-0.571 0.951,-5.417 L -0.855,0.76 0,0 z"
               inkscape:connector-curvature="0" />
          </g>
          <g
             transform="translate(81.4757,164.604)"
             id="g7745">
            <path
               id="path7747"
               style="fill:#ffffff;fill-opacity:1;fill-rule:nonzero;stroke:none"
               d="M 0,0 -3.231,5.227 0.855,7.793 1.331,6.938 -1.616,5.132 -0.855,3.897 1.235,5.227 1.711,4.372 -0.38,3.041 0.475,1.521 3.516,3.326 3.992,2.471 0,0 z"
               inkscape:connector-curvature="0" />
          </g>
          <g
             transform="translate(87.0829,167.6452)"
             id="g7749">
            <path
               id="path7751"
               style="fill:#ffffff;fill-opacity:1;fill-rule:nonzero;stroke:none"
               d="M 0,0 -0.95,6.082 0.475,6.272 3.992,2.566 3.421,6.748 4.752,6.938 5.702,0.855 4.372,0.665 0.76,4.562 1.426,0.19 0,0 z"
               inkscape:connector-curvature="0" />
          </g>
          <g
             transform="translate(98.7724,171.8269)"
             id="g7753">
            <path
               id="path7755"
               style="fill:#ffffff;fill-opacity:1;fill-rule:nonzero;stroke:none"
               d="M 0,0 C -0.095,0.475 -0.475,0.95 -1.045,1.14 -1.616,1.331 -2.091,1.235 -2.186,0.76 -2.471,-0.285 1.235,-0.95 0.76,-2.946 0.475,-4.182 -0.57,-4.562 -2.186,-4.182 c -1.14,0.285 -2.091,1.141 -2.281,2.091 l 1.236,0.095 c 0.19,-0.665 0.475,-1.14 1.33,-1.33 0.666,-0.19 1.236,-0.095 1.426,0.475 0.285,1.14 -3.422,1.901 -2.946,3.706 0.285,1.046 1.52,1.426 2.661,1.141 C 0.38,1.711 1.235,0.95 1.426,0 L 0,0 z"
               inkscape:connector-curvature="0" />
          </g>
          <g
             transform="translate(100.5782,166.5048)"
             id="g7757">
            <path
               id="path7759"
               style="fill:#ffffff;fill-opacity:1;fill-rule:nonzero;stroke:none"
               d="M 0,0 3.326,5.227 4.467,4.467 1.14,-0.76 0,0 z"
               inkscape:connector-curvature="0" />
          </g>
          <g
             transform="translate(103.9044,164.2239)"
             id="g7761">
            <path
               id="path7763"
               style="fill:#ffffff;fill-opacity:1;fill-rule:nonzero;stroke:none"
               d="M 0,0 4.657,4.087 7.888,0.475 7.128,-0.19 4.847,2.376 3.706,1.426 5.322,-0.475 4.562,-1.14 2.946,0.76 1.616,-0.38 3.992,-3.041 3.231,-3.706 0,0 z"
               inkscape:connector-curvature="0" />
          </g>
          <g
             transform="translate(81.8559,131.7212)"
             id="g7765">
            <path
               id="path7767"
               style="fill:#ffffff;fill-opacity:1;fill-rule:nonzero;stroke:none"
               d="m 0,0 c 0.665,-0.285 1.331,-0.475 1.616,0.095 0.19,0.38 0,0.76 -0.381,0.95 -0.38,0.19 -0.76,0.095 -1.14,-0.095 l -0.38,0.761 C 0.38,1.996 1.045,1.996 1.521,1.806 2.376,1.426 2.946,0.665 2.566,-0.19 2.376,-0.665 1.901,-0.95 1.331,-0.95 1.806,-1.426 1.901,-1.996 1.616,-2.661 1.14,-3.706 0.095,-3.801 -0.76,-3.421 c -0.666,0.285 -1.236,0.95 -1.236,1.71 l 0.856,0.095 c 0.095,-0.475 0.285,-0.855 0.76,-1.14 0.475,-0.19 0.95,-0.095 1.14,0.38 0.38,0.855 -0.475,1.236 -1.045,1.521 L 0,0 z"
               inkscape:connector-curvature="0" />
          </g>
          <g
             transform="translate(86.9879,127.2545)"
             id="g7769">
            <path
               id="path7771"
               style="fill:#ffffff;fill-opacity:1;fill-rule:nonzero;stroke:none"
               d="m 0,0 c 0.57,-0.095 1.045,0.285 1.331,1.806 0.285,1.52 0,2.091 -0.571,2.186 C 0.19,4.087 -0.285,3.706 -0.57,2.186 -0.855,0.665 -0.57,0.095 0,0 M 0.95,4.752 C 2.376,4.467 2.566,3.136 2.281,1.616 1.996,0.095 1.235,-1.045 -0.19,-0.76 -1.616,-0.475 -1.806,0.855 -1.521,2.376 -1.14,3.897 -0.38,5.037 0.95,4.752"
               inkscape:connector-curvature="0" />
          </g>
          <g
             transform="translate(91.2645,125.924)"
             id="g7773">
            <path
               id="path7775"
               style="fill:#ffffff;fill-opacity:1;fill-rule:nonzero;stroke:none"
               d="M 0,0 -0.38,5.512 1.045,5.607 2.281,1.806 3.041,5.702 4.467,5.797 4.847,0.285 3.992,0.19 3.801,4.562 2.851,0.095 2.091,0 0.665,4.277 0.95,-0.095 0,0 z"
               inkscape:connector-curvature="0" />
          </g>
          <g
             transform="translate(98.9625,126.7793)"
             id="g7777">
            <path
               id="path7779"
               style="fill:#ffffff;fill-opacity:1;fill-rule:nonzero;stroke:none"
               d="M 0,0 -1.806,5.227 -0.855,5.512 -0.095,3.421 1.806,4.087 1.045,6.177 1.996,6.463 3.801,1.235 2.851,0.95 2.091,3.231 0.19,2.566 0.95,0.285 0,0 z"
               inkscape:connector-curvature="0" />
          </g>
          <g
             transform="translate(102.764,132.5766)"
             id="g7781">
            <path
               id="path7783"
               style="fill:#ffffff;fill-opacity:1;fill-rule:nonzero;stroke:none"
               d="m 0,0 2.471,1.426 0.38,-0.571 -0.285,-3.136 1.616,0.95 0.38,-0.665 -2.566,-1.52 -0.38,0.57 L 1.901,0.19 0.475,-0.665 0,0 z"
               inkscape:connector-curvature="0" />
          </g>
          <g
             transform="translate(90.1241,141.5101)"
             id="g7785">
            <path
               id="path7787"
               style="fill:#ffffff;fill-opacity:1;fill-rule:nonzero;stroke:none"
               d="M 0,0 C 0.095,-0.38 0,-0.57 -0.38,-0.665 -0.665,-0.76 -1.14,-0.57 -1.235,-0.19 -1.331,0.19 -1.045,0.57 -0.76,0.57 -0.38,0.665 -0.095,0.38 0,0"
               inkscape:connector-curvature="0" />
          </g>
          <g
             transform="translate(89.6489,140.4646)"
             id="g7789">
            <path
               id="path7791"
               style="fill:#ffffff;fill-opacity:1;fill-rule:nonzero;stroke:none"
               d="M 0,0 C -0.57,0 -1.045,0.285 -1.045,0.76 -1.14,1.331 -0.76,1.901 -0.285,1.996 0.285,2.091 0.76,1.616 0.855,1.045 0.95,0.285 0.57,0 0.19,0 L 0,0 z"
               inkscape:connector-curvature="0" />
          </g>
        </g>
      </g>
    </g>
    <g
       id="g8005"
       inkscape:label="LOGOFINAL"
       transform="matrix(1.0625,0,0,-1.0625,-5.743791,1119.3369)">
      <g
         id="g8007">
        <g
           id="g8009"
           clip-path="url(#clipPath7655)">
          <g
             id="g8011"
             transform="translate(92.5,176.2936)">
            <path
               inkscape:connector-curvature="0"
               d="m 0,0 c 14.906,0 26.991,-12.084 26.991,-26.991 0,-14.906 -12.085,-26.99 -26.991,-26.99 -14.906,0 -26.991,12.084 -26.991,26.99 C -26.991,-12.084 -14.906,0 0,0"
               style="fill:#231f20;fill-opacity:1;fill-rule:nonzero;stroke:none"
               id="path8013" />
          </g>
          <g
             id="g8015"
             transform="translate(92.5,175.6283)">
            <path
               inkscape:connector-curvature="0"
               d="m 0,0 c -14.636,0 -26.515,-11.69 -26.515,-26.135 0,-14.446 11.879,-26.135 26.515,-26.135 14.636,0 26.515,11.784 26.515,26.135 C 26.515,-11.69 14.636,0 0,0 m 0,-53.791 c -15.396,0 -27.941,12.45 -27.941,27.656 0,15.301 12.545,27.656 27.941,27.656 15.396,0 27.941,-12.45 27.941,-27.656 0,-15.301 -12.545,-27.656 -27.941,-27.656"
               style="fill:#ffffff;fill-opacity:1;fill-rule:nonzero;stroke:none"
               id="path8017" />
          </g>
          <g
             id="g8019"
             transform="translate(92.1199,166.4097)">
            <path
               inkscape:connector-curvature="0"
               d="m 0,0 c -8.838,0 -16.061,-7.223 -16.061,-16.061 0,-8.839 7.223,-16.061 16.061,-16.061 8.838,0 16.061,7.222 16.061,16.061 C 16.061,-7.223 8.838,0 0,0 m 0,-32.788 c -9.219,0 -16.727,7.508 -16.727,16.727 0,9.218 7.508,16.726 16.727,16.726 9.219,0 16.727,-7.508 16.727,-16.726 C 16.822,-25.28 9.314,-32.788 0,-32.788"
               style="fill:#ffffff;fill-opacity:1;fill-rule:nonzero;stroke:none"
               id="path8021" />
          </g>
          <g
             id="g8023"
             transform="translate(95.2561,141.32)">
            <path
               inkscape:connector-curvature="0"
               d="m 0,0 c 0,-0.38 -0.095,-0.57 -0.475,-0.57 -0.285,0 -0.76,0.19 -0.76,0.57 0,0.38 0.285,0.76 0.57,0.76 C -0.19,0.76 0,0.475 0,0"
               style="fill:#ffffff;fill-opacity:1;fill-rule:nonzero;stroke:none"
               id="path8025" />
          </g>
          <g
             id="g8027"
             transform="translate(94.8759,140.3696)">
            <path
               inkscape:connector-curvature="0"
               d="m 0,0 c -0.57,0 -1.14,0.38 -1.14,0.95 0,0.571 0.475,1.046 0.95,1.046 0.57,0 0.95,-0.475 0.95,-1.046 C 0.76,0.19 0.38,0 0,0"
               style="fill:#ffffff;fill-opacity:1;fill-rule:nonzero;stroke:none"
               id="path8029" />
          </g>
          <g
             id="g8031"
             transform="translate(86.2276,154.5301)">
            <path
               inkscape:connector-curvature="0"
               d="m 0,0 -1.045,-9.409 c 0,-0.095 -0.571,-2.946 0.19,-4.371 0.475,-0.951 1.235,-1.521 2.186,-1.616 l 0.76,0 6.652,0 0.286,0 0.76,0 0.855,0 c 0.665,0.095 1.521,0.38 2.091,1.616 0.665,1.33 0.19,4.276 0.19,4.276 l -1.045,9.409 0.57,-0.19 c 0,0 2.281,-1.141 4.467,-1.141 1.805,0 2.851,0.761 3.326,2.281 0.095,0.285 0.095,0.38 0.095,0.571 l -0.285,0 -1.331,0 -3.706,0 -10.264,0 -0.285,0 -5.037,0 -8.078,0 c 0,-0.095 0,-0.286 0.095,-0.476 0.475,-1.52 1.615,-2.281 3.421,-2.281 2.186,0 4.562,1.141 4.562,1.141 L 0,0 z m 2.091,-16.156 -0.856,0 c -1.14,0.19 -2.185,0.855 -2.756,1.995 -0.855,1.616 -0.285,4.657 -0.285,4.847 l 0.951,8.079 c -0.856,-0.381 -2.566,-0.951 -4.277,-0.951 -2.091,0 -3.516,0.951 -4.087,2.756 -0.19,0.665 -0.19,1.046 0,1.236 0.095,0.095 0.19,0.19 0.381,0.19 l 0.095,0 8.173,0 5.322,0 0.19,0 10.074,0 3.706,0 c 1.711,0 1.901,0 2.091,-0.095 0.095,0 0.095,-0.095 0.095,-0.095 0.19,-0.285 0.19,-0.666 0,-1.236 -0.57,-1.805 -1.996,-2.756 -3.991,-2.756 -1.616,0 -3.327,0.57 -4.182,0.951 l 0.95,-8.079 c 0,-0.095 0.571,-3.136 -0.285,-4.751 -0.57,-1.141 -1.52,-1.806 -2.756,-1.996 l -0.855,0 -0.761,0 c -2.47,0 -5.512,-0.095 -6.937,-0.095"
               style="fill:#ffffff;fill-opacity:1;fill-rule:nonzero;stroke:none"
               id="path8033" />
          </g>
          <g
             id="g8035"
             transform="translate(87.6531,139.3242)">
            <path
               inkscape:connector-curvature="0"
               d="m 0,0 0.76,0 6.558,0 0.285,0 0.76,0 0.761,0 c 0.57,0.095 1.425,0.38 1.995,1.521 0.476,0.95 0.38,2.851 0.19,4.181 l -1.14,9.884 0.95,-0.475 c 0,0 2.281,-1.141 4.372,-1.141 1.711,0 2.661,0.666 3.136,2.091 0,0.095 0.095,0.19 0.095,0.285 l -0.095,0 -1.235,0 -3.231,0 -0.666,0 -10.074,0 -0.38,0 -6.557,0 -6.178,0 c 0,-0.095 0,-0.095 0.095,-0.19 0.475,-1.425 1.521,-2.091 3.232,-2.091 2.09,0 4.466,1.141 4.466,1.141 l 0.951,0.475 -1.331,-9.884 c 0,0 -0.57,-2.946 0.19,-4.181 C -1.711,0.665 -0.95,0.19 0,0 m 0.665,-0.38 -0.76,0 c -1.045,0.095 -1.901,0.76 -2.376,1.711 -0.76,1.425 -0.19,4.466 -0.19,4.466 l 1.045,9.029 -0.285,-0.095 c 0,0 -2.376,-1.141 -4.657,-1.141 -1.9,0 -3.041,0.761 -3.611,2.376 -0.095,0.19 -0.095,0.38 -0.095,0.57 l 0,0.286 0.285,0 6.463,0 6.747,0 0.19,0 10.074,0 0.666,0 3.231,0 1.33,0 0.475,0 0,-0.191 c 0,-0.095 -0.095,-0.285 -0.095,-0.57 -0.475,-1.615 -1.615,-2.376 -3.516,-2.376 -2.186,0 -4.562,1.141 -4.562,1.141 l -0.38,0.095 1.046,-9.029 C 11.785,5.417 12.165,2.756 11.499,1.426 10.834,0.095 9.789,-0.19 9.219,-0.285 l -0.856,0 -1.045,0 C 4.942,-0.38 2.091,-0.38 0.665,-0.38 m -2.756,14.636 -0.95,-8.459 c 0,0 -0.57,-3.136 0.19,-4.657 0.57,-1.045 1.52,-1.71 2.566,-1.9 l 0.855,0 6.938,0 0.76,0 0.856,0 c 1.045,0.095 1.995,0.76 2.566,1.9 0.76,1.521 0.19,4.657 0.19,4.657 l -0.951,8.459 0.285,-0.095 c 0.856,-0.381 2.471,-0.951 4.087,-0.951 1.996,0 3.326,0.951 3.801,2.661 0.191,0.57 0.191,0.856 0.095,1.046 l -0.095,0.095 c -0.095,0.095 -0.76,0.095 -1.9,0.095 l -2.471,0 -1.616,0 -9.694,0 -0.285,0 -0.095,0 -5.702,0 -7.698,0 -0.095,0 c -0.095,0 -0.19,-0.095 -0.19,-0.095 -0.095,-0.19 -0.095,-0.571 0.095,-1.046 0.57,-1.71 1.901,-2.661 3.896,-2.661 1.616,0 3.327,0.57 4.182,0.951 l 0.38,0 z m 2.756,-15.396 -0.95,0 c -1.236,0.19 -2.281,0.855 -2.946,2.09 -0.856,1.711 -0.285,4.942 -0.285,4.942 l 0.855,7.698 c -0.95,-0.38 -2.471,-0.855 -3.992,-0.855 -2.185,0 -3.706,1.045 -4.276,2.946 -0.19,0.665 -0.19,1.141 0,1.426 0.095,0.19 0.285,0.285 0.475,0.285 l 0.19,0 7.698,0 5.892,0 0.57,0 9.314,0 1.616,0 2.471,0 c 1.805,0 1.995,0 2.186,-0.19 0,0 0.095,-0.095 0.19,-0.19 0.19,-0.285 0.19,-0.761 0,-1.426 -0.571,-1.901 -2.091,-2.946 -4.182,-2.946 -1.521,0 -3.041,0.475 -3.897,0.855 L 12.45,5.702 c 0,-0.095 0.57,-3.231 -0.285,-4.847 -0.666,-1.235 -1.616,-1.995 -2.851,-2.09 l -0.951,0 -0.76,0 C 5.132,-1.14 2.091,-1.14 0.665,-1.14"
               style="fill:#ffffff;fill-opacity:1;fill-rule:nonzero;stroke:none"
               id="path8037" />
          </g>
          <g
             id="g8039"
             transform="translate(96.9351,160.2526)">
            <path
               inkscape:connector-curvature="0"
               d="M 0,0 0.673,-0.354 -1.273,-4.055 -1.946,-3.702 0,0 z"
               style="fill:#ffffff;fill-opacity:1;fill-rule:nonzero;stroke:none"
               id="path8041" />
          </g>
          <g
             id="g8043"
             transform="translate(95.2561,156.716)">
            <path
               inkscape:connector-curvature="0"
               d="M 0,0 0.285,-0.19 1.996,3.136 1.711,3.326 0,0 z M 0.475,-0.76 -0.57,-0.19 1.521,3.897 2.566,3.326 0.475,-0.76 z"
               style="fill:#ffffff;fill-opacity:1;fill-rule:nonzero;stroke:none"
               id="path8045" />
          </g>
          <g
             id="g8047"
             transform="translate(88.1066,160.2718)">
            <path
               inkscape:connector-curvature="0"
               d="M 0,0 1.947,-3.701 1.274,-4.055 -0.673,-0.354 0,0 z"
               style="fill:#ffffff;fill-opacity:1;fill-rule:nonzero;stroke:none"
               id="path8049" />
          </g>
          <g
             id="g8051"
             transform="translate(87.7482,159.8522)">
            <path
               inkscape:connector-curvature="0"
               d="M 0,0 1.711,-3.326 1.996,-3.136 0.285,0.19 0,0 z M 1.616,-3.897 -0.475,0.19 0.57,0.76 2.661,-3.326 1.616,-3.897 z"
               style="fill:#ffffff;fill-opacity:1;fill-rule:nonzero;stroke:none"
               id="path8053" />
          </g>
          <g
             id="g8055"
             transform="translate(84.8977,144.3716)">
            <path
               inkscape:connector-curvature="0"
               d="M 0,0 14.541,-0.021 14.54,-0.781 -0.001,-0.76 0,0 z"
               style="fill:#ffffff;fill-opacity:1;fill-rule:nonzero;stroke:none"
               id="path8057" />
          </g>
          <path
             inkscape:connector-curvature="0"
             d="m 85.087,143.886 14.161,0 0,0.38 -14.161,0 0,-0.38 z m 14.541,-0.475 -14.921,0 0,1.14 14.921,0 0,-1.14 z"
             style="fill:#ffffff;fill-opacity:1;fill-rule:nonzero;stroke:none"
             id="path8059" />
          <g
             id="g8061"
             transform="translate(94.7809,150.9187)">
            <path
               inkscape:connector-curvature="0"
               d="m 0,0 c -0.285,0 -0.475,-0.19 -0.475,-0.475 0,-0.285 0.19,-0.475 0.475,-0.475 0.285,0 0.475,0.19 0.475,0.475 C 0.57,-0.285 0.285,0 0,0 m 0,-1.806 c -0.665,0 -1.235,0.571 -1.235,1.236 0,0.665 0.57,1.235 1.235,1.235 0.665,0 1.235,-0.57 1.235,-1.235 C 1.235,-1.235 0.76,-1.806 0,-1.806"
               style="fill:#ffffff;fill-opacity:1;fill-rule:nonzero;stroke:none"
               id="path8063" />
          </g>
          <g
             id="g8065"
             transform="translate(94.7809,150.7287)">
            <path
               inkscape:connector-curvature="0"
               d="m 0,0 c -0.19,0 -0.285,-0.095 -0.285,-0.285 0,-0.19 0.095,-0.285 0.285,-0.285 0.19,0 0.285,0.095 0.285,0.285 C 0.285,-0.19 0.19,0 0,0 m 0,-1.045 c -0.38,0 -0.665,0.285 -0.665,0.665 C -0.665,0 -0.38,0.285 0,0.285 0.38,0.285 0.665,0 0.665,-0.38 0.76,-0.76 0.38,-1.045 0,-1.045 M 0,0.76 c -0.57,0 -1.045,-0.475 -1.045,-1.045 0,-0.57 0.475,-1.046 1.045,-1.046 0.57,0 1.045,0.476 1.045,1.046 C 1.045,0.285 0.57,0.76 0,0.76 m 0,-2.566 c -0.76,0 -1.426,0.666 -1.426,1.426 0,0.76 0.666,1.425 1.426,1.425 0.76,0 1.426,-0.665 1.426,-1.425 C 1.521,-1.14 0.855,-1.806 0,-1.806"
               style="fill:#ffffff;fill-opacity:1;fill-rule:nonzero;stroke:none"
               id="path8067" />
          </g>
          <g
             id="g8069"
             transform="translate(89.934,150.9187)">
            <path
               inkscape:connector-curvature="0"
               d="m 0,0 c -0.285,0 -0.475,-0.19 -0.475,-0.475 0,-0.285 0.19,-0.475 0.475,-0.475 0.285,0 0.475,0.19 0.475,0.475 C 0.475,-0.19 0.285,0 0,0 m 0,-1.711 c -0.665,0 -1.235,0.571 -1.235,1.236 0,0.665 0.57,1.235 1.235,1.235 0.665,0 1.235,-0.57 1.235,-1.235 0,-0.76 -0.57,-1.236 -1.235,-1.236"
               style="fill:#ffffff;fill-opacity:1;fill-rule:nonzero;stroke:none"
               id="path8071" />
          </g>
          <g
             id="g8073"
             transform="translate(89.934,150.7287)">
            <path
               inkscape:connector-curvature="0"
               d="m 0,0 c -0.19,0 -0.285,-0.095 -0.285,-0.285 0,-0.19 0.095,-0.285 0.285,-0.285 0.19,0 0.285,0.095 0.285,0.285 C 0.285,-0.095 0.095,0 0,0 m 0,-1.045 c -0.38,0 -0.665,0.285 -0.665,0.665 C -0.665,0 -0.38,0.285 0,0.285 0.38,0.285 0.665,0 0.665,-0.38 0.665,-0.665 0.38,-1.045 0,-1.045 M 0,0.76 c -0.57,0 -1.045,-0.475 -1.045,-1.045 0,-0.57 0.475,-1.046 1.045,-1.046 0.57,0 1.045,0.476 1.045,1.046 C 1.045,0.285 0.57,0.76 0,0.76 m 0,-2.566 c -0.76,0 -1.426,0.666 -1.426,1.426 0,0.76 0.666,1.425 1.426,1.425 0.76,0 1.426,-0.665 1.426,-1.425 C 1.426,-1.14 0.76,-1.806 0,-1.806"
               style="fill:#ffffff;fill-opacity:1;fill-rule:nonzero;stroke:none"
               id="path8075" />
          </g>
          <g
             id="g8077"
             transform="translate(86.9588,156.6137)">
            <path
               inkscape:connector-curvature="0"
               d="M 0,0 0.644,-0.404 -0.923,-2.899 -1.567,-2.495 0,0 z"
               style="fill:#ffffff;fill-opacity:1;fill-rule:nonzero;stroke:none"
               id="path8079" />
          </g>
          <g
             id="g8081"
             transform="translate(85.7524,154.15)">
            <path
               inkscape:connector-curvature="0"
               d="M 0,0 0.285,-0.19 1.616,1.996 1.331,2.186 0,0 z M 0.38,-0.76 -0.57,-0.095 1.235,2.756 2.186,2.186 0.38,-0.76 z"
               style="fill:#ffffff;fill-opacity:1;fill-rule:nonzero;stroke:none"
               id="path8083" />
          </g>
          <g
             id="g8085"
             transform="translate(99.0086,154.1166)">
            <path
               inkscape:connector-curvature="0"
               d="M 0,0 -0.644,-0.404 -2.211,2.09 -1.567,2.495 0,0 z"
               style="fill:#ffffff;fill-opacity:1;fill-rule:nonzero;stroke:none"
               id="path8087" />
          </g>
          <g
             id="g8089"
             transform="translate(97.0618,156.1458)">
            <path
               inkscape:connector-curvature="0"
               d="M 0,0 1.331,-2.186 1.616,-1.996 0.285,0.19 0,0 z m 1.235,-2.756 -1.805,2.851 0.95,0.57 1.806,-2.851 -0.951,-0.57 z"
               style="fill:#ffffff;fill-opacity:1;fill-rule:nonzero;stroke:none"
               id="path8091" />
          </g>
          <g
             id="g8093"
             transform="translate(80.0502,163.6537)">
            <path
               inkscape:connector-curvature="0"
               d="m 0,0 -3.326,-3.992 -0.856,0.666 -0.95,5.322 -2.091,-2.376 -0.76,0.57 3.136,3.802 0.76,-0.571 0.951,-5.417 L -0.855,0.76 0,0 z"
               style="fill:#ffffff;fill-opacity:1;fill-rule:nonzero;stroke:none"
               id="path8095" />
          </g>
          <g
             id="g8097"
             transform="translate(81.4757,164.604)">
            <path
               inkscape:connector-curvature="0"
               d="M 0,0 -3.231,5.227 0.855,7.793 1.331,6.938 -1.616,5.132 -0.855,3.897 1.235,5.227 1.711,4.372 -0.38,3.041 0.475,1.521 3.516,3.326 3.992,2.471 0,0 z"
               style="fill:#ffffff;fill-opacity:1;fill-rule:nonzero;stroke:none"
               id="path8099" />
          </g>
          <g
             id="g8101"
             transform="translate(87.0829,167.6452)">
            <path
               inkscape:connector-curvature="0"
               d="M 0,0 -0.95,6.082 0.475,6.272 3.992,2.566 3.421,6.748 4.752,6.938 5.702,0.855 4.372,0.665 0.76,4.562 1.426,0.19 0,0 z"
               style="fill:#ffffff;fill-opacity:1;fill-rule:nonzero;stroke:none"
               id="path8103" />
          </g>
          <g
             id="g8105"
             transform="translate(98.7724,171.8269)">
            <path
               inkscape:connector-curvature="0"
               d="M 0,0 C -0.095,0.475 -0.475,0.95 -1.045,1.14 -1.616,1.331 -2.091,1.235 -2.186,0.76 -2.471,-0.285 1.235,-0.95 0.76,-2.946 0.475,-4.182 -0.57,-4.562 -2.186,-4.182 c -1.14,0.285 -2.091,1.141 -2.281,2.091 l 1.236,0.095 c 0.19,-0.665 0.475,-1.14 1.33,-1.33 0.666,-0.19 1.236,-0.095 1.426,0.475 0.285,1.14 -3.422,1.901 -2.946,3.706 0.285,1.046 1.52,1.426 2.661,1.141 C 0.38,1.711 1.235,0.95 1.426,0 L 0,0 z"
               style="fill:#ffffff;fill-opacity:1;fill-rule:nonzero;stroke:none"
               id="path8107" />
          </g>
          <g
             id="g8109"
             transform="translate(100.5782,166.5048)">
            <path
               inkscape:connector-curvature="0"
               d="M 0,0 3.326,5.227 4.467,4.467 1.14,-0.76 0,0 z"
               style="fill:#ffffff;fill-opacity:1;fill-rule:nonzero;stroke:none"
               id="path8111" />
          </g>
          <g
             id="g8113"
             transform="translate(103.9044,164.2239)">
            <path
               inkscape:connector-curvature="0"
               d="M 0,0 4.657,4.087 7.888,0.475 7.128,-0.19 4.847,2.376 3.706,1.426 5.322,-0.475 4.562,-1.14 2.946,0.76 1.616,-0.38 3.992,-3.041 3.231,-3.706 0,0 z"
               style="fill:#ffffff;fill-opacity:1;fill-rule:nonzero;stroke:none"
               id="path8115" />
          </g>
          <g
             id="g8117"
             transform="translate(81.8559,131.7212)">
            <path
               inkscape:connector-curvature="0"
               d="m 0,0 c 0.665,-0.285 1.331,-0.475 1.616,0.095 0.19,0.38 0,0.76 -0.381,0.95 -0.38,0.19 -0.76,0.095 -1.14,-0.095 l -0.38,0.761 C 0.38,1.996 1.045,1.996 1.521,1.806 2.376,1.426 2.946,0.665 2.566,-0.19 2.376,-0.665 1.901,-0.95 1.331,-0.95 1.806,-1.426 1.901,-1.996 1.616,-2.661 1.14,-3.706 0.095,-3.801 -0.76,-3.421 c -0.666,0.285 -1.236,0.95 -1.236,1.71 l 0.856,0.095 c 0.095,-0.475 0.285,-0.855 0.76,-1.14 0.475,-0.19 0.95,-0.095 1.14,0.38 0.38,0.855 -0.475,1.236 -1.045,1.521 L 0,0 z"
               style="fill:#ffffff;fill-opacity:1;fill-rule:nonzero;stroke:none"
               id="path8119" />
          </g>
          <g
             id="g8121"
             transform="translate(86.9879,127.2545)">
            <path
               inkscape:connector-curvature="0"
               d="m 0,0 c 0.57,-0.095 1.045,0.285 1.331,1.806 0.285,1.52 0,2.091 -0.571,2.186 C 0.19,4.087 -0.285,3.706 -0.57,2.186 -0.855,0.665 -0.57,0.095 0,0 M 0.95,4.752 C 2.376,4.467 2.566,3.136 2.281,1.616 1.996,0.095 1.235,-1.045 -0.19,-0.76 -1.616,-0.475 -1.806,0.855 -1.521,2.376 -1.14,3.897 -0.38,5.037 0.95,4.752"
               style="fill:#ffffff;fill-opacity:1;fill-rule:nonzero;stroke:none"
               id="path8123" />
          </g>
          <g
             id="g8125"
             transform="translate(91.2645,125.924)">
            <path
               inkscape:connector-curvature="0"
               d="M 0,0 -0.38,5.512 1.045,5.607 2.281,1.806 3.041,5.702 4.467,5.797 4.847,0.285 3.992,0.19 3.801,4.562 2.851,0.095 2.091,0 0.665,4.277 0.95,-0.095 0,0 z"
               style="fill:#ffffff;fill-opacity:1;fill-rule:nonzero;stroke:none"
               id="path8127" />
          </g>
          <g
             id="g8129"
             transform="translate(98.9625,126.7793)">
            <path
               inkscape:connector-curvature="0"
               d="M 0,0 -1.806,5.227 -0.855,5.512 -0.095,3.421 1.806,4.087 1.045,6.177 1.996,6.463 3.801,1.235 2.851,0.95 2.091,3.231 0.19,2.566 0.95,0.285 0,0 z"
               style="fill:#ffffff;fill-opacity:1;fill-rule:nonzero;stroke:none"
               id="path8131" />
          </g>
          <g
             id="g8133"
             transform="translate(102.764,132.5766)">
            <path
               inkscape:connector-curvature="0"
               d="m 0,0 2.471,1.426 0.38,-0.571 -0.285,-3.136 1.616,0.95 0.38,-0.665 -2.566,-1.52 -0.38,0.57 L 1.901,0.19 0.475,-0.665 0,0 z"
               style="fill:#ffffff;fill-opacity:1;fill-rule:nonzero;stroke:none"
               id="path8135" />
          </g>
          <g
             id="g8137"
             transform="translate(90.1241,141.5101)">
            <path
               inkscape:connector-curvature="0"
               d="M 0,0 C 0.095,-0.38 0,-0.57 -0.38,-0.665 -0.665,-0.76 -1.14,-0.57 -1.235,-0.19 -1.331,0.19 -1.045,0.57 -0.76,0.57 -0.38,0.665 -0.095,0.38 0,0"
               style="fill:#ffffff;fill-opacity:1;fill-rule:nonzero;stroke:none"
               id="path8139" />
          </g>
          <g
             id="g8141"
             transform="translate(89.6489,140.4646)">
            <path
               inkscape:connector-curvature="0"
               d="M 0,0 C -0.57,0 -1.045,0.285 -1.045,0.76 -1.14,1.331 -0.76,1.901 -0.285,1.996 0.285,2.091 0.76,1.616 0.855,1.045 0.95,0.285 0.57,0 0.19,0 L 0,0 z"
               style="fill:#ffffff;fill-opacity:1;fill-rule:nonzero;stroke:none"
               id="path8143" />
          </g>
        </g>
      </g>
    </g>
    <g
       transform="matrix(1.0625,0,0,-1.0625,-5.743791,1178.3369)"
       inkscape:label="LOGOFINAL"
       id="g8145">
      <g
         id="g8147">
        <g
           clip-path="url(#clipPath7655)"
           id="g8149">
          <g
             transform="translate(92.5,176.2936)"
             id="g8151">
            <path
               id="path8153"
               style="fill:#231f20;fill-opacity:1;fill-rule:nonzero;stroke:none"
               d="m 0,0 c 14.906,0 26.991,-12.084 26.991,-26.991 0,-14.906 -12.085,-26.99 -26.991,-26.99 -14.906,0 -26.991,12.084 -26.991,26.99 C -26.991,-12.084 -14.906,0 0,0"
               inkscape:connector-curvature="0" />
          </g>
          <g
             transform="translate(92.5,175.6283)"
             id="g8155">
            <path
               id="path8157"
               style="fill:#ffffff;fill-opacity:1;fill-rule:nonzero;stroke:none"
               d="m 0,0 c -14.636,0 -26.515,-11.69 -26.515,-26.135 0,-14.446 11.879,-26.135 26.515,-26.135 14.636,0 26.515,11.784 26.515,26.135 C 26.515,-11.69 14.636,0 0,0 m 0,-53.791 c -15.396,0 -27.941,12.45 -27.941,27.656 0,15.301 12.545,27.656 27.941,27.656 15.396,0 27.941,-12.45 27.941,-27.656 0,-15.301 -12.545,-27.656 -27.941,-27.656"
               inkscape:connector-curvature="0" />
          </g>
          <g
             transform="translate(92.1199,166.4097)"
             id="g8159">
            <path
               id="path8161"
               style="fill:#ffffff;fill-opacity:1;fill-rule:nonzero;stroke:none"
               d="m 0,0 c -8.838,0 -16.061,-7.223 -16.061,-16.061 0,-8.839 7.223,-16.061 16.061,-16.061 8.838,0 16.061,7.222 16.061,16.061 C 16.061,-7.223 8.838,0 0,0 m 0,-32.788 c -9.219,0 -16.727,7.508 -16.727,16.727 0,9.218 7.508,16.726 16.727,16.726 9.219,0 16.727,-7.508 16.727,-16.726 C 16.822,-25.28 9.314,-32.788 0,-32.788"
               inkscape:connector-curvature="0" />
          </g>
          <g
             transform="translate(95.2561,141.32)"
             id="g8163">
            <path
               id="path8165"
               style="fill:#ffffff;fill-opacity:1;fill-rule:nonzero;stroke:none"
               d="m 0,0 c 0,-0.38 -0.095,-0.57 -0.475,-0.57 -0.285,0 -0.76,0.19 -0.76,0.57 0,0.38 0.285,0.76 0.57,0.76 C -0.19,0.76 0,0.475 0,0"
               inkscape:connector-curvature="0" />
          </g>
          <g
             transform="translate(94.8759,140.3696)"
             id="g8167">
            <path
               id="path8169"
               style="fill:#ffffff;fill-opacity:1;fill-rule:nonzero;stroke:none"
               d="m 0,0 c -0.57,0 -1.14,0.38 -1.14,0.95 0,0.571 0.475,1.046 0.95,1.046 0.57,0 0.95,-0.475 0.95,-1.046 C 0.76,0.19 0.38,0 0,0"
               inkscape:connector-curvature="0" />
          </g>
          <g
             transform="translate(86.2276,154.5301)"
             id="g8171">
            <path
               id="path8173"
               style="fill:#ffffff;fill-opacity:1;fill-rule:nonzero;stroke:none"
               d="m 0,0 -1.045,-9.409 c 0,-0.095 -0.571,-2.946 0.19,-4.371 0.475,-0.951 1.235,-1.521 2.186,-1.616 l 0.76,0 6.652,0 0.286,0 0.76,0 0.855,0 c 0.665,0.095 1.521,0.38 2.091,1.616 0.665,1.33 0.19,4.276 0.19,4.276 l -1.045,9.409 0.57,-0.19 c 0,0 2.281,-1.141 4.467,-1.141 1.805,0 2.851,0.761 3.326,2.281 0.095,0.285 0.095,0.38 0.095,0.571 l -0.285,0 -1.331,0 -3.706,0 -10.264,0 -0.285,0 -5.037,0 -8.078,0 c 0,-0.095 0,-0.286 0.095,-0.476 0.475,-1.52 1.615,-2.281 3.421,-2.281 2.186,0 4.562,1.141 4.562,1.141 L 0,0 z m 2.091,-16.156 -0.856,0 c -1.14,0.19 -2.185,0.855 -2.756,1.995 -0.855,1.616 -0.285,4.657 -0.285,4.847 l 0.951,8.079 c -0.856,-0.381 -2.566,-0.951 -4.277,-0.951 -2.091,0 -3.516,0.951 -4.087,2.756 -0.19,0.665 -0.19,1.046 0,1.236 0.095,0.095 0.19,0.19 0.381,0.19 l 0.095,0 8.173,0 5.322,0 0.19,0 10.074,0 3.706,0 c 1.711,0 1.901,0 2.091,-0.095 0.095,0 0.095,-0.095 0.095,-0.095 0.19,-0.285 0.19,-0.666 0,-1.236 -0.57,-1.805 -1.996,-2.756 -3.991,-2.756 -1.616,0 -3.327,0.57 -4.182,0.951 l 0.95,-8.079 c 0,-0.095 0.571,-3.136 -0.285,-4.751 -0.57,-1.141 -1.52,-1.806 -2.756,-1.996 l -0.855,0 -0.761,0 c -2.47,0 -5.512,-0.095 -6.937,-0.095"
               inkscape:connector-curvature="0" />
          </g>
          <g
             transform="translate(87.6531,139.3242)"
             id="g8175">
            <path
               id="path8177"
               style="fill:#ffffff;fill-opacity:1;fill-rule:nonzero;stroke:none"
               d="m 0,0 0.76,0 6.558,0 0.285,0 0.76,0 0.761,0 c 0.57,0.095 1.425,0.38 1.995,1.521 0.476,0.95 0.38,2.851 0.19,4.181 l -1.14,9.884 0.95,-0.475 c 0,0 2.281,-1.141 4.372,-1.141 1.711,0 2.661,0.666 3.136,2.091 0,0.095 0.095,0.19 0.095,0.285 l -0.095,0 -1.235,0 -3.231,0 -0.666,0 -10.074,0 -0.38,0 -6.557,0 -6.178,0 c 0,-0.095 0,-0.095 0.095,-0.19 0.475,-1.425 1.521,-2.091 3.232,-2.091 2.09,0 4.466,1.141 4.466,1.141 l 0.951,0.475 -1.331,-9.884 c 0,0 -0.57,-2.946 0.19,-4.181 C -1.711,0.665 -0.95,0.19 0,0 m 0.665,-0.38 -0.76,0 c -1.045,0.095 -1.901,0.76 -2.376,1.711 -0.76,1.425 -0.19,4.466 -0.19,4.466 l 1.045,9.029 -0.285,-0.095 c 0,0 -2.376,-1.141 -4.657,-1.141 -1.9,0 -3.041,0.761 -3.611,2.376 -0.095,0.19 -0.095,0.38 -0.095,0.57 l 0,0.286 0.285,0 6.463,0 6.747,0 0.19,0 10.074,0 0.666,0 3.231,0 1.33,0 0.475,0 0,-0.191 c 0,-0.095 -0.095,-0.285 -0.095,-0.57 -0.475,-1.615 -1.615,-2.376 -3.516,-2.376 -2.186,0 -4.562,1.141 -4.562,1.141 l -0.38,0.095 1.046,-9.029 C 11.785,5.417 12.165,2.756 11.499,1.426 10.834,0.095 9.789,-0.19 9.219,-0.285 l -0.856,0 -1.045,0 C 4.942,-0.38 2.091,-0.38 0.665,-0.38 m -2.756,14.636 -0.95,-8.459 c 0,0 -0.57,-3.136 0.19,-4.657 0.57,-1.045 1.52,-1.71 2.566,-1.9 l 0.855,0 6.938,0 0.76,0 0.856,0 c 1.045,0.095 1.995,0.76 2.566,1.9 0.76,1.521 0.19,4.657 0.19,4.657 l -0.951,8.459 0.285,-0.095 c 0.856,-0.381 2.471,-0.951 4.087,-0.951 1.996,0 3.326,0.951 3.801,2.661 0.191,0.57 0.191,0.856 0.095,1.046 l -0.095,0.095 c -0.095,0.095 -0.76,0.095 -1.9,0.095 l -2.471,0 -1.616,0 -9.694,0 -0.285,0 -0.095,0 -5.702,0 -7.698,0 -0.095,0 c -0.095,0 -0.19,-0.095 -0.19,-0.095 -0.095,-0.19 -0.095,-0.571 0.095,-1.046 0.57,-1.71 1.901,-2.661 3.896,-2.661 1.616,0 3.327,0.57 4.182,0.951 l 0.38,0 z m 2.756,-15.396 -0.95,0 c -1.236,0.19 -2.281,0.855 -2.946,2.09 -0.856,1.711 -0.285,4.942 -0.285,4.942 l 0.855,7.698 c -0.95,-0.38 -2.471,-0.855 -3.992,-0.855 -2.185,0 -3.706,1.045 -4.276,2.946 -0.19,0.665 -0.19,1.141 0,1.426 0.095,0.19 0.285,0.285 0.475,0.285 l 0.19,0 7.698,0 5.892,0 0.57,0 9.314,0 1.616,0 2.471,0 c 1.805,0 1.995,0 2.186,-0.19 0,0 0.095,-0.095 0.19,-0.19 0.19,-0.285 0.19,-0.761 0,-1.426 -0.571,-1.901 -2.091,-2.946 -4.182,-2.946 -1.521,0 -3.041,0.475 -3.897,0.855 L 12.45,5.702 c 0,-0.095 0.57,-3.231 -0.285,-4.847 -0.666,-1.235 -1.616,-1.995 -2.851,-2.09 l -0.951,0 -0.76,0 C 5.132,-1.14 2.091,-1.14 0.665,-1.14"
               inkscape:connector-curvature="0" />
          </g>
          <g
             transform="translate(96.9351,160.2526)"
             id="g8179">
            <path
               id="path8181"
               style="fill:#ffffff;fill-opacity:1;fill-rule:nonzero;stroke:none"
               d="M 0,0 0.673,-0.354 -1.273,-4.055 -1.946,-3.702 0,0 z"
               inkscape:connector-curvature="0" />
          </g>
          <g
             transform="translate(95.2561,156.716)"
             id="g8183">
            <path
               id="path8185"
               style="fill:#ffffff;fill-opacity:1;fill-rule:nonzero;stroke:none"
               d="M 0,0 0.285,-0.19 1.996,3.136 1.711,3.326 0,0 z M 0.475,-0.76 -0.57,-0.19 1.521,3.897 2.566,3.326 0.475,-0.76 z"
               inkscape:connector-curvature="0" />
          </g>
          <g
             transform="translate(88.1066,160.2718)"
             id="g8187">
            <path
               id="path8189"
               style="fill:#ffffff;fill-opacity:1;fill-rule:nonzero;stroke:none"
               d="M 0,0 1.947,-3.701 1.274,-4.055 -0.673,-0.354 0,0 z"
               inkscape:connector-curvature="0" />
          </g>
          <g
             transform="translate(87.7482,159.8522)"
             id="g8191">
            <path
               id="path8193"
               style="fill:#ffffff;fill-opacity:1;fill-rule:nonzero;stroke:none"
               d="M 0,0 1.711,-3.326 1.996,-3.136 0.285,0.19 0,0 z M 1.616,-3.897 -0.475,0.19 0.57,0.76 2.661,-3.326 1.616,-3.897 z"
               inkscape:connector-curvature="0" />
          </g>
          <g
             transform="translate(84.8977,144.3716)"
             id="g8195">
            <path
               id="path8197"
               style="fill:#ffffff;fill-opacity:1;fill-rule:nonzero;stroke:none"
               d="M 0,0 14.541,-0.021 14.54,-0.781 -0.001,-0.76 0,0 z"
               inkscape:connector-curvature="0" />
          </g>
          <path
             id="path8199"
             style="fill:#ffffff;fill-opacity:1;fill-rule:nonzero;stroke:none"
             d="m 85.087,143.886 14.161,0 0,0.38 -14.161,0 0,-0.38 z m 14.541,-0.475 -14.921,0 0,1.14 14.921,0 0,-1.14 z"
             inkscape:connector-curvature="0" />
          <g
             transform="translate(94.7809,150.9187)"
             id="g8201">
            <path
               id="path8203"
               style="fill:#ffffff;fill-opacity:1;fill-rule:nonzero;stroke:none"
               d="m 0,0 c -0.285,0 -0.475,-0.19 -0.475,-0.475 0,-0.285 0.19,-0.475 0.475,-0.475 0.285,0 0.475,0.19 0.475,0.475 C 0.57,-0.285 0.285,0 0,0 m 0,-1.806 c -0.665,0 -1.235,0.571 -1.235,1.236 0,0.665 0.57,1.235 1.235,1.235 0.665,0 1.235,-0.57 1.235,-1.235 C 1.235,-1.235 0.76,-1.806 0,-1.806"
               inkscape:connector-curvature="0" />
          </g>
          <g
             transform="translate(94.7809,150.7287)"
             id="g8205">
            <path
               id="path8207"
               style="fill:#ffffff;fill-opacity:1;fill-rule:nonzero;stroke:none"
               d="m 0,0 c -0.19,0 -0.285,-0.095 -0.285,-0.285 0,-0.19 0.095,-0.285 0.285,-0.285 0.19,0 0.285,0.095 0.285,0.285 C 0.285,-0.19 0.19,0 0,0 m 0,-1.045 c -0.38,0 -0.665,0.285 -0.665,0.665 C -0.665,0 -0.38,0.285 0,0.285 0.38,0.285 0.665,0 0.665,-0.38 0.76,-0.76 0.38,-1.045 0,-1.045 M 0,0.76 c -0.57,0 -1.045,-0.475 -1.045,-1.045 0,-0.57 0.475,-1.046 1.045,-1.046 0.57,0 1.045,0.476 1.045,1.046 C 1.045,0.285 0.57,0.76 0,0.76 m 0,-2.566 c -0.76,0 -1.426,0.666 -1.426,1.426 0,0.76 0.666,1.425 1.426,1.425 0.76,0 1.426,-0.665 1.426,-1.425 C 1.521,-1.14 0.855,-1.806 0,-1.806"
               inkscape:connector-curvature="0" />
          </g>
          <g
             transform="translate(89.934,150.9187)"
             id="g8209">
            <path
               id="path8211"
               style="fill:#ffffff;fill-opacity:1;fill-rule:nonzero;stroke:none"
               d="m 0,0 c -0.285,0 -0.475,-0.19 -0.475,-0.475 0,-0.285 0.19,-0.475 0.475,-0.475 0.285,0 0.475,0.19 0.475,0.475 C 0.475,-0.19 0.285,0 0,0 m 0,-1.711 c -0.665,0 -1.235,0.571 -1.235,1.236 0,0.665 0.57,1.235 1.235,1.235 0.665,0 1.235,-0.57 1.235,-1.235 0,-0.76 -0.57,-1.236 -1.235,-1.236"
               inkscape:connector-curvature="0" />
          </g>
          <g
             transform="translate(89.934,150.7287)"
             id="g8213">
            <path
               id="path8215"
               style="fill:#ffffff;fill-opacity:1;fill-rule:nonzero;stroke:none"
               d="m 0,0 c -0.19,0 -0.285,-0.095 -0.285,-0.285 0,-0.19 0.095,-0.285 0.285,-0.285 0.19,0 0.285,0.095 0.285,0.285 C 0.285,-0.095 0.095,0 0,0 m 0,-1.045 c -0.38,0 -0.665,0.285 -0.665,0.665 C -0.665,0 -0.38,0.285 0,0.285 0.38,0.285 0.665,0 0.665,-0.38 0.665,-0.665 0.38,-1.045 0,-1.045 M 0,0.76 c -0.57,0 -1.045,-0.475 -1.045,-1.045 0,-0.57 0.475,-1.046 1.045,-1.046 0.57,0 1.045,0.476 1.045,1.046 C 1.045,0.285 0.57,0.76 0,0.76 m 0,-2.566 c -0.76,0 -1.426,0.666 -1.426,1.426 0,0.76 0.666,1.425 1.426,1.425 0.76,0 1.426,-0.665 1.426,-1.425 C 1.426,-1.14 0.76,-1.806 0,-1.806"
               inkscape:connector-curvature="0" />
          </g>
          <g
             transform="translate(86.9588,156.6137)"
             id="g8217">
            <path
               id="path8219"
               style="fill:#ffffff;fill-opacity:1;fill-rule:nonzero;stroke:none"
               d="M 0,0 0.644,-0.404 -0.923,-2.899 -1.567,-2.495 0,0 z"
               inkscape:connector-curvature="0" />
          </g>
          <g
             transform="translate(85.7524,154.15)"
             id="g8221">
            <path
               id="path8223"
               style="fill:#ffffff;fill-opacity:1;fill-rule:nonzero;stroke:none"
               d="M 0,0 0.285,-0.19 1.616,1.996 1.331,2.186 0,0 z M 0.38,-0.76 -0.57,-0.095 1.235,2.756 2.186,2.186 0.38,-0.76 z"
               inkscape:connector-curvature="0" />
          </g>
          <g
             transform="translate(99.0086,154.1166)"
             id="g8225">
            <path
               id="path8227"
               style="fill:#ffffff;fill-opacity:1;fill-rule:nonzero;stroke:none"
               d="M 0,0 -0.644,-0.404 -2.211,2.09 -1.567,2.495 0,0 z"
               inkscape:connector-curvature="0" />
          </g>
          <g
             transform="translate(97.0618,156.1458)"
             id="g8229">
            <path
               id="path8231"
               style="fill:#ffffff;fill-opacity:1;fill-rule:nonzero;stroke:none"
               d="M 0,0 1.331,-2.186 1.616,-1.996 0.285,0.19 0,0 z m 1.235,-2.756 -1.805,2.851 0.95,0.57 1.806,-2.851 -0.951,-0.57 z"
               inkscape:connector-curvature="0" />
          </g>
          <g
             transform="translate(80.0502,163.6537)"
             id="g8233">
            <path
               id="path8235"
               style="fill:#ffffff;fill-opacity:1;fill-rule:nonzero;stroke:none"
               d="m 0,0 -3.326,-3.992 -0.856,0.666 -0.95,5.322 -2.091,-2.376 -0.76,0.57 3.136,3.802 0.76,-0.571 0.951,-5.417 L -0.855,0.76 0,0 z"
               inkscape:connector-curvature="0" />
          </g>
          <g
             transform="translate(81.4757,164.604)"
             id="g8237">
            <path
               id="path8239"
               style="fill:#ffffff;fill-opacity:1;fill-rule:nonzero;stroke:none"
               d="M 0,0 -3.231,5.227 0.855,7.793 1.331,6.938 -1.616,5.132 -0.855,3.897 1.235,5.227 1.711,4.372 -0.38,3.041 0.475,1.521 3.516,3.326 3.992,2.471 0,0 z"
               inkscape:connector-curvature="0" />
          </g>
          <g
             transform="translate(87.0829,167.6452)"
             id="g8241">
            <path
               id="path8243"
               style="fill:#ffffff;fill-opacity:1;fill-rule:nonzero;stroke:none"
               d="M 0,0 -0.95,6.082 0.475,6.272 3.992,2.566 3.421,6.748 4.752,6.938 5.702,0.855 4.372,0.665 0.76,4.562 1.426,0.19 0,0 z"
               inkscape:connector-curvature="0" />
          </g>
          <g
             transform="translate(98.7724,171.8269)"
             id="g8245">
            <path
               id="path8247"
               style="fill:#ffffff;fill-opacity:1;fill-rule:nonzero;stroke:none"
               d="M 0,0 C -0.095,0.475 -0.475,0.95 -1.045,1.14 -1.616,1.331 -2.091,1.235 -2.186,0.76 -2.471,-0.285 1.235,-0.95 0.76,-2.946 0.475,-4.182 -0.57,-4.562 -2.186,-4.182 c -1.14,0.285 -2.091,1.141 -2.281,2.091 l 1.236,0.095 c 0.19,-0.665 0.475,-1.14 1.33,-1.33 0.666,-0.19 1.236,-0.095 1.426,0.475 0.285,1.14 -3.422,1.901 -2.946,3.706 0.285,1.046 1.52,1.426 2.661,1.141 C 0.38,1.711 1.235,0.95 1.426,0 L 0,0 z"
               inkscape:connector-curvature="0" />
          </g>
          <g
             transform="translate(100.5782,166.5048)"
             id="g8249">
            <path
               id="path8251"
               style="fill:#ffffff;fill-opacity:1;fill-rule:nonzero;stroke:none"
               d="M 0,0 3.326,5.227 4.467,4.467 1.14,-0.76 0,0 z"
               inkscape:connector-curvature="0" />
          </g>
          <g
             transform="translate(103.9044,164.2239)"
             id="g8253">
            <path
               id="path8255"
               style="fill:#ffffff;fill-opacity:1;fill-rule:nonzero;stroke:none"
               d="M 0,0 4.657,4.087 7.888,0.475 7.128,-0.19 4.847,2.376 3.706,1.426 5.322,-0.475 4.562,-1.14 2.946,0.76 1.616,-0.38 3.992,-3.041 3.231,-3.706 0,0 z"
               inkscape:connector-curvature="0" />
          </g>
          <g
             transform="translate(81.8559,131.7212)"
             id="g8257">
            <path
               id="path8259"
               style="fill:#ffffff;fill-opacity:1;fill-rule:nonzero;stroke:none"
               d="m 0,0 c 0.665,-0.285 1.331,-0.475 1.616,0.095 0.19,0.38 0,0.76 -0.381,0.95 -0.38,0.19 -0.76,0.095 -1.14,-0.095 l -0.38,0.761 C 0.38,1.996 1.045,1.996 1.521,1.806 2.376,1.426 2.946,0.665 2.566,-0.19 2.376,-0.665 1.901,-0.95 1.331,-0.95 1.806,-1.426 1.901,-1.996 1.616,-2.661 1.14,-3.706 0.095,-3.801 -0.76,-3.421 c -0.666,0.285 -1.236,0.95 -1.236,1.71 l 0.856,0.095 c 0.095,-0.475 0.285,-0.855 0.76,-1.14 0.475,-0.19 0.95,-0.095 1.14,0.38 0.38,0.855 -0.475,1.236 -1.045,1.521 L 0,0 z"
               inkscape:connector-curvature="0" />
          </g>
          <g
             transform="translate(86.9879,127.2545)"
             id="g8261">
            <path
               id="path8263"
               style="fill:#ffffff;fill-opacity:1;fill-rule:nonzero;stroke:none"
               d="m 0,0 c 0.57,-0.095 1.045,0.285 1.331,1.806 0.285,1.52 0,2.091 -0.571,2.186 C 0.19,4.087 -0.285,3.706 -0.57,2.186 -0.855,0.665 -0.57,0.095 0,0 M 0.95,4.752 C 2.376,4.467 2.566,3.136 2.281,1.616 1.996,0.095 1.235,-1.045 -0.19,-0.76 -1.616,-0.475 -1.806,0.855 -1.521,2.376 -1.14,3.897 -0.38,5.037 0.95,4.752"
               inkscape:connector-curvature="0" />
          </g>
          <g
             transform="translate(91.2645,125.924)"
             id="g8265">
            <path
               id="path8267"
               style="fill:#ffffff;fill-opacity:1;fill-rule:nonzero;stroke:none"
               d="M 0,0 -0.38,5.512 1.045,5.607 2.281,1.806 3.041,5.702 4.467,5.797 4.847,0.285 3.992,0.19 3.801,4.562 2.851,0.095 2.091,0 0.665,4.277 0.95,-0.095 0,0 z"
               inkscape:connector-curvature="0" />
          </g>
          <g
             transform="translate(98.9625,126.7793)"
             id="g8269">
            <path
               id="path8271"
               style="fill:#ffffff;fill-opacity:1;fill-rule:nonzero;stroke:none"
               d="M 0,0 -1.806,5.227 -0.855,5.512 -0.095,3.421 1.806,4.087 1.045,6.177 1.996,6.463 3.801,1.235 2.851,0.95 2.091,3.231 0.19,2.566 0.95,0.285 0,0 z"
               inkscape:connector-curvature="0" />
          </g>
          <g
             transform="translate(102.764,132.5766)"
             id="g8273">
            <path
               id="path8275"
               style="fill:#ffffff;fill-opacity:1;fill-rule:nonzero;stroke:none"
               d="m 0,0 2.471,1.426 0.38,-0.571 -0.285,-3.136 1.616,0.95 0.38,-0.665 -2.566,-1.52 -0.38,0.57 L 1.901,0.19 0.475,-0.665 0,0 z"
               inkscape:connector-curvature="0" />
          </g>
          <g
             transform="translate(90.1241,141.5101)"
             id="g8277">
            <path
               id="path8279"
               style="fill:#ffffff;fill-opacity:1;fill-rule:nonzero;stroke:none"
               d="M 0,0 C 0.095,-0.38 0,-0.57 -0.38,-0.665 -0.665,-0.76 -1.14,-0.57 -1.235,-0.19 -1.331,0.19 -1.045,0.57 -0.76,0.57 -0.38,0.665 -0.095,0.38 0,0"
               inkscape:connector-curvature="0" />
          </g>
          <g
             transform="translate(89.6489,140.4646)"
             id="g8281">
            <path
               id="path8283"
               style="fill:#ffffff;fill-opacity:1;fill-rule:nonzero;stroke:none"
               d="M 0,0 C -0.57,0 -1.045,0.285 -1.045,0.76 -1.14,1.331 -0.76,1.901 -0.285,1.996 0.285,2.091 0.76,1.616 0.855,1.045 0.95,0.285 0.57,0 0.19,0 L 0,0 z"
               inkscape:connector-curvature="0" />
          </g>
        </g>
      </g>
    </g>
  </g>
</svg>
